<svg xmlns="http://www.w3.org/2000/svg" viewBox="0 0 275.73 150.48"><defs><style>.cls-1{fill:#7d4e24;}.cls-1,.cls-4{stroke:#dadada;}.cls-1,.cls-2,.cls-4,.cls-6{stroke-miterlimit:10;stroke-width:4.5px;}.cls-2,.cls-6{fill:none;}.cls-2{stroke:#7d4e24;}.cls-3{fill:#dadada;}.cls-4,.cls-5{fill:#1d1d1b;}.cls-6{stroke:#1d1d1b;}</style></defs><title>Asset 4</title><g id="Layer_2" data-name="Layer 2"><g id="Layer_1-2" data-name="Layer 1"><rect class="cls-1" x="79.13" y="72.66" width="119.2" height="75.57"/><rect class="cls-2" x="121.57" y="59.07" width="34.32" height="18.1"/><rect class="cls-3" x="130.38" y="93.57" width="18.44" height="15.52"/><polygon class="cls-3" points="0 0 78.27 0 78.27 44.53 23.48 44.53 27.69 61.46 11.44 44.53 0 44.53 0 0"/><polygon class="cls-3" points="275.73 0 197.46 0 197.46 44.53 252.25 44.53 248.04 61.46 264.29 44.53 275.73 44.53 275.73 0"/><line class="cls-4" x1="79.13" y1="101.58" x2="197.46" y2="101.58"/><path class="cls-5" d="M44.89,16.38a2.31,2.31,0,0,0-.54-.39,12.24,12.24,0,0,0-1.12-.59,15.83,15.83,0,0,0-1.5-.6,9.19,9.19,0,0,0-1.66-.4v4.08l1,.24a25.71,25.71,0,0,1,2.76.91,7.69,7.69,0,0,1,2.1,1.23,4.91,4.91,0,0,1,1.33,1.79,6.18,6.18,0,0,1,.46,2.52,6.46,6.46,0,0,1-.6,2.91,5.55,5.55,0,0,1-1.6,2,7.18,7.18,0,0,1-2.31,1.15,11.19,11.19,0,0,1-2.74.45v3.48h-2.1v-3.5a17.78,17.78,0,0,1-4.09-.85A16,16,0,0,1,30.59,29l2.16-4.29a3.38,3.38,0,0,0,.66.5,13.5,13.5,0,0,0,1.35.73,16.27,16.27,0,0,0,1.83.73,10,10,0,0,0,2.1.46v-4l-1.44-.42a17.59,17.59,0,0,1-2.55-1,7,7,0,0,1-1.8-1.21A4.33,4.33,0,0,1,31.84,19a5.82,5.82,0,0,1-.35-2.1A6.75,6.75,0,0,1,32,14.12,6.43,6.43,0,0,1,33.49,12a6.63,6.63,0,0,1,2.16-1.36A10,10,0,0,1,38.33,10V7h2.1v3a12.59,12.59,0,0,1,3.66.87A25.43,25.43,0,0,1,47,12.31Zm-8.3-.27a1.41,1.41,0,0,0,.52,1.17,5.36,5.36,0,0,0,1.57.78V14.37Q36.59,14.55,36.59,16.11Zm5.78,9.53a1.39,1.39,0,0,0-.63-1.21,6.9,6.9,0,0,0-1.68-.8v3.6Q42.37,27.14,42.37,25.64Z"/><line class="cls-6" x1="208.32" y1="9.28" x2="264.87" y2="9.28"/><line class="cls-6" x1="208.32" y1="21.06" x2="264.87" y2="21.06"/><line class="cls-6" x1="208.32" y1="33" x2="236.6" y2="33"/></g></g></svg>