<svg xmlns="http://www.w3.org/2000/svg" viewBox="0 0 201.81 149.8"><defs><style>.cls-1{fill:#be1622;}.cls-1,.cls-2{stroke:#fff;}.cls-1,.cls-2,.cls-3,.cls-4{stroke-miterlimit:10;}.cls-1,.cls-2,.cls-3{stroke-width:3.38px;}.cls-2,.cls-5{fill:#1d1d1b;}.cls-3,.cls-4{fill:#fff;stroke:#1d1d1b;}.cls-4{stroke-width:3.57px;}</style></defs><title>Asset 1</title><g id="Layer_2" data-name="Layer 2"><g id="Layer_1-2" data-name="Layer 1"><path class="cls-1" d="M133.84,11.42,111.48,35.91v33.5h88.65v-34L177.87,11.32A29.88,29.88,0,0,0,133.84,11.42Z"/><rect class="cls-2" x="111.48" y="59.47" width="88.65" height="88.65"/><rect class="cls-3" x="133.61" y="13.27" width="44.37" height="44.37" rx="22.18" ry="22.18" transform="translate(70.7 -99.78) rotate(45)"/><line class="cls-4" x1="126.63" y1="16.47" x2="182.93" y2="16.47"/><path class="cls-5" d="M19.41,13.63h0A78.89,78.89,0,0,0,0,65.46v4H84.59V64.67A77.43,77.43,0,0,0,65.3,13.53h0A30.5,30.5,0,0,0,19.41,13.63Z"/><rect class="cls-5" y="59.92" width="84.59" height="88.65"/><rect class="cls-3" x="20.31" y="13.73" width="44.37" height="44.37" rx="22.18" ry="22.18" transform="translate(37.84 -19.53) rotate(45)"/></g></g></svg>