<svg xmlns="http://www.w3.org/2000/svg" viewBox="0 0 257.4 191.07"><defs><style>.cls-1{fill:#dadada;}.cls-1,.cls-2{stroke:#fff;}.cls-1,.cls-2,.cls-3,.cls-4{stroke-miterlimit:10;}.cls-1,.cls-2,.cls-3{stroke-width:4.31px;}.cls-2,.cls-5{fill:#1d1d1b;}.cls-3,.cls-4{fill:#fff;stroke:#1d1d1b;}.cls-4{stroke-width:4.55px;}</style></defs><title>Asset 14</title><g id="Layer_2" data-name="Layer 2"><g id="Layer_1-2" data-name="Layer 1"><path class="cls-1" d="M170.7,14.57,142.18,45.8V88.54H255.24V45.22L226.87,14.44A38.11,38.11,0,0,0,170.7,14.57Z"/><rect class="cls-2" x="142.18" y="75.85" width="113.06" height="113.06"/><rect class="cls-3" x="170.42" y="16.93" width="56.59" height="56.59" rx="28.29" ry="28.29" transform="translate(90.18 -127.26) rotate(45)"/><line class="cls-4" x1="161.51" y1="21.01" x2="233.31" y2="21.01"/><path class="cls-5" d="M24.76,17.39h0A100.62,100.62,0,0,0,0,83.49v5H107.89V82.48a98.76,98.76,0,0,0-24.6-65.22h0A38.9,38.9,0,0,0,24.76,17.39Z"/><rect class="cls-5" y="76.43" width="107.89" height="113.06"/><rect class="cls-3" x="25.9" y="17.51" width="56.59" height="56.59" rx="28.29" ry="28.29" transform="translate(48.26 -24.91) rotate(45)"/></g></g></svg>