<svg xmlns="http://www.w3.org/2000/svg" viewBox="0 0 58.71 58.71"><defs><style>.cls-1{fill:#9d9d9c;stroke-width:2.02px;}.cls-1,.cls-2,.cls-3{stroke:#1d1d1b;stroke-miterlimit:10;}.cls-2,.cls-3{fill:#fff;}.cls-2{stroke-width:1.16px;}.cls-3{stroke-width:1.18px;}</style></defs><title>Asset 7</title><g id="Layer_2" data-name="Layer 2"><g id="Layer_1-2" data-name="Layer 1"><rect class="cls-1" x="1.01" y="1.01" width="56.69" height="56.69" rx="9.61" ry="9.61"/><circle class="cls-2" cx="13.48" cy="13.2" r="3.23"/><path class="cls-2" d="M13.48,18.67h0A6.33,6.33,0,0,1,19.8,25v8.71a0,0,0,0,1,0,0H7.15a0,0,0,0,1,0,0V25A6.33,6.33,0,0,1,13.48,18.67Z"/><circle class="cls-2" cx="29.36" cy="13.2" r="3.23"/><path class="cls-2" d="M29.36,18.67h0A6.33,6.33,0,0,1,35.68,25v8.71a0,0,0,0,1,0,0H23a0,0,0,0,1,0,0V25A6.33,6.33,0,0,1,29.36,18.67Z"/><circle class="cls-2" cx="45.24" cy="13.2" r="3.23"/><path class="cls-2" d="M45.24,18.67h0A6.33,6.33,0,0,1,51.56,25v8.71a0,0,0,0,1,0,0H38.91a0,0,0,0,1,0,0V25a6.33,6.33,0,0,1,6.33-6.33Z"/><circle class="cls-3" cx="21.26" cy="29.72" r="3.29"/><path class="cls-3" d="M21.26,35.3h0a6.45,6.45,0,0,1,6.45,6.45v8.89a0,0,0,0,1,0,0H14.8a0,0,0,0,1,0,0V41.75A6.45,6.45,0,0,1,21.26,35.3Z"/><circle class="cls-3" cx="37.46" cy="29.72" r="3.29"/><path class="cls-3" d="M37.46,35.3h0a6.45,6.45,0,0,1,6.45,6.45v8.89a0,0,0,0,1,0,0H31a0,0,0,0,1,0,0V41.75A6.45,6.45,0,0,1,37.46,35.3Z"/></g></g></svg>