<svg xmlns="http://www.w3.org/2000/svg" viewBox="0 0 21.75 21.75"><defs><style>.cls-1{fill:#9d9d9c;stroke-width:0.75px;}.cls-1,.cls-2{stroke:#1d1d1b;stroke-miterlimit:10;}.cls-2{fill:#fff;stroke-width:0.67px;}</style></defs><title>Asset 1</title><g id="Layer_2" data-name="Layer 2"><g id="Layer_1-2" data-name="Layer 1"><rect class="cls-1" x="0.38" y="0.37" width="21" height="21" rx="3.56" ry="3.56"/><path class="cls-2" d="M7.54,16.71h7a1.55,1.55,0,0,0,1.53-1.27l.78-4.24v-.49a1.55,1.55,0,0,0-1.56-1.56H11.09V4.94A1.55,1.55,0,0,0,9.54,3.38h0a.27.27,0,0,0-.22.16L7.54,9.6Z"/><path class="cls-2" d="M7.09,9.6h-2a.21.21,0,0,0-.22.22v6.67a.21.21,0,0,0,.22.22h2Z"/></g></g></svg>