<svg xmlns="http://www.w3.org/2000/svg" viewBox="0 0 1556.66 1459.27"><defs><style>.cls-1{isolation:isolate;}.cls-2{opacity:0.14;}.cls-2,.cls-5{mix-blend-mode:multiply;}.cls-3,.cls-4{fill:#3c3c3b;}.cls-3,.cls-6{mix-blend-mode:soft-light;}.cls-6,.cls-7{fill:#be1622;}.cls-8{opacity:0.5;}</style></defs><title>Asset 13</title><g class="cls-1"><g id="Layer_2" data-name="Layer 2"><g id="Layer_1-2" data-name="Layer 1"><g class="cls-2"><polygon class="cls-3" points="833.49 1306.07 757.88 1230.03 833.47 1153.99 833.49 1306.07"/><polygon class="cls-3" points="757.88 1382.11 682.27 1306.08 757.85 1230.04 757.88 1382.11"/><polygon class="cls-3" points="531.13 1306.07 606.73 1230.03 531.15 1153.99 531.13 1306.07"/><polygon class="cls-3" points="606.73 1382.11 682.35 1306.08 606.77 1230.04 606.73 1382.11"/><polygon class="cls-4" points="834.24 1306.44 910.28 1230.84 986.31 1306.43 834.24 1306.44"/><polygon class="cls-4" points="757.83 1382.85 833.87 1307.26 909.9 1382.84 757.83 1382.85"/><polygon class="cls-4" points="681.42 1459.27 757.45 1383.67 833.49 1459.25 681.42 1459.27"/><polygon class="cls-4" points="833.87 1154.43 909.89 1230.03 985.94 1154.45 833.87 1154.43"/><polygon class="cls-4" points="531.13 1306.44 455.1 1230.84 379.06 1306.43 531.13 1306.44"/><polygon class="cls-4" points="607.54 1382.85 531.51 1307.26 455.47 1382.84 607.54 1382.85"/><polygon class="cls-4" points="683.95 1459.27 607.92 1383.67 531.88 1459.25 683.95 1459.27"/><polygon class="cls-4" points="530.75 1154.43 454.72 1230.03 378.69 1154.45 530.75 1154.43"/><path class="cls-4" d="M912.16,1230.84"/></g><g class="cls-5"><polygon class="cls-6" points="1197.14 361.27 1376.9 540.02 1556.66 361.33 1197.14 361.27"/><polygon class="cls-6" points="1017.4 540.02 1197.13 718.76 1376.88 540.09 1017.4 540.02"/><polygon class="cls-6" points="1197.14 1076.05 1376.9 897.32 1556.66 1075.99 1197.14 1076.05"/><polygon class="cls-6" points="1017.4 897.32 1197.13 718.57 1376.88 897.24 1017.4 897.32"/><polygon class="cls-7" points="1196.27 359.49 1374.98 179.75 1196.31 0 1196.27 359.49"/><polygon class="cls-7" points="1015.63 540.13 1194.35 360.39 1015.67 180.63 1015.63 540.13"/><polygon class="cls-7" points="835 720.76 1013.71 541.03 835.03 361.27 835 720.76"/><polygon class="cls-7" points="1555.63 360.37 1376.9 180.66 1555.57 0.89 1555.63 360.37"/><polygon class="cls-7" points="1196.27 1076.05 1374.98 1255.78 1196.31 1435.53 1196.27 1076.05"/><polygon class="cls-7" points="1015.63 895.41 1194.35 1075.15 1015.67 1254.9 1015.63 895.41"/><polygon class="cls-7" points="835 714.77 1013.71 894.51 835.03 1074.27 835 714.77"/><polygon class="cls-7" points="1555.63 1076.95 1376.9 1256.66 1555.57 1436.42 1555.63 1076.95"/><path class="cls-7" d="M1375,175.3"/></g><g class="cls-8"><polygon class="cls-3" points="95.97 1307.6 143.46 1355.36 95.99 1403.11 95.97 1307.6"/><polygon class="cls-3" points="143.46 1259.85 190.94 1307.6 143.48 1355.35 143.46 1259.85"/><polygon class="cls-3" points="285.86 1307.6 238.38 1355.36 285.85 1403.11 285.86 1307.6"/><polygon class="cls-3" points="238.38 1259.85 190.89 1307.6 238.36 1355.35 238.38 1259.85"/><polygon class="cls-4" points="95.5 1307.37 47.75 1354.85 0 1307.38 95.5 1307.37"/><polygon class="cls-4" points="143.49 1259.38 95.74 1306.86 47.99 1259.39 143.49 1259.38"/><polygon class="cls-4" points="191.47 1211.4 143.73 1258.87 95.97 1211.41 191.47 1211.4"/><polygon class="cls-4" points="95.73 1402.84 47.99 1355.36 0.24 1402.82 95.73 1402.84"/><polygon class="cls-4" points="285.86 1307.37 333.61 1354.85 381.36 1307.38 285.86 1307.37"/><polygon class="cls-4" points="237.87 1259.38 285.62 1306.86 333.37 1259.39 237.87 1259.38"/><polygon class="cls-4" points="189.88 1211.4 237.63 1258.87 285.39 1211.41 189.88 1211.4"/><polygon class="cls-4" points="286.1 1402.84 333.84 1355.36 381.59 1402.82 286.1 1402.84"/><path class="cls-4" d="M46.57,1354.85"/></g></g></g></g></svg>