<svg xmlns="http://www.w3.org/2000/svg" viewBox="0 0 230.98 126.06"><defs><style>.cls-1,.cls-4{fill:#1d1d1b;}.cls-1{stroke:#dadada;}.cls-1,.cls-2{stroke-miterlimit:10;stroke-width:3.77px;}.cls-2{fill:none;stroke:#1d1d1b;}.cls-3{fill:#dadada;}</style></defs><title>Asset 16</title><g id="Layer_2" data-name="Layer 2"><g id="Layer_1-2" data-name="Layer 1"><rect class="cls-1" x="66.29" y="60.87" width="99.85" height="63.3"/><rect class="cls-2" x="101.84" y="49.49" width="28.75" height="15.16"/><rect class="cls-3" x="109.22" y="78.39" width="15.45" height="13.01"/><polygon class="cls-3" points="0 0 65.56 0 65.56 37.3 19.67 37.3 23.2 51.49 9.58 37.3 0 37.3 0 0"/><polygon class="cls-3" points="230.98 0 165.42 0 165.42 37.3 211.31 37.3 207.78 51.49 221.4 37.3 230.98 37.3 230.98 0"/><line class="cls-1" x1="66.29" y1="85.1" x2="165.42" y2="85.1"/><path class="cls-4" d="M37.6,13.72a1.94,1.94,0,0,0-.45-.32,10.26,10.26,0,0,0-.94-.49,13.26,13.26,0,0,0-1.26-.5,7.69,7.69,0,0,0-1.39-.34v3.42l.8.2a21.54,21.54,0,0,1,2.31.77,6.44,6.44,0,0,1,1.76,1A4.11,4.11,0,0,1,39.55,19a5.18,5.18,0,0,1,.39,2.11,5.41,5.41,0,0,1-.5,2.44,4.65,4.65,0,0,1-1.34,1.64,6,6,0,0,1-1.93,1,9.37,9.37,0,0,1-2.3.38v2.91H32.1V26.48a14.9,14.9,0,0,1-3.43-.72,13.37,13.37,0,0,1-3.05-1.44l1.81-3.59a2.83,2.83,0,0,0,.55.41,11.31,11.31,0,0,0,1.13.61,13.63,13.63,0,0,0,1.53.61,8.4,8.4,0,0,0,1.76.39V19.42l-1.21-.35a14.73,14.73,0,0,1-2.13-.82,5.87,5.87,0,0,1-1.51-1,3.63,3.63,0,0,1-.89-1.33,4.87,4.87,0,0,1-.29-1.76,5.65,5.65,0,0,1,.45-2.32,5.39,5.39,0,0,1,1.22-1.74,5.56,5.56,0,0,1,1.81-1.14A8.35,8.35,0,0,1,32.1,8.4V5.87h1.76V8.4a10.55,10.55,0,0,1,3.06.73,21.3,21.3,0,0,1,2.46,1.18Zm-7-.22a1.18,1.18,0,0,0,.44,1,4.49,4.49,0,0,0,1.32.65V12Q30.65,12.19,30.65,13.5Zm4.84,8a1.16,1.16,0,0,0-.53-1,5.78,5.78,0,0,0-1.41-.67v3Q35.49,22.74,35.49,21.48Z"/><line class="cls-2" x1="174.51" y1="7.77" x2="221.88" y2="7.77"/><line class="cls-2" x1="174.51" y1="17.64" x2="221.88" y2="17.64"/><line class="cls-2" x1="174.51" y1="27.64" x2="198.2" y2="27.64"/></g></g></svg>