<svg xmlns="http://www.w3.org/2000/svg" viewBox="0 0 372.46 167.98"><defs><style>.cls-1{fill:#010101;}.cls-2{fill:#dadada;}.cls-3{fill:#be1622;}.cls-4{fill:#f6f6f6;}.cls-5{fill:#1d1d1b;}</style></defs><title>Asset 20</title><g id="Layer_2" data-name="Layer 2"><g id="Layer_1-2" data-name="Layer 1"><path class="cls-1" d="M4.67,168h0a.6.6,0,0,1-.51-.35L.1,159.78a1,1,0,0,1,.07-1,.52.52,0,0,1,.77-.12L6.13,163,63.27,53.51l1,.89L7.17,163.82l3.25,2.68-.66,1.34-3.27-2.71-1.3,2.48A.59.59,0,0,1,4.67,168Zm-1.91-5.91,1.91,3.68.77-1.47Z"/><path class="cls-1" d="M366,168h0a.6.6,0,0,1-.48-.34l-1.3-2.4-3.08,2.61-.68-1.33,3-2.58L303,52.55l1-.91,60.49,111.42,7-5.91a.52.52,0,0,1,.79.13,1,1,0,0,1,0,1l-5.82,9.37A.57.57,0,0,1,366,168Zm-.78-3.61.81,1.49,2.87-4.61Z"/><path class="cls-1" d="M135.31,1.84S156.77,13.19,181,14.05C208.83,15,234.77.9,234.77.9a151.81,151.81,0,0,0,34.12,33.82c19.07,13.48,36.3,16.91,36.3,16.91l.75,115.55H62.71V53.51s15.41-4.39,35.57-18.79A230.72,230.72,0,0,0,135.31,1.84Z"/><path class="cls-2" d="M306.53,167.93H62.13v-115l.46-.13c.15,0,15.57-4.54,35.42-18.72A232.16,232.16,0,0,0,134.92,1.28L135.2,1l.34.18c.21.12,21.64,11.31,45.53,12.16,27.34,1,53.22-13,53.48-13.09l.38-.21.28.4a152.53,152.53,0,0,0,34,33.66c18.76,13.26,35.94,16.79,36.11,16.83l.49.1v.64ZM63.3,166.43H305.35l-.74-114.16a109,109,0,0,1-36-16.89,154.74,154.74,0,0,1-34-33.58c-3.33,1.73-27.84,13.88-53.58,13-22.47-.8-42.77-10.66-45.6-12.1A235.92,235.92,0,0,1,98.57,35.38C80.47,48.3,66,53.25,63.3,54.1Z"/><rect class="cls-3" x="63.3" y="80.86" width="241.52" height="6.37"/><rect class="cls-4" x="63.3" y="96.31" width="241.61" height="1.59"/><rect class="cls-3" x="63.3" y="106.98" width="241.69" height="6.37"/><rect class="cls-4" x="63.3" y="122.44" width="241.81" height="1.59"/><rect class="cls-3" x="63.23" y="133.12" width="241.93" height="6.37"/><rect class="cls-4" x="63.3" y="148.57" width="241.95" height="1.59"/><rect class="cls-4" x="63.3" y="163.18" width="242.05" height="3.25"/><polygon class="cls-5" points="228.74 162.18 133.93 162.18 147.83 54.1 216.52 54.02 228.74 162.18"/><path class="cls-1" d="M183,36.25s26.67,17.64,57.35,27.6c28.16,9.14,58.18-8.61,63.16-11.75.21-.13.15-.53-.08-.56-3.75-.51-20.22-3.58-39-19.39A264.37,264.37,0,0,1,233.84.9s-28,10.59-53.72,13.15c-22.28,2.22-45.74-12.21-45.74-12.21a209,209,0,0,1-32.07,29.24c-14.61,10.7-27.39,17.54-38.52,22a.5.5,0,0,0,0,.87c13.41,5.69,38,17.59,67.3,6.54A381.37,381.37,0,0,0,183,36.25Z"/><path class="cls-2" d="M257.44,67.25a55.56,55.56,0,0,1-17.22-2.63C211.44,55.27,185.87,39,183,37.13a387.48,387.48,0,0,1-51.75,24.14c-27.95,10.52-51.4.44-65.41-5.58l-2.26-1a1.39,1.39,0,0,1,0-2.39c12.56-5,25.12-12.21,38.4-21.94A208.27,208.27,0,0,0,134,1.24l.3-.34.36.22c.23.14,23.55,14.31,45.42,12.14,25.33-2.53,53.32-13,53.6-13.12L234,0l.26.32c.14.17,14.14,17.37,30.52,31.15,18.87,15.87,35.58,18.83,38.74,19.27a1,1,0,0,1,.75.9,1.19,1.19,0,0,1-.46,1.17C299.29,55.66,279.53,67.25,257.44,67.25ZM183,35.36l.26.17c.27.18,27,17.71,57.22,27.54,26.14,8.48,53.74-6.27,61.54-11-5.83-1-20.85-4.92-38-19.3C248.86,20,235.66,4.2,233.67,1.79,230.39,3,204.11,12.46,180.16,14.85c-20.67,2.07-42.6-10.26-45.68-12.07a209.56,209.56,0,0,1-31.87,29C89.52,41.36,77.13,48.48,64.74,53.53l1.49.64c13.88,6,37.1,16,64.68,5.56a384.56,384.56,0,0,0,51.86-24.21Z"/></g></g></svg>