<svg xmlns="http://www.w3.org/2000/svg" viewBox="0 0 248.31 111.98"><defs><style>.cls-1{fill:#010101;}.cls-2{fill:#dadada;}.cls-3{fill:#f6f6f6;}.cls-4{fill:#1d1d1b;}</style></defs><title>Asset 22</title><g id="Layer_2" data-name="Layer 2"><g id="Layer_1-2" data-name="Layer 1"><path class="cls-1" d="M3.12,112h0a.4.4,0,0,1-.34-.23L.07,106.52a.65.65,0,0,1,0-.67.34.34,0,0,1,.51-.08l3.46,2.86,38.09-73,.68.59L4.78,109.22,6.94,111l-.44.9L4.32,110.1l-.86,1.66A.39.39,0,0,1,3.12,112ZM1.85,108l1.27,2.46.51-1Z"/><path class="cls-1" d="M244,112h0a.4.4,0,0,1-.32-.23l-.87-1.6-2.05,1.74-.45-.89,2-1.72L202,35l.67-.61L243,108.71l4.65-3.94a.35.35,0,0,1,.53.09.65.65,0,0,1,0,.69l-3.88,6.25A.38.38,0,0,1,244,112Zm-.52-2.41.54,1,1.91-3.08Z"/><path class="cls-1" d="M90.21,1.23s14.3,7.57,30.49,8.14C139.22,10,156.51.6,156.51.6a101.21,101.21,0,0,0,22.75,22.55c12.71,9,24.2,11.27,24.2,11.27l.5,77H41.81V35.67s10.27-2.93,23.72-12.53A153.81,153.81,0,0,0,90.21,1.23Z"/><path class="cls-2" d="M204.35,112H41.42V35.27l.3-.09c.1,0,10.38-3,23.61-12.48A154.77,154.77,0,0,0,89.95.85l.18-.21.22.12c.14.08,14.43,7.54,30.35,8.1,18.23.65,35.48-8.64,35.65-8.73l.26-.14.18.27a101.69,101.69,0,0,0,22.64,22.44,70.79,70.79,0,0,0,24.07,11.22l.33.06v.43ZM42.2,111H203.57l-.49-76.11a72.68,72.68,0,0,1-24-11.26A103.16,103.16,0,0,1,156.41,1.2c-2.22,1.15-18.56,9.25-35.72,8.67-15-.53-28.51-7.11-30.4-8.07A157.28,157.28,0,0,1,65.71,23.59C53.65,32.2,44,35.5,42.2,36.07Z"/><rect class="cls-3" x="42.2" y="53.9" width="161.02" height="4.25"/><rect class="cls-3" x="42.2" y="64.21" width="161.07" height="1.06"/><rect class="cls-3" x="42.2" y="71.32" width="161.13" height="4.25"/><rect class="cls-3" x="42.2" y="81.63" width="161.21" height="1.06"/><rect class="cls-3" x="42.15" y="88.74" width="161.29" height="4.25"/><rect class="cls-3" x="42.2" y="99.05" width="161.3" height="1.06"/><rect class="cls-3" x="42.2" y="108.79" width="161.37" height="2.17"/><polygon class="cls-4" points="152.49 108.12 89.29 108.12 98.56 36.06 144.34 36.01 152.49 108.12"/><path class="cls-1" d="M122,24.16s17.78,11.76,38.24,18.4c18.78,6.1,38.79-5.74,42.11-7.83.14-.09.1-.35-.05-.37-2.5-.34-13.48-2.38-26-12.93A176.25,176.25,0,0,1,155.89.6S137.2,7.66,120.08,9.37c-14.85,1.48-30.49-8.14-30.49-8.14A139.3,139.3,0,0,1,68.2,20.72,117.71,117.71,0,0,1,42.52,35.39a.34.34,0,0,0,0,.58c8.94,3.79,25.31,11.73,44.87,4.36A254.24,254.24,0,0,0,122,24.16Z"/><path class="cls-2" d="M171.63,44.83a37,37,0,0,1-11.48-1.75C141,36.85,123.91,26,122,24.75A258.32,258.32,0,0,1,87.5,40.84c-18.63,7-34.26.29-43.6-3.72l-1.5-.64a.93.93,0,0,1,0-1.59A117.25,117.25,0,0,0,68,20.26,138.85,138.85,0,0,0,89.32.83l.2-.23.24.15c.16.1,15.7,9.54,30.28,8.09C136.93,7.16,155.59.16,155.78.09L156,0l.17.21A177.35,177.35,0,0,0,176.52,21c12.58,10.58,23.72,12.56,25.83,12.84a.65.65,0,0,1,.5.6.79.79,0,0,1-.31.78C199.53,37.1,186.35,44.83,171.63,44.83ZM122,23.57l.18.12c.18.12,18,11.81,38.15,18.36,17.43,5.65,35.83-4.18,41-7.3-3.89-.68-13.9-3.28-25.3-12.87A178.12,178.12,0,0,1,155.78,1.19c-2.18.8-19.71,7.11-35.67,8.7-13.78,1.38-28.4-6.84-30.45-8A139.71,139.71,0,0,1,68.41,21.18,118.63,118.63,0,0,1,43.16,35.69l1,.43c9.25,4,24.74,10.64,43.12,3.71a256.37,256.37,0,0,0,34.57-16.14Z"/></g></g></svg>