<svg xmlns="http://www.w3.org/2000/svg" viewBox="0 0 201.78 149.75"><defs><style>.cls-1{fill:#be1622;}.cls-1,.cls-2{stroke:#c6c6c6;stroke-width:3.33px;}.cls-1,.cls-2,.cls-3,.cls-4{stroke-miterlimit:10;}.cls-2,.cls-3,.cls-4{fill:#fff;}.cls-3,.cls-4{stroke:#1d1d1b;}.cls-3{stroke-width:3.38px;}.cls-4{stroke-width:3.57px;}.cls-5{fill:#1d1d1b;}</style></defs><title>Asset 30</title><g id="Layer_2" data-name="Layer 2"><g id="Layer_1-2" data-name="Layer 1"><path class="cls-1" d="M133.84,11.4,111.48,35.89v33.5h88.65v-34L177.87,11.29A29.88,29.88,0,0,0,133.84,11.4Z"/><rect class="cls-2" x="111.48" y="59.44" width="88.65" height="88.65"/><rect class="cls-3" x="133.61" y="13.25" width="44.37" height="44.37" rx="22.18" ry="22.18" transform="translate(70.69 -99.79) rotate(45)"/><line class="cls-4" x1="126.63" y1="16.45" x2="182.93" y2="16.45"/><path class="cls-5" d="M19.41,13.61h0A78.89,78.89,0,0,0,0,65.44v4H84.59V64.64A77.43,77.43,0,0,0,65.3,13.5h0A30.5,30.5,0,0,0,19.41,13.61Z"/><rect class="cls-5" y="59.9" width="84.59" height="88.65"/><rect class="cls-3" x="20.31" y="13.7" width="44.37" height="44.37" rx="22.18" ry="22.18" transform="translate(37.82 -19.54) rotate(45)"/></g></g></svg>