<svg xmlns="http://www.w3.org/2000/svg" viewBox="0 0 199.99 138.49"><defs><style>.cls-1{fill:#1d1d1b;}.cls-1,.cls-2,.cls-3{stroke:#c6c6c6;stroke-miterlimit:10;stroke-width:3.33px;}.cls-2{fill:#dedc00;}.cls-3{fill:#ca9b41;}.cls-4{fill:#be1622;}</style></defs><title>Asset 3</title><g id="Layer_2" data-name="Layer 2"><g id="Layer_1-2" data-name="Layer 1"><circle class="cls-1" cx="35.98" cy="24.86" r="17.51"/><path class="cls-1" d="M36.09,54.52h0A34.21,34.21,0,0,1,70.3,88.73v47.39a0,0,0,0,1,0,0H1.66a0,0,0,0,1,0,0V88.94A34.42,34.42,0,0,1,36.09,54.52Z"/><circle class="cls-1" cx="164.01" cy="24.86" r="17.51"/><path class="cls-1" d="M164.12,54.52h0a34.21,34.21,0,0,1,34.21,34.21v47.39a0,0,0,0,1,0,0H129.7a0,0,0,0,1,0,0V88.94a34.42,34.42,0,0,1,34.42-34.42Z"/><circle class="cls-2" cx="99.46" cy="81.2" r="8.76"/><path class="cls-2" d="M99.9,96h0a16.71,16.71,0,0,1,16.71,16.71v24.09a0,0,0,0,1,0,0H82.3a0,0,0,0,1,0,0V113.63A17.61,17.61,0,0,1,99.9,96Z"/><path class="cls-3" d="M36,1.66h0a23.2,23.2,0,0,1,23.2,23.2v17.5a0,0,0,0,1,0,0H12.79a0,0,0,0,1,0,0V24.85A23.18,23.18,0,0,1,36,1.66Z"/><line class="cls-4" x1="164.12" y1="57.52" x2="164.01" y2="90.82"/><path class="cls-4" d="M164.42,57.52s.35,2.08.77,5.21c.2,1.56.44,3.38.66,5.34s.42,4,.62,6.12c.1,1,.24,2.08.4,3.11a22.07,22.07,0,0,1,.31,3,21.54,21.54,0,0,1-.73,5.33,20.06,20.06,0,0,1-.66,2.13c-.23.63-.46,1.19-.68,1.64a11.76,11.76,0,0,1-.55,1.06l-.23.37h-.6l-.22-.37a11.89,11.89,0,0,1-.55-1.06c-.22-.46-.44-1-.67-1.64a20.1,20.1,0,0,1-.65-2.13,21.53,21.53,0,0,1-.7-5.34,22.08,22.08,0,0,1,.32-3c.16-1,.31-2.06.42-3.1.21-2.08.4-4.16.66-6.11s.48-3.77.69-5.33c.44-3.12.8-5.2.8-5.2Z"/></g></g></svg>