<svg xmlns="http://www.w3.org/2000/svg" viewBox="0 0 150.24 104.04"><defs><style>.cls-1{fill:#1d1d1b;stroke:#c6c6c6;stroke-miterlimit:10;stroke-width:2.5px;}</style></defs><title>Asset 15</title><g id="Layer_2" data-name="Layer 2"><g id="Layer_1-2" data-name="Layer 1"><circle class="cls-1" cx="27.03" cy="18.67" r="13.16"/><path class="cls-1" d="M27.11,41h0a25.7,25.7,0,0,1,25.7,25.7v35.6a0,0,0,0,1,0,0H1.25a0,0,0,0,1,0,0V66.81A25.86,25.86,0,0,1,27.11,41Z"/><circle class="cls-1" cx="123.21" cy="18.67" r="13.16"/><path class="cls-1" d="M123.29,41h0A25.7,25.7,0,0,1,149,66.66v35.6a0,0,0,0,1,0,0H97.43a0,0,0,0,1,0,0V66.81A25.86,25.86,0,0,1,123.29,41Z"/><circle class="cls-1" cx="74.72" cy="61" r="6.58"/><path class="cls-1" d="M75.05,72.14h0A12.55,12.55,0,0,1,87.61,84.69v18.1a0,0,0,0,1,0,0H61.83a0,0,0,0,1,0,0V85.36A13.23,13.23,0,0,1,75.05,72.14Z"/><path class="cls-1" d="M27,1.25h0A17.43,17.43,0,0,1,44.45,18.68V31.83a0,0,0,0,1,0,0H9.61a0,0,0,0,1,0,0V18.67A17.42,17.42,0,0,1,27,1.25Z"/></g></g></svg>