<svg xmlns="http://www.w3.org/2000/svg" viewBox="0 0 199.99 138.49"><defs><style>.cls-1{fill:#a3195b;}.cls-1,.cls-2,.cls-3{stroke:#c6c6c6;stroke-miterlimit:10;stroke-width:3.33px;}.cls-2{fill:#1d71b8;}.cls-3{fill:#95c11f;}</style></defs><title>Asset 31</title><g id="Layer_2" data-name="Layer 2"><g id="Layer_1-2" data-name="Layer 1"><circle class="cls-1" cx="35.98" cy="24.86" r="17.51"/><path class="cls-1" d="M36.09,54.52h0A34.21,34.21,0,0,1,70.3,88.73v47.39a0,0,0,0,1,0,0H1.66a0,0,0,0,1,0,0V88.94A34.42,34.42,0,0,1,36.09,54.52Z"/><circle class="cls-2" cx="164.01" cy="24.86" r="17.51"/><path class="cls-2" d="M164.12,54.52h0a34.21,34.21,0,0,1,34.21,34.21v47.39a0,0,0,0,1,0,0H129.7a0,0,0,0,1,0,0V88.94a34.42,34.42,0,0,1,34.42-34.42Z"/><circle class="cls-3" cx="99.46" cy="81.2" r="8.76"/><path class="cls-3" d="M99.9,96h0a16.71,16.71,0,0,1,16.71,16.71v24.09a0,0,0,0,1,0,0H82.3a0,0,0,0,1,0,0V113.63A17.61,17.61,0,0,1,99.9,96Z"/><path class="cls-1" d="M36,1.66h0a23.2,23.2,0,0,1,23.2,23.2v17.5a0,0,0,0,1,0,0H12.79a0,0,0,0,1,0,0V24.85A23.18,23.18,0,0,1,36,1.66Z"/></g></g></svg>