<svg xmlns="http://www.w3.org/2000/svg" viewBox="0 0 136.65 130.7"><defs><style>.cls-1{fill:#1d1d1b;stroke:#c6c6c6;stroke-miterlimit:10;stroke-width:5.14px;}.cls-2{fill:#dadada;}</style></defs><title>Asset 17</title><g id="Layer_2" data-name="Layer 2"><g id="Layer_1-2" data-name="Layer 1"><path class="cls-1" d="M61.69,3.08c-2.86.21-37.08,3.36-52.33,33.1C-2.28,58.85.54,90.31,21.75,110.8,43.61,131.92,74.56,131,95.49,122.42c37-15.22,38.35-70.18,38.35-70.18-17.36,30.34-54.52,34.24-72,19.8C45.9,58.88,38.28,26.82,61.69,3.08Z"/><polygon class="cls-2" points="129.91 36.65 112.31 40.99 105.91 57.94 96.35 42.55 78.25 41.7 89.93 27.85 85.15 10.38 101.93 17.21 117.07 7.25 115.76 25.32 129.91 36.65"/></g></g></svg>