<svg xmlns="http://www.w3.org/2000/svg" viewBox="0 0 167.11 159.84"><defs><style>.cls-1{fill:#e5b100;stroke:#c6c6c6;stroke-miterlimit:10;stroke-width:6.29px;}.cls-2{fill:#dadada;}</style></defs><title>Asset 5</title><g id="Layer_2" data-name="Layer 2"><g id="Layer_1-2" data-name="Layer 1"><path class="cls-1" d="M75.44,3.76c-3.49.26-45.34,4.11-64,40.47C-2.78,72,.66,110.44,26.6,135.5c26.73,25.83,64.59,24.73,90.18,14.21C162,131.1,163.66,63.89,163.66,63.89,142.44,101,97,105.75,75.62,88.1,56.13,72,46.82,32.79,75.44,3.76Z"/><polygon class="cls-2" points="158.86 44.82 137.35 50.13 129.52 70.86 117.83 52.03 95.69 51 109.98 34.06 104.13 12.69 124.65 21.04 143.17 8.87 141.56 30.97 158.86 44.82"/></g></g></svg>