<svg xmlns="http://www.w3.org/2000/svg" xmlns:xlink="http://www.w3.org/1999/xlink" viewBox="0 0 320.28 139.88"><defs><style>.cls-1{fill:none;}.cls-2{isolation:isolate;}.cls-3{fill:#e30613;}.cls-4{clip-path:url(#clip-path);}.cls-5{fill:#1d1d1b;}.cls-6{fill:#fff;}.cls-7{clip-path:url(#clip-path-2);}.cls-8{opacity:0.18;mix-blend-mode:hard-light;}.cls-9{fill:#1d1612;}</style><clipPath id="clip-path"><path class="cls-1" d="M320.28,72.78S297,109.47,260.62,118.15c-27.48,6.55-62.42,4.68-100.47,4.68-31.69,0-61.24,3.07-86.1-1.62-44.52-8.41-74-48-74-48s3,.27,8.48-2.88c11.66-6.66,34.66-23,64.53-32.51,25.08-8,55-9.76,87.13-9.76,39,0,72.48,2.51,100.26,12.81,23.52,8.72,43.56,24.71,52.8,29.94C317.8,73.43,320.28,72.78,320.28,72.78Z"/></clipPath><clipPath id="clip-path-2"><rect class="cls-1" x="215.11" y="25.88" width="28.11" height="72.28"/></clipPath></defs><title>Asset 17</title><g class="cls-2"><g id="Layer_2" data-name="Layer 2"><g id="Layer_1-2" data-name="Layer 1"><path class="cls-3" d="M320.28,72.78S297,109.47,260.62,118.15c-27.48,6.55-62.42,4.68-100.47,4.68-31.69,0-61.24,3.07-86.1-1.62-44.52-8.41-74-48-74-48s3,.27,8.48-2.88c11.66-6.66,34.66-23,64.53-32.51,25.08-8,55-9.76,87.13-9.76,39,0,72.48,2.51,100.26,12.81,23.52,8.72,43.56,24.71,52.8,29.94C317.8,73.43,320.28,72.78,320.28,72.78Z"/><g class="cls-4"><rect class="cls-5" x="170.94" y="11.37" width="4.01" height="120.48"/><rect class="cls-5" x="170.94" y="11.37" width="4.01" height="120.48"/><rect class="cls-5" x="275.34" y="11.37" width="4.02" height="120.48"/><rect class="cls-6" x="187.22" y="11.6" width="3.58" height="3.57"/><path class="cls-5" d="M190.58,11.82V15h-3.12V11.82h3.12m.44-.45h-4v4h4v-4Z"/><rect class="cls-6" x="187.22" y="15.61" width="3.58" height="3.57"/><path class="cls-5" d="M190.58,15.84V19h-3.12V15.84h3.12m.44-.44h-4v4h4v-4Z"/><rect class="cls-6" x="187.22" y="19.63" width="3.58" height="3.57"/><path class="cls-5" d="M190.58,19.86V23h-3.12V19.86h3.12m.44-.45h-4v4h4v-4Z"/><rect class="cls-6" x="187.22" y="23.65" width="3.58" height="3.57"/><path class="cls-5" d="M190.58,23.87V27h-3.12V23.87h3.12m.44-.45h-4v4h4v-4Z"/><rect class="cls-6" x="187.22" y="27.67" width="3.58" height="3.56"/><path class="cls-5" d="M190.58,27.89V31h-3.12V27.89h3.12m.44-.45h-4v4h4v-4Z"/><rect class="cls-6" x="187.22" y="31.68" width="3.58" height="3.57"/><path class="cls-5" d="M190.58,31.9V35h-3.12V31.9h3.12m.44-.45h-4v4h4v-4Z"/><rect class="cls-6" x="187.22" y="35.7" width="3.58" height="3.57"/><path class="cls-5" d="M190.58,35.92V39h-3.12V35.92h3.12m.44-.44h-4v4h4v-4Z"/><rect class="cls-6" x="187.22" y="39.71" width="3.58" height="3.57"/><path class="cls-5" d="M190.58,39.94v3.13h-3.12V39.94h3.12m.44-.45h-4v4h4v-4Z"/><rect class="cls-6" x="187.22" y="47.74" width="3.58" height="3.57"/><path class="cls-5" d="M190.58,48v3.12h-3.12V48h3.12m.44-.45h-4v4h4v-4Z"/><rect class="cls-6" x="187.22" y="43.73" width="3.58" height="3.57"/><path class="cls-5" d="M190.58,43.95v3.13h-3.12V43.95h3.12m.44-.44h-4v4h4v-4Z"/><rect class="cls-6" x="187.22" y="51.76" width="3.58" height="3.57"/><path class="cls-5" d="M190.58,52v3.13h-3.12V52h3.12m.44-.45h-4v4h4v-4Z"/><rect class="cls-6" x="187.22" y="55.77" width="3.58" height="3.57"/><path class="cls-5" d="M190.58,56v3.12h-3.12V56h3.12m.44-.44h-4v4h4v-4Z"/><rect class="cls-6" x="187.22" y="59.79" width="3.58" height="3.57"/><path class="cls-5" d="M190.58,60v3.13h-3.12V60h3.12m.44-.45h-4v4h4v-4Z"/><rect class="cls-6" x="187.22" y="63.81" width="3.58" height="3.57"/><path class="cls-5" d="M190.58,64v3.12h-3.12V64h3.12m.44-.44h-4v4h4v-4Z"/><rect class="cls-6" x="187.22" y="67.82" width="3.58" height="3.57"/><path class="cls-5" d="M190.58,68v3.12h-3.12V68h3.12m.44-.45h-4v4h4v-4Z"/><rect class="cls-6" x="187.22" y="71.84" width="3.58" height="3.57"/><path class="cls-5" d="M190.58,72.06v3.12h-3.12V72.06h3.12m.44-.44h-4v4h4v-4Z"/><rect class="cls-6" x="187.22" y="75.85" width="3.58" height="3.57"/><path class="cls-5" d="M190.58,76.08V79.2h-3.12V76.08h3.12m.44-.45h-4v4h4v-4Z"/><rect class="cls-6" x="187.22" y="79.87" width="3.58" height="3.57"/><path class="cls-5" d="M190.58,80.09v3.13h-3.12V80.09h3.12m.44-.44h-4v4h4v-4Z"/><rect class="cls-6" x="187.22" y="87.9" width="3.58" height="3.57"/><path class="cls-5" d="M190.58,88.12v3.13h-3.12V88.12h3.12m.44-.44h-4v4h4v-4Z"/><rect class="cls-6" x="187.22" y="83.89" width="3.58" height="3.57"/><path class="cls-5" d="M190.58,84.11v3.12h-3.12V84.11h3.12m.44-.44h-4v4h4v-4Z"/><rect class="cls-6" x="187.22" y="91.91" width="3.58" height="3.57"/><path class="cls-5" d="M190.58,92.14v3.12h-3.12V92.14h3.12m.44-.45h-4v4h4v-4Z"/><rect class="cls-6" x="187.22" y="95.93" width="3.58" height="3.57"/><path class="cls-5" d="M190.58,96.15v3.12h-3.12V96.15h3.12m.44-.45h-4v4h4v-4Z"/><rect class="cls-6" x="187.22" y="99.95" width="3.58" height="3.56"/><path class="cls-5" d="M190.58,100.17v3.12h-3.12v-3.12h3.12m.44-.44h-4v4h4v-4Z"/><rect class="cls-6" x="187.22" y="103.96" width="3.58" height="3.57"/><path class="cls-5" d="M190.58,104.18v3.13h-3.12v-3.13h3.12m.44-.44h-4v4h4v-4Z"/><rect class="cls-6" x="187.22" y="107.98" width="3.58" height="3.57"/><path class="cls-5" d="M190.58,108.2v3.13h-3.12V108.2h3.12m.44-.44h-4v4h4v-4Z"/><rect class="cls-6" x="187.22" y="112" width="3.58" height="3.57"/><path class="cls-5" d="M190.58,112.22v3.12h-3.12v-3.12h3.12m.44-.45h-4v4h4v-4Z"/><rect class="cls-6" x="187.22" y="116.01" width="3.58" height="3.57"/><path class="cls-5" d="M190.58,116.23v3.12h-3.12v-3.12h3.12m.44-.44h-4v4h4v-4Z"/><rect class="cls-6" x="187.22" y="120.03" width="3.58" height="3.57"/><path class="cls-5" d="M190.58,120.25v3.12h-3.12v-3.12h3.12m.44-.44h-4v4h4v-4Z"/><rect class="cls-6" x="187.22" y="128.06" width="3.58" height="3.56"/><path class="cls-5" d="M190.58,128.28v3.12h-3.12v-3.12h3.12m.44-.45h-4v4h4v-4Z"/><rect class="cls-6" x="191.24" y="15.61" width="3.57" height="3.57"/><path class="cls-5" d="M194.58,15.84V19h-3.11V15.84h3.11m.45-.44h-4v4h4v-4Z"/><rect class="cls-6" x="191.24" y="19.63" width="3.57" height="3.57"/><path class="cls-5" d="M194.58,19.86V23h-3.11V19.86h3.11m.45-.45h-4v4h4v-4Z"/><rect class="cls-6" x="191.24" y="23.65" width="3.57" height="3.57"/><path class="cls-5" d="M194.58,23.87V27h-3.11V23.87h3.11m.45-.45h-4v4h4v-4Z"/><rect class="cls-6" x="191.24" y="31.68" width="3.57" height="3.57"/><path class="cls-5" d="M194.58,31.9V35h-3.11V31.9h3.11m.45-.45h-4v4h4v-4Z"/><rect class="cls-6" x="191.24" y="35.7" width="3.57" height="3.57"/><path class="cls-5" d="M194.58,35.92V39h-3.11V35.92h3.11m.45-.44h-4v4h4v-4Z"/><rect class="cls-6" x="191.24" y="39.71" width="3.57" height="3.57"/><path class="cls-5" d="M194.58,39.94v3.13h-3.11V39.94h3.11m.45-.45h-4v4h4v-4Z"/><rect class="cls-6" x="191.24" y="47.74" width="3.57" height="3.57"/><path class="cls-5" d="M194.58,48v3.12h-3.11V48h3.11m.45-.45h-4v4h4v-4Z"/><rect class="cls-6" x="191.24" y="51.76" width="3.57" height="3.57"/><path class="cls-5" d="M194.58,52v3.13h-3.11V52h3.11m.45-.45h-4v4h4v-4Z"/><rect class="cls-6" x="191.24" y="55.77" width="3.57" height="3.57"/><path class="cls-5" d="M194.58,56v3.12h-3.11V56h3.11m.45-.44h-4v4h4v-4Z"/><rect class="cls-6" x="191.24" y="63.81" width="3.57" height="3.57"/><path class="cls-5" d="M194.58,64v3.12h-3.11V64h3.11m.45-.44h-4v4h4v-4Z"/><rect class="cls-6" x="191.24" y="67.82" width="3.57" height="3.57"/><path class="cls-5" d="M194.58,68v3.12h-3.11V68h3.11m.45-.45h-4v4h4v-4Z"/><rect class="cls-6" x="191.24" y="71.84" width="3.57" height="3.57"/><path class="cls-5" d="M194.58,72.06v3.12h-3.11V72.06h3.11m.45-.44h-4v4h4v-4Z"/><rect class="cls-6" x="191.24" y="79.87" width="3.57" height="3.57"/><path class="cls-5" d="M194.58,80.09v3.13h-3.11V80.09h3.11m.45-.44h-4v4h4v-4Z"/><rect class="cls-6" x="191.24" y="87.9" width="3.57" height="3.57"/><path class="cls-5" d="M194.58,88.12v3.13h-3.11V88.12h3.11m.45-.44h-4v4h4v-4Z"/><rect class="cls-6" x="191.24" y="83.89" width="3.57" height="3.57"/><path class="cls-5" d="M194.58,84.11v3.12h-3.11V84.11h3.11m.45-.44h-4v4h4v-4Z"/><rect class="cls-6" x="191.24" y="95.93" width="3.57" height="3.57"/><path class="cls-5" d="M194.58,96.15v3.12h-3.11V96.15h3.11m.45-.45h-4v4h4v-4Z"/><rect class="cls-6" x="191.24" y="99.95" width="3.57" height="3.56"/><path class="cls-5" d="M194.58,100.17v3.12h-3.11v-3.12h3.11m.45-.44h-4v4h4v-4Z"/><rect class="cls-6" x="191.24" y="103.96" width="3.57" height="3.57"/><path class="cls-5" d="M194.58,104.18v3.13h-3.11v-3.13h3.11m.45-.44h-4v4h4v-4Z"/><rect class="cls-6" x="191.24" y="112" width="3.57" height="3.57"/><path class="cls-5" d="M194.58,112.22v3.12h-3.11v-3.12h3.11m.45-.45h-4v4h4v-4Z"/><rect class="cls-6" x="191.24" y="116.01" width="3.57" height="3.57"/><path class="cls-5" d="M194.58,116.23v3.12h-3.11v-3.12h3.11m.45-.44h-4v4h4v-4Z"/><rect class="cls-6" x="195.26" y="19.63" width="3.56" height="3.57"/><path class="cls-5" d="M198.6,19.86V23h-3.12V19.86h3.12m.45-.45h-4v4h4v-4Z"/><rect class="cls-6" x="195.26" y="35.7" width="3.56" height="3.57"/><path class="cls-5" d="M198.6,35.92V39h-3.12V35.92h3.12m.45-.44h-4v4h4v-4Z"/><rect class="cls-6" x="195.26" y="51.76" width="3.56" height="3.57"/><path class="cls-5" d="M198.6,52v3.13h-3.12V52h3.12m.45-.45h-4v4h4v-4Z"/><rect class="cls-6" x="195.26" y="67.82" width="3.56" height="3.57"/><path class="cls-5" d="M198.6,68v3.12h-3.12V68h3.12m.45-.45h-4v4h4v-4Z"/><rect class="cls-6" x="195.26" y="83.89" width="3.56" height="3.57"/><path class="cls-5" d="M198.6,84.11v3.12h-3.12V84.11h3.12m.45-.44h-4v4h4v-4Z"/><rect class="cls-6" x="195.26" y="99.95" width="3.56" height="3.56"/><path class="cls-5" d="M198.6,100.17v3.12h-3.12v-3.12h3.12m.45-.44h-4v4h4v-4Z"/><rect class="cls-6" x="195.26" y="116.01" width="3.56" height="3.57"/><path class="cls-5" d="M198.6,116.23v3.12h-3.12v-3.12h3.12m.45-.44h-4v4h4v-4Z"/><rect class="cls-6" x="191.24" y="120.03" width="3.57" height="3.57"/><path class="cls-5" d="M194.58,120.25v3.12h-3.11v-3.12h3.11m.45-.44h-4v4h4v-4Z"/><rect class="cls-6" x="191.24" y="128.06" width="3.57" height="3.56"/><path class="cls-5" d="M194.58,128.28v3.12h-3.11v-3.12h3.11m.45-.45h-4v4h4v-4Z"/><rect class="cls-6" x="187.22" y="124.04" width="3.58" height="3.57"/><path class="cls-5" d="M190.58,124.26v3.13h-3.12v-3.13h3.12m.44-.45h-4v4h4v-4Z"/><rect class="cls-6" x="178.97" y="27.44" width="4.02" height="4.02"/><rect class="cls-6" x="178.97" y="35.48" width="4.02" height="4.01"/><rect class="cls-6" x="178.97" y="43.5" width="4.02" height="4.02"/><rect class="cls-6" x="178.97" y="51.53" width="4.02" height="4.02"/><rect class="cls-6" x="178.97" y="59.56" width="4.02" height="4.02"/><rect class="cls-6" x="178.97" y="67.6" width="4.02" height="4.02"/><rect class="cls-6" x="178.97" y="75.63" width="4.02" height="4.02"/><rect class="cls-6" x="178.97" y="83.66" width="4.02" height="4.01"/><rect class="cls-6" x="178.97" y="91.69" width="4.02" height="4.01"/><rect class="cls-6" x="178.97" y="99.73" width="4.02" height="4.01"/><rect class="cls-6" x="179.25" y="11.65" width="3.47" height="3.48"/><path class="cls-5" d="M182.45,11.91v2.95h-2.94V11.91h2.94m.54-.54h-4v4h4v-4Z"/><rect class="cls-6" x="179.25" y="15.66" width="3.47" height="3.48"/><path class="cls-5" d="M182.45,15.93v2.95h-2.94V15.93h2.94m.54-.53h-4v4h4v-4Z"/><rect class="cls-6" x="179.25" y="19.68" width="3.47" height="3.48"/><path class="cls-5" d="M182.45,19.95v2.94h-2.94V19.95h2.94m.54-.54h-4v4h4v-4Z"/><rect class="cls-6" x="179.25" y="23.69" width="3.47" height="3.48"/><path class="cls-5" d="M182.45,24v3h-2.94V24h2.94m.54-.54h-4v4h4v-4Z"/><rect class="cls-6" x="179.25" y="27.71" width="3.47" height="3.47"/><path class="cls-5" d="M182.45,28v2.94h-2.94V28h2.94m.54-.54h-4v4h4v-4Z"/><rect class="cls-6" x="179.25" y="31.72" width="3.47" height="3.48"/><path class="cls-5" d="M182.45,32v2.95h-2.94V32h2.94m.54-.53h-4v4h4v-4Z"/><rect class="cls-6" x="179.25" y="35.74" width="3.47" height="3.48"/><path class="cls-5" d="M182.45,36V39h-2.94V36h2.94m.54-.53h-4v4h4v-4Z"/><rect class="cls-6" x="179.25" y="39.76" width="3.47" height="3.48"/><path class="cls-5" d="M182.45,40V43h-2.94V40h2.94m.54-.54h-4v4h4v-4Z"/><rect class="cls-6" x="179.25" y="47.79" width="3.47" height="3.48"/><path class="cls-5" d="M182.45,48.06V51h-2.94V48.06h2.94m.54-.54h-4v4h4v-4Z"/><rect class="cls-6" x="179.25" y="43.77" width="3.47" height="3.48"/><path class="cls-5" d="M182.45,44V47h-2.94V44h2.94m.54-.53h-4v4h4v-4Z"/><rect class="cls-6" x="179.25" y="51.8" width="3.47" height="3.48"/><path class="cls-5" d="M182.45,52.07V55h-2.94V52.07h2.94m.54-.54h-4v4h4v-4Z"/><rect class="cls-6" x="179.25" y="55.82" width="3.47" height="3.48"/><path class="cls-5" d="M182.45,56.08V59h-2.94V56.08h2.94m.54-.53h-4v4h4v-4Z"/><rect class="cls-6" x="179.25" y="59.83" width="3.47" height="3.48"/><path class="cls-5" d="M182.45,60.1v3h-2.94v-3h2.94m.54-.53h-4v4h4v-4Z"/><rect class="cls-6" x="179.25" y="63.85" width="3.47" height="3.48"/><path class="cls-5" d="M182.45,64.12v2.94h-2.94V64.12h2.94m.54-.53h-4v4h4v-4Z"/><rect class="cls-6" x="179.25" y="67.87" width="3.47" height="3.48"/><path class="cls-5" d="M182.45,68.13v3h-2.94v-3h2.94m.54-.54h-4v4h4v-4Z"/><rect class="cls-6" x="179.25" y="71.88" width="3.47" height="3.48"/><path class="cls-5" d="M182.45,72.15V75.1h-2.94V72.15h2.94m.54-.53h-4v4h4v-4Z"/><rect class="cls-6" x="179.25" y="75.9" width="3.47" height="3.48"/><path class="cls-5" d="M182.45,76.17v2.95h-2.94V76.17h2.94m.54-.54h-4v4h4v-4Z"/><rect class="cls-6" x="179.25" y="79.91" width="3.47" height="3.48"/><path class="cls-5" d="M182.45,80.18v2.95h-2.94V80.18h2.94m.54-.53h-4v4h4v-4Z"/><rect class="cls-6" x="179.25" y="87.94" width="3.47" height="3.48"/><path class="cls-5" d="M182.45,88.21v2.94h-2.94V88.21h2.94m.54-.53h-4v4h4v-4Z"/><rect class="cls-6" x="179.25" y="83.93" width="3.47" height="3.48"/><path class="cls-5" d="M182.45,84.2v2.95h-2.94V84.2h2.94m.54-.53h-4v4h4v-4Z"/><rect class="cls-6" x="179.25" y="91.96" width="3.47" height="3.48"/><path class="cls-5" d="M182.45,92.22v2.95h-2.94V92.22h2.94m.54-.53h-4v4h4v-4Z"/><rect class="cls-6" x="179.25" y="95.97" width="3.47" height="3.48"/><path class="cls-5" d="M182.45,96.24v2.95h-2.94V96.24h2.94m.54-.54h-4v4h4v-4Z"/><rect class="cls-6" x="179.25" y="99.99" width="3.47" height="3.48"/><path class="cls-5" d="M182.45,100.26v2.94h-2.94v-2.94h2.94m.54-.53h-4v4h4v-4Z"/><rect class="cls-6" x="179.25" y="104.01" width="3.47" height="3.48"/><path class="cls-5" d="M182.45,104.27v3h-2.94v-3h2.94m.54-.53h-4v4h4v-4Z"/><rect class="cls-6" x="179.25" y="108.02" width="3.47" height="3.48"/><path class="cls-5" d="M182.45,108.29v2.95h-2.94v-2.95h2.94m.54-.53h-4v4h4v-4Z"/><rect class="cls-6" x="179.25" y="112.04" width="3.47" height="3.48"/><path class="cls-5" d="M182.45,112.31v2.94h-2.94v-2.94h2.94m.54-.54h-4v4h4v-4Z"/><rect class="cls-6" x="179.25" y="116.06" width="3.47" height="3.48"/><path class="cls-5" d="M182.45,116.32v2.95h-2.94v-2.95h2.94m.54-.53h-4v4h4v-4Z"/><rect class="cls-6" x="179.25" y="120.07" width="3.47" height="3.48"/><path class="cls-5" d="M182.45,120.34v2.94h-2.94v-2.94h2.94m.54-.53h-4v4h4v-4Z"/><rect class="cls-6" x="179.25" y="128.1" width="3.47" height="3.48"/><path class="cls-5" d="M182.45,128.37v2.95h-2.94v-2.95h2.94m.54-.53h-4v4h4v-4Z"/><rect class="cls-6" x="179.25" y="124.09" width="3.47" height="3.47"/><path class="cls-5" d="M182.45,124.35v2.95h-2.94v-2.95h2.94m.54-.53h-4v4h4v-4Z"/><rect class="cls-6" x="207.08" y="27.44" width="4.02" height="4.02"/><rect class="cls-6" x="207.08" y="35.48" width="4.02" height="4.01"/><rect class="cls-6" x="207.08" y="43.5" width="4.02" height="4.02"/><rect class="cls-6" x="207.08" y="51.53" width="4.02" height="4.02"/><rect class="cls-6" x="207.08" y="59.56" width="4.02" height="4.02"/><rect class="cls-6" x="207.08" y="67.6" width="4.02" height="4.02"/><rect class="cls-6" x="207.08" y="75.63" width="4.02" height="4.02"/><rect class="cls-6" x="207.08" y="83.66" width="4.02" height="4.01"/><rect class="cls-6" x="207.08" y="91.69" width="4.02" height="4.01"/><rect class="cls-6" x="207.08" y="99.73" width="4.02" height="4.01"/><rect class="cls-6" x="207.35" y="11.65" width="3.48" height="3.48"/><path class="cls-5" d="M210.56,11.91v2.95h-2.94V11.91h2.94m.54-.54h-4v4h4v-4Z"/><rect class="cls-6" x="207.35" y="15.66" width="3.48" height="3.48"/><path class="cls-5" d="M210.56,15.93v2.95h-2.94V15.93h2.94m.54-.53h-4v4h4v-4Z"/><rect class="cls-6" x="207.35" y="19.68" width="3.48" height="3.48"/><path class="cls-5" d="M210.56,19.95v2.94h-2.94V19.95h2.94m.54-.54h-4v4h4v-4Z"/><rect class="cls-6" x="207.35" y="23.69" width="3.48" height="3.48"/><path class="cls-5" d="M210.56,24v3h-2.94V24h2.94m.54-.54h-4v4h4v-4Z"/><rect class="cls-6" x="207.35" y="27.71" width="3.48" height="3.47"/><path class="cls-5" d="M210.56,28v2.94h-2.94V28h2.94m.54-.54h-4v4h4v-4Z"/><rect class="cls-6" x="207.35" y="31.72" width="3.48" height="3.48"/><path class="cls-5" d="M210.56,32v2.95h-2.94V32h2.94m.54-.53h-4v4h4v-4Z"/><rect class="cls-6" x="207.35" y="35.74" width="3.48" height="3.48"/><path class="cls-5" d="M210.56,36V39h-2.94V36h2.94m.54-.53h-4v4h4v-4Z"/><rect class="cls-6" x="207.35" y="39.76" width="3.48" height="3.48"/><path class="cls-5" d="M210.56,40V43h-2.94V40h2.94m.54-.54h-4v4h4v-4Z"/><rect class="cls-6" x="207.35" y="47.79" width="3.48" height="3.48"/><path class="cls-5" d="M210.56,48.06V51h-2.94V48.06h2.94m.54-.54h-4v4h4v-4Z"/><rect class="cls-6" x="207.35" y="43.77" width="3.48" height="3.48"/><path class="cls-5" d="M210.56,44V47h-2.94V44h2.94m.54-.53h-4v4h4v-4Z"/><rect class="cls-6" x="207.35" y="51.8" width="3.48" height="3.48"/><path class="cls-5" d="M210.56,52.07V55h-2.94V52.07h2.94m.54-.54h-4v4h4v-4Z"/><rect class="cls-6" x="207.35" y="55.82" width="3.48" height="3.48"/><path class="cls-5" d="M210.56,56.08V59h-2.94V56.08h2.94m.54-.53h-4v4h4v-4Z"/><rect class="cls-6" x="207.35" y="59.83" width="3.48" height="3.48"/><path class="cls-5" d="M210.56,60.1v3h-2.94v-3h2.94m.54-.53h-4v4h4v-4Z"/><rect class="cls-6" x="207.35" y="63.85" width="3.48" height="3.48"/><path class="cls-5" d="M210.56,64.12v2.94h-2.94V64.12h2.94m.54-.53h-4v4h4v-4Z"/><rect class="cls-6" x="207.35" y="67.87" width="3.48" height="3.48"/><path class="cls-5" d="M210.56,68.13v3h-2.94v-3h2.94m.54-.54h-4v4h4v-4Z"/><rect class="cls-6" x="207.35" y="71.88" width="3.48" height="3.48"/><path class="cls-5" d="M210.56,72.15V75.1h-2.94V72.15h2.94m.54-.53h-4v4h4v-4Z"/><rect class="cls-6" x="207.35" y="75.9" width="3.48" height="3.48"/><path class="cls-5" d="M210.56,76.17v2.95h-2.94V76.17h2.94m.54-.54h-4v4h4v-4Z"/><rect class="cls-6" x="207.35" y="79.91" width="3.48" height="3.48"/><path class="cls-5" d="M210.56,80.18v2.95h-2.94V80.18h2.94m.54-.53h-4v4h4v-4Z"/><rect class="cls-6" x="207.35" y="87.94" width="3.48" height="3.48"/><path class="cls-5" d="M210.56,88.21v2.94h-2.94V88.21h2.94m.54-.53h-4v4h4v-4Z"/><rect class="cls-6" x="207.35" y="83.93" width="3.48" height="3.48"/><path class="cls-5" d="M210.56,84.2v2.95h-2.94V84.2h2.94m.54-.53h-4v4h4v-4Z"/><rect class="cls-6" x="207.35" y="91.96" width="3.48" height="3.48"/><path class="cls-5" d="M210.56,92.22v2.95h-2.94V92.22h2.94m.54-.53h-4v4h4v-4Z"/><rect class="cls-6" x="207.35" y="95.97" width="3.48" height="3.48"/><path class="cls-5" d="M210.56,96.24v2.95h-2.94V96.24h2.94m.54-.54h-4v4h4v-4Z"/><rect class="cls-6" x="207.35" y="99.99" width="3.48" height="3.48"/><path class="cls-5" d="M210.56,100.26v2.94h-2.94v-2.94h2.94m.54-.53h-4v4h4v-4Z"/><rect class="cls-6" x="207.35" y="104.01" width="3.48" height="3.48"/><path class="cls-5" d="M210.56,104.27v3h-2.94v-3h2.94m.54-.53h-4v4h4v-4Z"/><rect class="cls-6" x="207.35" y="108.02" width="3.48" height="3.48"/><path class="cls-5" d="M210.56,108.29v2.95h-2.94v-2.95h2.94m.54-.53h-4v4h4v-4Z"/><rect class="cls-6" x="207.35" y="112.04" width="3.48" height="3.48"/><path class="cls-5" d="M210.56,112.31v2.94h-2.94v-2.94h2.94m.54-.54h-4v4h4v-4Z"/><rect class="cls-6" x="207.35" y="116.06" width="3.48" height="3.48"/><path class="cls-5" d="M210.56,116.32v2.95h-2.94v-2.95h2.94m.54-.53h-4v4h4v-4Z"/><rect class="cls-6" x="207.35" y="120.07" width="3.48" height="3.48"/><path class="cls-5" d="M210.56,120.34v2.94h-2.94v-2.94h2.94m.54-.53h-4v4h4v-4Z"/><rect class="cls-6" x="207.35" y="128.1" width="3.48" height="3.48"/><path class="cls-5" d="M210.56,128.37v2.95h-2.94v-2.95h2.94m.54-.53h-4v4h4v-4Z"/><rect class="cls-6" x="207.35" y="124.09" width="3.48" height="3.47"/><path class="cls-5" d="M210.56,124.35v2.95h-2.94v-2.95h2.94m.54-.53h-4v4h4v-4Z"/><rect class="cls-6" x="247.24" y="27.44" width="4.02" height="4.02"/><rect class="cls-6" x="247.24" y="35.48" width="4.02" height="4.01"/><rect class="cls-6" x="247.24" y="43.5" width="4.02" height="4.02"/><rect class="cls-6" x="247.24" y="51.53" width="4.02" height="4.02"/><rect class="cls-6" x="247.24" y="59.56" width="4.02" height="4.02"/><rect class="cls-6" x="247.24" y="67.6" width="4.02" height="4.02"/><rect class="cls-6" x="247.24" y="75.63" width="4.02" height="4.02"/><rect class="cls-6" x="247.24" y="83.66" width="4.02" height="4.01"/><rect class="cls-6" x="247.24" y="91.69" width="4.02" height="4.01"/><rect class="cls-6" x="247.24" y="99.73" width="4.02" height="4.01"/><rect class="cls-6" x="247.51" y="11.65" width="3.48" height="3.48"/><path class="cls-5" d="M250.72,11.91v2.95h-2.95V11.91h2.95m.53-.54h-4v4h4v-4Z"/><rect class="cls-6" x="247.51" y="15.66" width="3.48" height="3.48"/><path class="cls-5" d="M250.72,15.93v2.95h-2.95V15.93h2.95m.53-.53h-4v4h4v-4Z"/><rect class="cls-6" x="247.51" y="19.68" width="3.48" height="3.48"/><path class="cls-5" d="M250.72,19.95v2.94h-2.95V19.95h2.95m.53-.54h-4v4h4v-4Z"/><rect class="cls-6" x="247.51" y="23.69" width="3.48" height="3.48"/><path class="cls-5" d="M250.72,24v3h-2.95V24h2.95m.53-.54h-4v4h4v-4Z"/><rect class="cls-6" x="247.51" y="27.71" width="3.48" height="3.47"/><path class="cls-5" d="M250.72,28v2.94h-2.95V28h2.95m.53-.54h-4v4h4v-4Z"/><rect class="cls-6" x="247.51" y="31.72" width="3.48" height="3.48"/><path class="cls-5" d="M250.72,32v2.95h-2.95V32h2.95m.53-.53h-4v4h4v-4Z"/><rect class="cls-6" x="247.51" y="35.74" width="3.48" height="3.48"/><path class="cls-5" d="M250.72,36V39h-2.95V36h2.95m.53-.53h-4v4h4v-4Z"/><rect class="cls-6" x="247.51" y="39.76" width="3.48" height="3.48"/><path class="cls-5" d="M250.72,40V43h-2.95V40h2.95m.53-.54h-4v4h4v-4Z"/><rect class="cls-6" x="247.51" y="47.79" width="3.48" height="3.48"/><path class="cls-5" d="M250.72,48.06V51h-2.95V48.06h2.95m.53-.54h-4v4h4v-4Z"/><rect class="cls-6" x="247.51" y="43.77" width="3.48" height="3.48"/><path class="cls-5" d="M250.72,44V47h-2.95V44h2.95m.53-.53h-4v4h4v-4Z"/><rect class="cls-6" x="247.51" y="51.8" width="3.48" height="3.48"/><path class="cls-5" d="M250.72,52.07V55h-2.95V52.07h2.95m.53-.54h-4v4h4v-4Z"/><rect class="cls-6" x="247.51" y="55.82" width="3.48" height="3.48"/><path class="cls-5" d="M250.72,56.08V59h-2.95V56.08h2.95m.53-.53h-4v4h4v-4Z"/><rect class="cls-6" x="247.51" y="59.83" width="3.48" height="3.48"/><path class="cls-5" d="M250.72,60.1v3h-2.95v-3h2.95m.53-.53h-4v4h4v-4Z"/><rect class="cls-6" x="247.51" y="63.85" width="3.48" height="3.48"/><path class="cls-5" d="M250.72,64.12v2.94h-2.95V64.12h2.95m.53-.53h-4v4h4v-4Z"/><rect class="cls-6" x="247.51" y="67.87" width="3.48" height="3.48"/><path class="cls-5" d="M250.72,68.13v3h-2.95v-3h2.95m.53-.54h-4v4h4v-4Z"/><rect class="cls-6" x="247.51" y="71.88" width="3.48" height="3.48"/><path class="cls-5" d="M250.72,72.15V75.1h-2.95V72.15h2.95m.53-.53h-4v4h4v-4Z"/><rect class="cls-6" x="247.51" y="75.9" width="3.48" height="3.48"/><path class="cls-5" d="M250.72,76.17v2.95h-2.95V76.17h2.95m.53-.54h-4v4h4v-4Z"/><rect class="cls-6" x="247.51" y="79.91" width="3.48" height="3.48"/><path class="cls-5" d="M250.72,80.18v2.95h-2.95V80.18h2.95m.53-.53h-4v4h4v-4Z"/><rect class="cls-6" x="247.51" y="87.94" width="3.48" height="3.48"/><path class="cls-5" d="M250.72,88.21v2.94h-2.95V88.21h2.95m.53-.53h-4v4h4v-4Z"/><rect class="cls-6" x="247.51" y="83.93" width="3.48" height="3.48"/><path class="cls-5" d="M250.72,84.2v2.95h-2.95V84.2h2.95m.53-.53h-4v4h4v-4Z"/><rect class="cls-6" x="247.51" y="91.96" width="3.48" height="3.48"/><path class="cls-5" d="M250.72,92.22v2.95h-2.95V92.22h2.95m.53-.53h-4v4h4v-4Z"/><rect class="cls-6" x="247.51" y="95.97" width="3.48" height="3.48"/><path class="cls-5" d="M250.72,96.24v2.95h-2.95V96.24h2.95m.53-.54h-4v4h4v-4Z"/><rect class="cls-6" x="247.51" y="99.99" width="3.48" height="3.48"/><path class="cls-5" d="M250.72,100.26v2.94h-2.95v-2.94h2.95m.53-.53h-4v4h4v-4Z"/><rect class="cls-6" x="247.51" y="104.01" width="3.48" height="3.48"/><path class="cls-5" d="M250.72,104.27v3h-2.95v-3h2.95m.53-.53h-4v4h4v-4Z"/><rect class="cls-6" x="247.51" y="108.02" width="3.48" height="3.48"/><path class="cls-5" d="M250.72,108.29v2.95h-2.95v-2.95h2.95m.53-.53h-4v4h4v-4Z"/><rect class="cls-6" x="247.51" y="112.04" width="3.48" height="3.48"/><path class="cls-5" d="M250.72,112.31v2.94h-2.95v-2.94h2.95m.53-.54h-4v4h4v-4Z"/><rect class="cls-6" x="247.51" y="116.06" width="3.48" height="3.48"/><path class="cls-5" d="M250.72,116.32v2.95h-2.95v-2.95h2.95m.53-.53h-4v4h4v-4Z"/><rect class="cls-6" x="247.51" y="120.07" width="3.48" height="3.48"/><path class="cls-5" d="M250.72,120.34v2.94h-2.95v-2.94h2.95m.53-.53h-4v4h4v-4Z"/><rect class="cls-6" x="247.51" y="128.1" width="3.48" height="3.48"/><path class="cls-5" d="M250.72,128.37v2.95h-2.95v-2.95h2.95m.53-.53h-4v4h4v-4Z"/><rect class="cls-6" x="247.51" y="124.09" width="3.48" height="3.47"/><path class="cls-5" d="M250.72,124.35v2.95h-2.95v-2.95h2.95m.53-.53h-4v4h4v-4Z"/><rect class="cls-3" x="199.27" y="19.63" width="3.57" height="3.57"/><path class="cls-5" d="M202.62,19.86V23h-3.12V19.86h3.12m.45-.45h-4v4h4v-4Z"/><rect class="cls-3" x="199.27" y="23.65" width="3.57" height="3.57"/><path class="cls-5" d="M202.62,23.87V27h-3.12V23.87h3.12m.45-.45h-4v4h4v-4Z"/><rect class="cls-3" x="199.27" y="27.67" width="3.57" height="3.56"/><path class="cls-5" d="M202.62,27.89V31h-3.12V27.89h3.12m.45-.45h-4v4h4v-4Z"/><rect class="cls-3" x="199.27" y="31.68" width="3.57" height="3.57"/><path class="cls-5" d="M202.62,31.9V35h-3.12V31.9h3.12m.45-.45h-4v4h4v-4Z"/><rect class="cls-3" x="199.27" y="35.7" width="3.57" height="3.57"/><path class="cls-5" d="M202.62,35.92V39h-3.12V35.92h3.12m.45-.44h-4v4h4v-4Z"/><rect class="cls-3" x="199.27" y="39.71" width="3.57" height="3.57"/><path class="cls-5" d="M202.62,39.94v3.13h-3.12V39.94h3.12m.45-.45h-4v4h4v-4Z"/><rect class="cls-3" x="199.27" y="43.73" width="3.57" height="3.57"/><path class="cls-5" d="M202.62,43.95v3.13h-3.12V43.95h3.12m.45-.44h-4v4h4v-4Z"/><rect class="cls-3" x="199.27" y="47.74" width="3.57" height="3.57"/><path class="cls-5" d="M202.62,48v3.12h-3.12V48h3.12m.45-.45h-4v4h4v-4Z"/><rect class="cls-3" x="199.27" y="55.77" width="3.57" height="3.57"/><path class="cls-5" d="M202.62,56v3.12h-3.12V56h3.12m.45-.44h-4v4h4v-4Z"/><rect class="cls-3" x="199.27" y="51.76" width="3.57" height="3.57"/><path class="cls-5" d="M202.62,52v3.13h-3.12V52h3.12m.45-.45h-4v4h4v-4Z"/><rect class="cls-3" x="199.27" y="59.79" width="3.57" height="3.57"/><path class="cls-5" d="M202.62,60v3.13h-3.12V60h3.12m.45-.45h-4v4h4v-4Z"/><rect class="cls-3" x="199.27" y="63.81" width="3.57" height="3.57"/><path class="cls-5" d="M202.62,64v3.12h-3.12V64h3.12m.45-.44h-4v4h4v-4Z"/><rect class="cls-3" x="199.27" y="67.82" width="3.57" height="3.57"/><path class="cls-5" d="M202.62,68v3.12h-3.12V68h3.12m.45-.45h-4v4h4v-4Z"/><rect class="cls-3" x="199.27" y="71.84" width="3.57" height="3.57"/><path class="cls-5" d="M202.62,72.06v3.12h-3.12V72.06h3.12m.45-.44h-4v4h4v-4Z"/><rect class="cls-3" x="199.27" y="75.85" width="3.57" height="3.57"/><path class="cls-5" d="M202.62,76.08V79.2h-3.12V76.08h3.12m.45-.45h-4v4h4v-4Z"/><rect class="cls-3" x="199.27" y="79.87" width="3.57" height="3.57"/><path class="cls-5" d="M202.62,80.09v3.13h-3.12V80.09h3.12m.45-.44h-4v4h4v-4Z"/><rect class="cls-3" x="199.27" y="83.89" width="3.57" height="3.57"/><path class="cls-5" d="M202.62,84.11v3.12h-3.12V84.11h3.12m.45-.44h-4v4h4v-4Z"/><rect class="cls-3" x="199.27" y="87.9" width="3.57" height="3.57"/><path class="cls-5" d="M202.62,88.12v3.13h-3.12V88.12h3.12m.45-.44h-4v4h4v-4Z"/><rect class="cls-3" x="199.27" y="95.93" width="3.57" height="3.57"/><path class="cls-5" d="M202.62,96.15v3.12h-3.12V96.15h3.12m.45-.45h-4v4h4v-4Z"/><rect class="cls-3" x="199.27" y="91.91" width="3.57" height="3.57"/><path class="cls-5" d="M202.62,92.14v3.12h-3.12V92.14h3.12m.45-.45h-4v4h4v-4Z"/><rect class="cls-3" x="199.27" y="99.95" width="3.57" height="3.56"/><path class="cls-5" d="M202.62,100.17v3.12h-3.12v-3.12h3.12m.45-.44h-4v4h4v-4Z"/><rect class="cls-3" x="199.27" y="103.96" width="3.57" height="3.57"/><path class="cls-5" d="M202.62,104.18v3.13h-3.12v-3.13h3.12m.45-.44h-4v4h4v-4Z"/><rect class="cls-3" x="199.27" y="107.98" width="3.57" height="3.57"/><path class="cls-5" d="M202.62,108.2v3.13h-3.12V108.2h3.12m.45-.44h-4v4h4v-4Z"/><rect class="cls-3" x="199.27" y="112" width="3.57" height="3.57"/><path class="cls-5" d="M202.62,112.22v3.12h-3.12v-3.12h3.12m.45-.45h-4v4h4v-4Z"/><rect class="cls-3" x="199.27" y="116.01" width="3.57" height="3.57"/><path class="cls-5" d="M202.62,116.23v3.12h-3.12v-3.12h3.12m.45-.44h-4v4h4v-4Z"/><rect class="cls-3" x="199.27" y="120.03" width="3.57" height="3.57"/><path class="cls-5" d="M202.62,120.25v3.12h-3.12v-3.12h3.12m.45-.44h-4v4h4v-4Z"/><rect class="cls-3" x="199.27" y="124.04" width="3.57" height="3.57"/><path class="cls-5" d="M202.62,124.26v3.13h-3.12v-3.13h3.12m.45-.45h-4v4h4v-4Z"/><rect class="cls-3" x="199.27" y="128.06" width="3.57" height="3.56"/><path class="cls-5" d="M202.62,128.28v3.12h-3.12v-3.12h3.12m.45-.45h-4v4h4v-4Z"/><rect class="cls-3" x="199.27" y="136.09" width="3.57" height="3.57"/><path class="cls-5" d="M202.62,136.31v3.13h-3.12v-3.13h3.12m.45-.44h-4v4h4v-4Z"/><rect class="cls-3" x="195.26" y="23.65" width="3.56" height="3.57"/><path class="cls-5" d="M198.6,23.87V27h-3.12V23.87h3.12m.45-.45h-4v4h4v-4Z"/><rect class="cls-3" x="195.26" y="27.67" width="3.56" height="3.56"/><path class="cls-5" d="M198.6,27.89V31h-3.12V27.89h3.12m.45-.45h-4v4h4v-4Z"/><rect class="cls-3" x="195.26" y="31.68" width="3.56" height="3.57"/><path class="cls-5" d="M198.6,31.9V35h-3.12V31.9h3.12m.45-.45h-4v4h4v-4Z"/><rect class="cls-3" x="195.26" y="39.71" width="3.56" height="3.57"/><path class="cls-5" d="M198.6,39.94v3.13h-3.12V39.94h3.12m.45-.45h-4v4h4v-4Z"/><rect class="cls-3" x="195.26" y="43.73" width="3.56" height="3.57"/><path class="cls-5" d="M198.6,43.95v3.13h-3.12V43.95h3.12m.45-.44h-4v4h4v-4Z"/><rect class="cls-3" x="195.26" y="47.74" width="3.56" height="3.57"/><path class="cls-5" d="M198.6,48v3.12h-3.12V48h3.12m.45-.45h-4v4h4v-4Z"/><rect class="cls-3" x="195.26" y="55.77" width="3.56" height="3.57"/><path class="cls-5" d="M198.6,56v3.12h-3.12V56h3.12m.45-.44h-4v4h4v-4Z"/><rect class="cls-3" x="195.26" y="59.79" width="3.56" height="3.57"/><path class="cls-5" d="M198.6,60v3.13h-3.12V60h3.12m.45-.45h-4v4h4v-4Z"/><rect class="cls-3" x="195.26" y="63.81" width="3.56" height="3.57"/><path class="cls-5" d="M198.6,64v3.12h-3.12V64h3.12m.45-.44h-4v4h4v-4Z"/><rect class="cls-3" x="195.26" y="71.84" width="3.56" height="3.57"/><path class="cls-5" d="M198.6,72.06v3.12h-3.12V72.06h3.12m.45-.44h-4v4h4v-4Z"/><rect class="cls-3" x="195.26" y="75.85" width="3.56" height="3.57"/><path class="cls-5" d="M198.6,76.08V79.2h-3.12V76.08h3.12m.45-.45h-4v4h4v-4Z"/><rect class="cls-3" x="195.26" y="79.87" width="3.56" height="3.57"/><path class="cls-5" d="M198.6,80.09v3.13h-3.12V80.09h3.12m.45-.44h-4v4h4v-4Z"/><rect class="cls-3" x="195.26" y="87.9" width="3.56" height="3.57"/><path class="cls-5" d="M198.6,88.12v3.13h-3.12V88.12h3.12m.45-.44h-4v4h4v-4Z"/><rect class="cls-3" x="195.26" y="95.93" width="3.56" height="3.57"/><path class="cls-5" d="M198.6,96.15v3.12h-3.12V96.15h3.12m.45-.45h-4v4h4v-4Z"/><rect class="cls-3" x="195.26" y="91.91" width="3.56" height="3.57"/><path class="cls-5" d="M198.6,92.14v3.12h-3.12V92.14h3.12m.45-.45h-4v4h4v-4Z"/><rect class="cls-3" x="195.26" y="103.96" width="3.56" height="3.57"/><path class="cls-5" d="M198.6,104.18v3.13h-3.12v-3.13h3.12m.45-.44h-4v4h4v-4Z"/><rect class="cls-3" x="195.26" y="107.98" width="3.56" height="3.57"/><path class="cls-5" d="M198.6,108.2v3.13h-3.12V108.2h3.12m.45-.44h-4v4h4v-4Z"/><rect class="cls-3" x="195.26" y="112" width="3.56" height="3.57"/><path class="cls-5" d="M198.6,112.22v3.12h-3.12v-3.12h3.12m.45-.45h-4v4h4v-4Z"/><rect class="cls-3" x="195.26" y="120.03" width="3.56" height="3.57"/><path class="cls-5" d="M198.6,120.25v3.12h-3.12v-3.12h3.12m.45-.44h-4v4h4v-4Z"/><rect class="cls-3" x="195.26" y="124.04" width="3.56" height="3.57"/><path class="cls-5" d="M198.6,124.26v3.13h-3.12v-3.13h3.12m.45-.45h-4v4h4v-4Z"/><rect class="cls-3" x="191.24" y="27.67" width="3.57" height="3.56"/><path class="cls-5" d="M194.58,27.89V31h-3.11V27.89h3.11m.45-.45h-4v4h4v-4Z"/><rect class="cls-3" x="191.24" y="43.73" width="3.57" height="3.57"/><path class="cls-5" d="M194.58,43.95v3.13h-3.11V43.95h3.11m.45-.44h-4v4h4v-4Z"/><rect class="cls-3" x="191.24" y="59.79" width="3.57" height="3.57"/><path class="cls-5" d="M194.58,60v3.13h-3.11V60h3.11m.45-.45h-4v4h4v-4Z"/><rect class="cls-3" x="191.24" y="75.85" width="3.57" height="3.57"/><path class="cls-5" d="M194.58,76.08V79.2h-3.11V76.08h3.11m.45-.45h-4v4h4v-4Z"/><rect class="cls-3" x="191.24" y="91.91" width="3.57" height="3.57"/><path class="cls-5" d="M194.58,92.14v3.12h-3.11V92.14h3.11m.45-.45h-4v4h4v-4Z"/><rect class="cls-3" x="191.24" y="107.98" width="3.57" height="3.57"/><path class="cls-5" d="M194.58,108.2v3.13h-3.11V108.2h3.11m.45-.44h-4v4h4v-4Z"/><rect class="cls-3" x="191.24" y="124.04" width="3.57" height="3.57"/><path class="cls-5" d="M194.58,124.26v3.13h-3.11v-3.13h3.11m.45-.45h-4v4h4v-4Z"/><rect class="cls-3" x="195.26" y="128.06" width="3.56" height="3.56"/><path class="cls-5" d="M198.6,128.28v3.12h-3.12v-3.12h3.12m.45-.45h-4v4h4v-4Z"/><rect class="cls-3" x="195.26" y="136.09" width="3.56" height="3.57"/><path class="cls-5" d="M198.6,136.31v3.13h-3.12v-3.13h3.12m.45-.44h-4v4h4v-4Z"/><rect class="cls-3" x="199.27" y="132.07" width="3.57" height="3.56"/><path class="cls-5" d="M202.62,132.29v3.12h-3.12v-3.12h3.12m.45-.44h-4v4h4v-4Z"/><rect class="cls-6" x="267.54" y="11.6" width="3.58" height="3.57"/><path class="cls-5" d="M270.89,11.82V15h-3.12V11.82h3.12m.45-.45h-4v4h4v-4Z"/><rect class="cls-6" x="267.54" y="15.61" width="3.58" height="3.57"/><path class="cls-5" d="M270.89,15.84V19h-3.12V15.84h3.12m.45-.44h-4v4h4v-4Z"/><rect class="cls-6" x="267.54" y="19.63" width="3.58" height="3.57"/><path class="cls-5" d="M270.89,19.86V23h-3.12V19.86h3.12m.45-.45h-4v4h4v-4Z"/><rect class="cls-6" x="267.54" y="23.65" width="3.58" height="3.57"/><path class="cls-5" d="M270.89,23.87V27h-3.12V23.87h3.12m.45-.45h-4v4h4v-4Z"/><rect class="cls-6" x="267.54" y="27.67" width="3.58" height="3.56"/><path class="cls-5" d="M270.89,27.89V31h-3.12V27.89h3.12m.45-.45h-4v4h4v-4Z"/><rect class="cls-6" x="267.54" y="31.68" width="3.58" height="3.57"/><path class="cls-5" d="M270.89,31.9V35h-3.12V31.9h3.12m.45-.45h-4v4h4v-4Z"/><rect class="cls-6" x="267.54" y="35.7" width="3.58" height="3.57"/><path class="cls-5" d="M270.89,35.92V39h-3.12V35.92h3.12m.45-.44h-4v4h4v-4Z"/><rect class="cls-6" x="267.54" y="39.71" width="3.58" height="3.57"/><path class="cls-5" d="M270.89,39.94v3.13h-3.12V39.94h3.12m.45-.45h-4v4h4v-4Z"/><rect class="cls-6" x="267.54" y="47.74" width="3.58" height="3.57"/><path class="cls-5" d="M270.89,48v3.12h-3.12V48h3.12m.45-.45h-4v4h4v-4Z"/><rect class="cls-6" x="267.54" y="43.73" width="3.58" height="3.57"/><path class="cls-5" d="M270.89,43.95v3.13h-3.12V43.95h3.12m.45-.44h-4v4h4v-4Z"/><rect class="cls-6" x="267.54" y="51.76" width="3.58" height="3.57"/><path class="cls-5" d="M270.89,52v3.13h-3.12V52h3.12m.45-.45h-4v4h4v-4Z"/><rect class="cls-6" x="267.54" y="55.77" width="3.58" height="3.57"/><path class="cls-5" d="M270.89,56v3.12h-3.12V56h3.12m.45-.44h-4v4h4v-4Z"/><rect class="cls-6" x="267.54" y="59.79" width="3.58" height="3.57"/><path class="cls-5" d="M270.89,60v3.13h-3.12V60h3.12m.45-.45h-4v4h4v-4Z"/><rect class="cls-6" x="267.54" y="63.81" width="3.58" height="3.57"/><path class="cls-5" d="M270.89,64v3.12h-3.12V64h3.12m.45-.44h-4v4h4v-4Z"/><rect class="cls-6" x="267.54" y="67.82" width="3.58" height="3.57"/><path class="cls-5" d="M270.89,68v3.12h-3.12V68h3.12m.45-.45h-4v4h4v-4Z"/><rect class="cls-6" x="267.54" y="71.84" width="3.58" height="3.57"/><path class="cls-5" d="M270.89,72.06v3.12h-3.12V72.06h3.12m.45-.44h-4v4h4v-4Z"/><rect class="cls-6" x="267.54" y="75.85" width="3.58" height="3.57"/><path class="cls-5" d="M270.89,76.08V79.2h-3.12V76.08h3.12m.45-.45h-4v4h4v-4Z"/><rect class="cls-6" x="267.54" y="79.87" width="3.58" height="3.57"/><path class="cls-5" d="M270.89,80.09v3.13h-3.12V80.09h3.12m.45-.44h-4v4h4v-4Z"/><rect class="cls-6" x="267.54" y="87.9" width="3.58" height="3.57"/><path class="cls-5" d="M270.89,88.12v3.13h-3.12V88.12h3.12m.45-.44h-4v4h4v-4Z"/><rect class="cls-6" x="267.54" y="83.89" width="3.58" height="3.57"/><path class="cls-5" d="M270.89,84.11v3.12h-3.12V84.11h3.12m.45-.44h-4v4h4v-4Z"/><rect class="cls-6" x="267.54" y="91.91" width="3.58" height="3.57"/><path class="cls-5" d="M270.89,92.14v3.12h-3.12V92.14h3.12m.45-.45h-4v4h4v-4Z"/><rect class="cls-6" x="267.54" y="95.93" width="3.58" height="3.57"/><path class="cls-5" d="M270.89,96.15v3.12h-3.12V96.15h3.12m.45-.45h-4v4h4v-4Z"/><rect class="cls-6" x="267.54" y="99.95" width="3.58" height="3.56"/><path class="cls-5" d="M270.89,100.17v3.12h-3.12v-3.12h3.12m.45-.44h-4v4h4v-4Z"/><rect class="cls-6" x="267.54" y="103.96" width="3.58" height="3.57"/><path class="cls-5" d="M270.89,104.18v3.13h-3.12v-3.13h3.12m.45-.44h-4v4h4v-4Z"/><rect class="cls-6" x="267.54" y="107.98" width="3.58" height="3.57"/><path class="cls-5" d="M270.89,108.2v3.13h-3.12V108.2h3.12m.45-.44h-4v4h4v-4Z"/><rect class="cls-6" x="267.54" y="112" width="3.58" height="3.57"/><path class="cls-5" d="M270.89,112.22v3.12h-3.12v-3.12h3.12m.45-.45h-4v4h4v-4Z"/><rect class="cls-6" x="267.54" y="116.01" width="3.58" height="3.57"/><path class="cls-5" d="M270.89,116.23v3.12h-3.12v-3.12h3.12m.45-.44h-4v4h4v-4Z"/><rect class="cls-6" x="267.54" y="120.03" width="3.58" height="3.57"/><path class="cls-5" d="M270.89,120.25v3.12h-3.12v-3.12h3.12m.45-.44h-4v4h4v-4Z"/><rect class="cls-6" x="267.54" y="128.06" width="3.58" height="3.56"/><path class="cls-5" d="M270.89,128.28v3.12h-3.12v-3.12h3.12m.45-.45h-4v4h4v-4Z"/><rect class="cls-6" x="263.52" y="15.61" width="3.57" height="3.57"/><path class="cls-5" d="M266.87,15.84V19h-3.12V15.84h3.12m.45-.44h-4v4h4v-4Z"/><rect class="cls-6" x="263.52" y="19.63" width="3.57" height="3.57"/><path class="cls-5" d="M266.87,19.86V23h-3.12V19.86h3.12m.45-.45h-4v4h4v-4Z"/><rect class="cls-6" x="263.52" y="23.65" width="3.57" height="3.57"/><path class="cls-5" d="M266.87,23.87V27h-3.12V23.87h3.12m.45-.45h-4v4h4v-4Z"/><rect class="cls-6" x="263.52" y="31.68" width="3.57" height="3.57"/><path class="cls-5" d="M266.87,31.9V35h-3.12V31.9h3.12m.45-.45h-4v4h4v-4Z"/><rect class="cls-6" x="263.52" y="35.7" width="3.57" height="3.57"/><path class="cls-5" d="M266.87,35.92V39h-3.12V35.92h3.12m.45-.44h-4v4h4v-4Z"/><rect class="cls-6" x="263.52" y="39.71" width="3.57" height="3.57"/><path class="cls-5" d="M266.87,39.94v3.13h-3.12V39.94h3.12m.45-.45h-4v4h4v-4Z"/><rect class="cls-6" x="263.52" y="47.74" width="3.57" height="3.57"/><path class="cls-5" d="M266.87,48v3.12h-3.12V48h3.12m.45-.45h-4v4h4v-4Z"/><rect class="cls-6" x="263.52" y="51.76" width="3.57" height="3.57"/><path class="cls-5" d="M266.87,52v3.13h-3.12V52h3.12m.45-.45h-4v4h4v-4Z"/><rect class="cls-6" x="263.52" y="55.77" width="3.57" height="3.57"/><path class="cls-5" d="M266.87,56v3.12h-3.12V56h3.12m.45-.44h-4v4h4v-4Z"/><rect class="cls-6" x="263.52" y="63.81" width="3.57" height="3.57"/><path class="cls-5" d="M266.87,64v3.12h-3.12V64h3.12m.45-.44h-4v4h4v-4Z"/><rect class="cls-6" x="263.52" y="67.82" width="3.57" height="3.57"/><path class="cls-5" d="M266.87,68v3.12h-3.12V68h3.12m.45-.45h-4v4h4v-4Z"/><rect class="cls-6" x="263.52" y="71.84" width="3.57" height="3.57"/><path class="cls-5" d="M266.87,72.06v3.12h-3.12V72.06h3.12m.45-.44h-4v4h4v-4Z"/><rect class="cls-6" x="263.52" y="79.87" width="3.57" height="3.57"/><path class="cls-5" d="M266.87,80.09v3.13h-3.12V80.09h3.12m.45-.44h-4v4h4v-4Z"/><rect class="cls-6" x="263.52" y="87.9" width="3.57" height="3.57"/><path class="cls-5" d="M266.87,88.12v3.13h-3.12V88.12h3.12m.45-.44h-4v4h4v-4Z"/><rect class="cls-6" x="263.52" y="83.89" width="3.57" height="3.57"/><path class="cls-5" d="M266.87,84.11v3.12h-3.12V84.11h3.12m.45-.44h-4v4h4v-4Z"/><rect class="cls-6" x="263.52" y="95.93" width="3.57" height="3.57"/><path class="cls-5" d="M266.87,96.15v3.12h-3.12V96.15h3.12m.45-.45h-4v4h4v-4Z"/><rect class="cls-6" x="263.52" y="99.95" width="3.57" height="3.56"/><path class="cls-5" d="M266.87,100.17v3.12h-3.12v-3.12h3.12m.45-.44h-4v4h4v-4Z"/><rect class="cls-6" x="263.52" y="103.96" width="3.57" height="3.57"/><path class="cls-5" d="M266.87,104.18v3.13h-3.12v-3.13h3.12m.45-.44h-4v4h4v-4Z"/><rect class="cls-6" x="263.52" y="112" width="3.57" height="3.57"/><path class="cls-5" d="M266.87,112.22v3.12h-3.12v-3.12h3.12m.45-.45h-4v4h4v-4Z"/><rect class="cls-6" x="263.52" y="116.01" width="3.57" height="3.57"/><path class="cls-5" d="M266.87,116.23v3.12h-3.12v-3.12h3.12m.45-.44h-4v4h4v-4Z"/><rect class="cls-6" x="259.51" y="19.63" width="3.57" height="3.57"/><path class="cls-5" d="M262.86,19.86V23h-3.12V19.86h3.12m.44-.45h-4v4h4v-4Z"/><rect class="cls-6" x="259.51" y="35.7" width="3.57" height="3.57"/><path class="cls-5" d="M262.86,35.92V39h-3.12V35.92h3.12m.44-.44h-4v4h4v-4Z"/><rect class="cls-6" x="259.51" y="51.76" width="3.57" height="3.57"/><path class="cls-5" d="M262.86,52v3.13h-3.12V52h3.12m.44-.45h-4v4h4v-4Z"/><rect class="cls-6" x="259.51" y="67.82" width="3.57" height="3.57"/><path class="cls-5" d="M262.86,68v3.12h-3.12V68h3.12m.44-.45h-4v4h4v-4Z"/><rect class="cls-6" x="259.51" y="83.89" width="3.57" height="3.57"/><path class="cls-5" d="M262.86,84.11v3.12h-3.12V84.11h3.12m.44-.44h-4v4h4v-4Z"/><rect class="cls-6" x="259.51" y="99.95" width="3.57" height="3.56"/><path class="cls-5" d="M262.86,100.17v3.12h-3.12v-3.12h3.12m.44-.44h-4v4h4v-4Z"/><rect class="cls-6" x="259.51" y="116.01" width="3.57" height="3.57"/><path class="cls-5" d="M262.86,116.23v3.12h-3.12v-3.12h3.12m.44-.44h-4v4h4v-4Z"/><rect class="cls-6" x="263.52" y="120.03" width="3.57" height="3.57"/><path class="cls-5" d="M266.87,120.25v3.12h-3.12v-3.12h3.12m.45-.44h-4v4h4v-4Z"/><rect class="cls-6" x="263.52" y="128.06" width="3.57" height="3.56"/><path class="cls-5" d="M266.87,128.28v3.12h-3.12v-3.12h3.12m.45-.45h-4v4h4v-4Z"/><rect class="cls-6" x="267.54" y="124.04" width="3.58" height="3.57"/><path class="cls-5" d="M270.89,124.26v3.13h-3.12v-3.13h3.12m.45-.45h-4v4h4v-4Z"/><rect class="cls-3" x="255.49" y="19.63" width="3.57" height="3.57"/><path class="cls-5" d="M258.84,19.86V23h-3.12V19.86h3.12m.44-.45h-4v4h4v-4Z"/><rect class="cls-3" x="255.49" y="23.65" width="3.57" height="3.57"/><path class="cls-5" d="M258.84,23.87V27h-3.12V23.87h3.12m.44-.45h-4v4h4v-4Z"/><rect class="cls-3" x="255.49" y="27.67" width="3.57" height="3.56"/><path class="cls-5" d="M258.84,27.89V31h-3.12V27.89h3.12m.44-.45h-4v4h4v-4Z"/><rect class="cls-3" x="255.49" y="31.68" width="3.57" height="3.57"/><path class="cls-5" d="M258.84,31.9V35h-3.12V31.9h3.12m.44-.45h-4v4h4v-4Z"/><rect class="cls-3" x="255.49" y="35.7" width="3.57" height="3.57"/><path class="cls-5" d="M258.84,35.92V39h-3.12V35.92h3.12m.44-.44h-4v4h4v-4Z"/><rect class="cls-3" x="255.49" y="39.71" width="3.57" height="3.57"/><path class="cls-5" d="M258.84,39.94v3.13h-3.12V39.94h3.12m.44-.45h-4v4h4v-4Z"/><rect class="cls-3" x="255.49" y="43.73" width="3.57" height="3.57"/><path class="cls-5" d="M258.84,43.95v3.13h-3.12V43.95h3.12m.44-.44h-4v4h4v-4Z"/><rect class="cls-3" x="255.49" y="47.74" width="3.57" height="3.57"/><path class="cls-5" d="M258.84,48v3.12h-3.12V48h3.12m.44-.45h-4v4h4v-4Z"/><rect class="cls-3" x="255.49" y="55.77" width="3.57" height="3.57"/><path class="cls-5" d="M258.84,56v3.12h-3.12V56h3.12m.44-.44h-4v4h4v-4Z"/><rect class="cls-3" x="255.49" y="51.76" width="3.57" height="3.57"/><path class="cls-5" d="M258.84,52v3.13h-3.12V52h3.12m.44-.45h-4v4h4v-4Z"/><rect class="cls-3" x="255.49" y="59.79" width="3.57" height="3.57"/><path class="cls-5" d="M258.84,60v3.13h-3.12V60h3.12m.44-.45h-4v4h4v-4Z"/><rect class="cls-3" x="255.49" y="63.81" width="3.57" height="3.57"/><path class="cls-5" d="M258.84,64v3.12h-3.12V64h3.12m.44-.44h-4v4h4v-4Z"/><rect class="cls-3" x="255.49" y="67.82" width="3.57" height="3.57"/><path class="cls-5" d="M258.84,68v3.12h-3.12V68h3.12m.44-.45h-4v4h4v-4Z"/><rect class="cls-3" x="255.49" y="71.84" width="3.57" height="3.57"/><path class="cls-5" d="M258.84,72.06v3.12h-3.12V72.06h3.12m.44-.44h-4v4h4v-4Z"/><rect class="cls-3" x="255.49" y="75.85" width="3.57" height="3.57"/><path class="cls-5" d="M258.84,76.08V79.2h-3.12V76.08h3.12m.44-.45h-4v4h4v-4Z"/><rect class="cls-3" x="255.49" y="79.87" width="3.57" height="3.57"/><path class="cls-5" d="M258.84,80.09v3.13h-3.12V80.09h3.12m.44-.44h-4v4h4v-4Z"/><rect class="cls-3" x="255.49" y="83.89" width="3.57" height="3.57"/><path class="cls-5" d="M258.84,84.11v3.12h-3.12V84.11h3.12m.44-.44h-4v4h4v-4Z"/><rect class="cls-3" x="255.49" y="87.9" width="3.57" height="3.57"/><path class="cls-5" d="M258.84,88.12v3.13h-3.12V88.12h3.12m.44-.44h-4v4h4v-4Z"/><rect class="cls-3" x="255.49" y="95.93" width="3.57" height="3.57"/><path class="cls-5" d="M258.84,96.15v3.12h-3.12V96.15h3.12m.44-.45h-4v4h4v-4Z"/><rect class="cls-3" x="255.49" y="91.91" width="3.57" height="3.57"/><path class="cls-5" d="M258.84,92.14v3.12h-3.12V92.14h3.12m.44-.45h-4v4h4v-4Z"/><rect class="cls-3" x="255.49" y="99.95" width="3.57" height="3.56"/><path class="cls-5" d="M258.84,100.17v3.12h-3.12v-3.12h3.12m.44-.44h-4v4h4v-4Z"/><rect class="cls-3" x="255.49" y="103.96" width="3.57" height="3.57"/><path class="cls-5" d="M258.84,104.18v3.13h-3.12v-3.13h3.12m.44-.44h-4v4h4v-4Z"/><rect class="cls-3" x="255.49" y="107.98" width="3.57" height="3.57"/><path class="cls-5" d="M258.84,108.2v3.13h-3.12V108.2h3.12m.44-.44h-4v4h4v-4Z"/><rect class="cls-3" x="255.49" y="112" width="3.57" height="3.57"/><path class="cls-5" d="M258.84,112.22v3.12h-3.12v-3.12h3.12m.44-.45h-4v4h4v-4Z"/><rect class="cls-3" x="255.49" y="116.01" width="3.57" height="3.57"/><path class="cls-5" d="M258.84,116.23v3.12h-3.12v-3.12h3.12m.44-.44h-4v4h4v-4Z"/><rect class="cls-3" x="255.49" y="120.03" width="3.57" height="3.57"/><path class="cls-5" d="M258.84,120.25v3.12h-3.12v-3.12h3.12m.44-.44h-4v4h4v-4Z"/><rect class="cls-3" x="255.49" y="124.04" width="3.57" height="3.57"/><path class="cls-5" d="M258.84,124.26v3.13h-3.12v-3.13h3.12m.44-.45h-4v4h4v-4Z"/><rect class="cls-3" x="255.49" y="128.06" width="3.57" height="3.56"/><path class="cls-5" d="M258.84,128.28v3.12h-3.12v-3.12h3.12m.44-.45h-4v4h4v-4Z"/><rect class="cls-3" x="255.49" y="136.09" width="3.57" height="3.57"/><path class="cls-5" d="M258.84,136.31v3.13h-3.12v-3.13h3.12m.44-.44h-4v4h4v-4Z"/><rect class="cls-3" x="259.51" y="23.65" width="3.57" height="3.57"/><path class="cls-5" d="M262.86,23.87V27h-3.12V23.87h3.12m.44-.45h-4v4h4v-4Z"/><rect class="cls-3" x="259.51" y="27.67" width="3.57" height="3.56"/><path class="cls-5" d="M262.86,27.89V31h-3.12V27.89h3.12m.44-.45h-4v4h4v-4Z"/><rect class="cls-3" x="259.51" y="31.68" width="3.57" height="3.57"/><path class="cls-5" d="M262.86,31.9V35h-3.12V31.9h3.12m.44-.45h-4v4h4v-4Z"/><rect class="cls-3" x="259.51" y="39.71" width="3.57" height="3.57"/><path class="cls-5" d="M262.86,39.94v3.13h-3.12V39.94h3.12m.44-.45h-4v4h4v-4Z"/><rect class="cls-3" x="259.51" y="43.73" width="3.57" height="3.57"/><path class="cls-5" d="M262.86,43.95v3.13h-3.12V43.95h3.12m.44-.44h-4v4h4v-4Z"/><rect class="cls-3" x="259.51" y="47.74" width="3.57" height="3.57"/><path class="cls-5" d="M262.86,48v3.12h-3.12V48h3.12m.44-.45h-4v4h4v-4Z"/><rect class="cls-3" x="259.51" y="55.77" width="3.57" height="3.57"/><path class="cls-5" d="M262.86,56v3.12h-3.12V56h3.12m.44-.44h-4v4h4v-4Z"/><rect class="cls-3" x="259.51" y="59.79" width="3.57" height="3.57"/><path class="cls-5" d="M262.86,60v3.13h-3.12V60h3.12m.44-.45h-4v4h4v-4Z"/><rect class="cls-3" x="259.51" y="63.81" width="3.57" height="3.57"/><path class="cls-5" d="M262.86,64v3.12h-3.12V64h3.12m.44-.44h-4v4h4v-4Z"/><rect class="cls-3" x="259.51" y="71.84" width="3.57" height="3.57"/><path class="cls-5" d="M262.86,72.06v3.12h-3.12V72.06h3.12m.44-.44h-4v4h4v-4Z"/><rect class="cls-3" x="259.51" y="75.85" width="3.57" height="3.57"/><path class="cls-5" d="M262.86,76.08V79.2h-3.12V76.08h3.12m.44-.45h-4v4h4v-4Z"/><rect class="cls-3" x="259.51" y="79.87" width="3.57" height="3.57"/><path class="cls-5" d="M262.86,80.09v3.13h-3.12V80.09h3.12m.44-.44h-4v4h4v-4Z"/><rect class="cls-3" x="259.51" y="87.9" width="3.57" height="3.57"/><path class="cls-5" d="M262.86,88.12v3.13h-3.12V88.12h3.12m.44-.44h-4v4h4v-4Z"/><rect class="cls-3" x="259.51" y="95.93" width="3.57" height="3.57"/><path class="cls-5" d="M262.86,96.15v3.12h-3.12V96.15h3.12m.44-.45h-4v4h4v-4Z"/><rect class="cls-3" x="259.51" y="91.91" width="3.57" height="3.57"/><path class="cls-5" d="M262.86,92.14v3.12h-3.12V92.14h3.12m.44-.45h-4v4h4v-4Z"/><rect class="cls-3" x="259.51" y="103.96" width="3.57" height="3.57"/><path class="cls-5" d="M262.86,104.18v3.13h-3.12v-3.13h3.12m.44-.44h-4v4h4v-4Z"/><rect class="cls-3" x="259.51" y="107.98" width="3.57" height="3.57"/><path class="cls-5" d="M262.86,108.2v3.13h-3.12V108.2h3.12m.44-.44h-4v4h4v-4Z"/><rect class="cls-3" x="259.51" y="112" width="3.57" height="3.57"/><path class="cls-5" d="M262.86,112.22v3.12h-3.12v-3.12h3.12m.44-.45h-4v4h4v-4Z"/><rect class="cls-3" x="259.51" y="120.03" width="3.57" height="3.57"/><path class="cls-5" d="M262.86,120.25v3.12h-3.12v-3.12h3.12m.44-.44h-4v4h4v-4Z"/><rect class="cls-3" x="259.51" y="124.04" width="3.57" height="3.57"/><path class="cls-5" d="M262.86,124.26v3.13h-3.12v-3.13h3.12m.44-.45h-4v4h4v-4Z"/><rect class="cls-3" x="263.52" y="27.67" width="3.57" height="3.56"/><path class="cls-5" d="M266.87,27.89V31h-3.12V27.89h3.12m.45-.45h-4v4h4v-4Z"/><rect class="cls-3" x="263.52" y="43.73" width="3.57" height="3.57"/><path class="cls-5" d="M266.87,43.95v3.13h-3.12V43.95h3.12m.45-.44h-4v4h4v-4Z"/><rect class="cls-3" x="263.52" y="59.79" width="3.57" height="3.57"/><path class="cls-5" d="M266.87,60v3.13h-3.12V60h3.12m.45-.45h-4v4h4v-4Z"/><rect class="cls-3" x="263.52" y="75.85" width="3.57" height="3.57"/><path class="cls-5" d="M266.87,76.08V79.2h-3.12V76.08h3.12m.45-.45h-4v4h4v-4Z"/><rect class="cls-3" x="263.52" y="91.91" width="3.57" height="3.57"/><path class="cls-5" d="M266.87,92.14v3.12h-3.12V92.14h3.12m.45-.45h-4v4h4v-4Z"/><rect class="cls-3" x="263.52" y="107.98" width="3.57" height="3.57"/><path class="cls-5" d="M266.87,108.2v3.13h-3.12V108.2h3.12m.45-.44h-4v4h4v-4Z"/><rect class="cls-3" x="263.52" y="124.04" width="3.57" height="3.57"/><path class="cls-5" d="M266.87,124.26v3.13h-3.12v-3.13h3.12m.45-.45h-4v4h4v-4Z"/><rect class="cls-3" x="259.51" y="128.06" width="3.57" height="3.56"/><path class="cls-5" d="M262.86,128.28v3.12h-3.12v-3.12h3.12m.44-.45h-4v4h4v-4Z"/><rect class="cls-3" x="259.51" y="136.09" width="3.57" height="3.57"/><path class="cls-5" d="M262.86,136.31v3.13h-3.12v-3.13h3.12m.44-.44h-4v4h4v-4Z"/><rect class="cls-3" x="255.49" y="132.07" width="3.57" height="3.56"/><path class="cls-5" d="M258.84,132.29v3.12h-3.12v-3.12h3.12m.44-.44h-4v4h4v-4Z"/><g class="cls-7"><rect class="cls-5" x="215.11" y="21.86" width="28.11" height="80.32"/><path class="cls-6" d="M244.46,103.07h-10l-5.33-21.31-5.32,21.31h-10l8.32-25-8.06-24.17,8-16-8.24-16.46,1.6-.8,8.63,17.26-8.07,16.13,8,24-7.73,23.2h6.09l5.79-23.2-6-24.15,6-16-6.36-17h14.62l-6.36,17,6,16-6,24.15,5.8,23.2H242l-7.73-23.2,8-24-8.07-16.13,8.63-17.26,1.59.8-8.23,16.46,8,16-8.05,24.17ZM224.08,54l5.09,20.36L234.25,54l-5.09-13.57Zm.35-31.28,4.74,12.63,4.74-12.63Z"/></g><rect class="cls-5" x="215.11" y="19.86" width="28.11" height="6.02"/><path class="cls-6" d="M243.41,26.07h-28.5V19.66h28.5Zm-28.11-.39H243V20H215.3Z"/><polygon class="cls-6" points="218.59 19.86 215.11 25.88 222.06 25.88 218.59 19.86 215.11 25.88 222.06 25.88 218.59 19.86"/><polygon class="cls-6" points="225.54 19.86 222.06 25.88 229.03 25.88 225.54 19.86 222.06 25.88 229.03 25.88 225.54 19.86"/><polygon class="cls-6" points="232.64 19.86 229.17 25.88 236.12 25.88 232.64 19.86 229.17 25.88 236.12 25.88 232.64 19.86"/><polygon class="cls-6" points="239.75 19.86 236.26 25.88 243.22 25.88 239.75 19.86 236.26 25.88 243.22 25.88 239.75 19.86"/><rect class="cls-6" x="215.11" y="97.94" width="28.11" height="6.02"/><polygon class="cls-5" points="218.59 97.94 215.11 103.96 222.06 103.96 218.59 97.94 215.11 103.96 222.06 103.96 218.59 97.94"/><polygon class="cls-5" points="225.54 97.94 222.06 103.96 229.03 103.96 225.54 97.94 222.06 103.96 229.03 103.96 225.54 97.94"/><polygon class="cls-5" points="232.64 97.94 229.17 103.96 236.12 103.96 232.64 97.94 229.17 103.96 236.12 103.96 232.64 97.94"/><polygon class="cls-5" points="239.75 97.94 236.26 103.96 243.22 103.96 239.75 97.94 236.26 103.96 243.22 103.96 239.75 97.94"/><rect class="cls-6" x="215.11" width="28.11" height="19.86"/><rect class="cls-6" x="215.11" y="103.96" width="28.11" height="19.86"/><rect class="cls-5" x="227.16" y="4.02" width="4.02" height="4.01"/><path class="cls-6" d="M231.4,8.25h-4.46V3.8h4.46Zm-4-.44H231V4.24h-3.57Z"/><rect class="cls-5" x="227.16" y="8.03" width="4.02" height="4.02"/><path class="cls-6" d="M231.4,12.27h-4.46V7.81h4.46Zm-4-.45H231V8.25h-3.57Z"/><rect class="cls-5" x="231.17" y="8.03" width="4.02" height="4.02"/><path class="cls-6" d="M235.42,12.27H231V7.81h4.46Zm-4-.45H235V8.25H231.4Z"/><rect class="cls-5" x="223.14" y="8.03" width="4.02" height="4.02"/><path class="cls-6" d="M227.38,12.27h-4.46V7.81h4.46Zm-4-.45h3.57V8.25h-3.57Z"/><rect class="cls-5" x="223.14" y="12.05" width="4.02" height="4.01"/><path class="cls-6" d="M227.38,16.29h-4.46V11.82h4.46Zm-4-.45h3.57V12.27h-3.57Z"/><rect class="cls-5" x="219.13" y="12.05" width="4.01" height="4.01"/><path class="cls-6" d="M223.37,16.29H218.9V11.82h4.47Zm-4-.45h3.57V12.27h-3.57Z"/><rect class="cls-5" x="227.16" y="12.05" width="4.02" height="4.01"/><path class="cls-6" d="M231.4,16.29h-4.46V11.82h4.46Zm-4-.45H231V12.27h-3.57Z"/><rect class="cls-5" x="231.17" y="12.05" width="4.02" height="4.01"/><path class="cls-6" d="M235.42,16.29H231V11.82h4.46Zm-4-.45H235V12.27H231.4Z"/><rect class="cls-5" x="235.19" y="12.05" width="4.01" height="4.01"/><path class="cls-6" d="M239.43,16.29H235V11.82h4.46Zm-4-.45H239V12.27h-3.56Z"/><rect class="cls-5" x="227.16" y="116.45" width="4.02" height="4.02"/><path class="cls-6" d="M231.4,120.7h-4.46v-4.47h4.46Zm-4-.45H231v-3.57h-3.57Z"/><rect class="cls-5" x="227.16" y="112.44" width="4.02" height="4.01"/><path class="cls-6" d="M231.4,116.68h-4.46v-4.46h4.46Zm-4-.45H231v-3.57h-3.57Z"/><rect class="cls-5" x="231.17" y="112.44" width="4.02" height="4.01"/><path class="cls-6" d="M235.42,116.68H231v-4.46h4.46Zm-4-.45H235v-3.57H231.4Z"/><rect class="cls-5" x="223.14" y="112.44" width="4.02" height="4.01"/><path class="cls-6" d="M227.38,116.68h-4.46v-4.46h4.46Zm-4-.45h3.57v-3.57h-3.57Z"/><rect class="cls-5" x="223.14" y="108.42" width="4.02" height="4.02"/><path class="cls-6" d="M227.38,112.66h-4.46V108.2h4.46Zm-4-.44h3.57v-3.57h-3.57Z"/><rect class="cls-5" x="219.13" y="108.42" width="4.01" height="4.02"/><path class="cls-6" d="M223.37,112.66H218.9V108.2h4.47Zm-4-.44h3.57v-3.57h-3.57Z"/><rect class="cls-5" x="227.16" y="108.42" width="4.02" height="4.02"/><path class="cls-6" d="M231.4,112.66h-4.46V108.2h4.46Zm-4-.44H231v-3.57h-3.57Z"/><rect class="cls-5" x="231.17" y="108.42" width="4.02" height="4.02"/><path class="cls-6" d="M235.42,112.66H231V108.2h4.46Zm-4-.44H235v-3.57H231.4Z"/><rect class="cls-5" x="235.19" y="108.42" width="4.01" height="4.02"/><path class="cls-6" d="M239.43,112.66H235V108.2h4.46Zm-4-.44H239v-3.57h-3.56Z"/></g><g class="cls-8"><path class="cls-9" d="M1,74.51c5.51,6.85,33.3,39.19,73,46.7,24.86,4.69,54.4,1.62,86.1,1.62,38.05,0,73,1.87,100.47-4.68,31.89-7.61,53.7-36.73,58.61-43.8-49.48,3.41-103.61,5.3-160.34,5.3C103.1,79.64,49.82,77.82,1,74.51Z"/></g><path class="cls-5" d="M160.14,32.55c32.09,0,68.92,1.49,98.71,12.53,16.68,6.18,31.42,16,42.18,23.23,3.94,2.64,7.34,4.92,10,6.41.61.34,1.19.64,1.75.9-7.76,10.13-27,32-53.19,38.19-17.71,4.23-39,4.81-59.34,4.81-6.26,0-12.56-.06-19.23-.12s-13.79-.13-20.86-.13c-9.29,0-18.41.26-27.21.52-8.42.24-16.39.47-24.17.47-14.17,0-24.61-.78-33.89-2.53A100.22,100.22,0,0,1,45.94,106.3,134.31,134.31,0,0,1,23.38,90.8,151.43,151.43,0,0,1,7.85,75.69c.88-.4,1.83-.88,2.84-1.46,2.36-1.35,5.11-3,8.3-5C31.7,61.38,50.9,49.54,74.36,42.1c26.49-8.41,58.23-9.55,85.78-9.55m0-4.46c-32.13,0-62,1.8-87.13,9.76C43.14,47.32,20.14,63.69,8.48,70.35,3.76,73,.9,73.24.18,73.24H0s29.52,39.57,74,48c10.76,2,22.4,2.61,34.71,2.61,16.12,0,33.4-1,51.38-1,13.85,0,27.28.25,40.09.25,22.4,0,42.9-.76,60.38-4.93,36.38-8.68,59.66-45.37,59.66-45.37a3.51,3.51,0,0,1-.8.07,13.11,13.11,0,0,1-6.27-2C304,65.61,283.92,49.62,260.4,40.9c-27.78-10.3-61.28-12.81-100.26-12.81Z"/></g></g></g></svg>