<svg xmlns="http://www.w3.org/2000/svg" xmlns:xlink="http://www.w3.org/1999/xlink" viewBox="0 0 320.28 139.88"><defs><style>.cls-1{fill:none;}.cls-2{isolation:isolate;}.cls-3{fill:#e30613;}.cls-4{clip-path:url(#clip-path);}.cls-5{fill:#1d1d1b;}.cls-6{fill:#fff;}.cls-7{clip-path:url(#clip-path-2);}.cls-8{opacity:0.18;mix-blend-mode:hard-light;}.cls-9{fill:#1d1612;}</style><clipPath id="clip-path"><path class="cls-1" d="M0,72.78s23.28,36.69,59.66,45.37c27.48,6.55,62.42,4.68,100.47,4.68,31.69,0,61.24,3.07,86.1-1.62,44.52-8.41,74-48,74-48s-3,.27-8.48-2.88c-11.66-6.66-34.66-23-64.53-32.51-25.08-8-55-9.76-87.13-9.76-39,0-72.48,2.51-100.26,12.81C36.36,49.62,16.31,65.61,7.07,70.83,2.48,73.43,0,72.78,0,72.78Z"/></clipPath><clipPath id="clip-path-2"><rect class="cls-1" x="77.06" y="25.88" width="28.11" height="72.28"/></clipPath></defs><title>Asset 18</title><g class="cls-2"><g id="Layer_2" data-name="Layer 2"><g id="Layer_1-2" data-name="Layer 1"><path class="cls-3" d="M0,72.78s23.28,36.69,59.66,45.37c27.48,6.55,62.42,4.68,100.47,4.68,31.69,0,61.24,3.07,86.1-1.62,44.52-8.41,74-48,74-48s-3,.27-8.48-2.88c-11.66-6.66-34.66-23-64.53-32.51-25.08-8-55-9.76-87.13-9.76-39,0-72.48,2.51-100.26,12.81C36.36,49.62,16.31,65.61,7.07,70.83,2.48,73.43,0,72.78,0,72.78Z"/><g class="cls-4"><rect class="cls-5" x="145.33" y="11.37" width="4.01" height="120.48"/><rect class="cls-5" x="145.33" y="11.37" width="4.01" height="120.48"/><rect class="cls-5" x="40.92" y="11.37" width="4.02" height="120.48"/><rect class="cls-6" x="129.48" y="11.6" width="3.58" height="3.57"/><path class="cls-5" d="M129.7,11.82h3.12V15H129.7V11.82m-.44-.45v4h4v-4Z"/><rect class="cls-6" x="129.48" y="15.61" width="3.58" height="3.57"/><path class="cls-5" d="M129.7,15.84h3.12V19H129.7V15.84m-.44-.44v4h4v-4Z"/><rect class="cls-6" x="129.48" y="19.63" width="3.58" height="3.57"/><path class="cls-5" d="M129.7,19.86h3.12V23H129.7V19.86m-.44-.45v4h4v-4Z"/><rect class="cls-6" x="129.48" y="23.65" width="3.58" height="3.57"/><path class="cls-5" d="M129.7,23.87h3.12V27H129.7V23.87m-.44-.45v4h4v-4Z"/><rect class="cls-6" x="129.48" y="27.67" width="3.58" height="3.56"/><path class="cls-5" d="M129.7,27.89h3.12V31H129.7V27.89m-.44-.45v4h4v-4Z"/><rect class="cls-6" x="129.48" y="31.68" width="3.58" height="3.57"/><path class="cls-5" d="M129.7,31.9h3.12V35H129.7V31.9m-.44-.45v4h4v-4Z"/><rect class="cls-6" x="129.48" y="35.7" width="3.58" height="3.57"/><path class="cls-5" d="M129.7,35.92h3.12V39H129.7V35.92m-.44-.44v4h4v-4Z"/><rect class="cls-6" x="129.48" y="39.71" width="3.58" height="3.57"/><path class="cls-5" d="M129.7,39.94h3.12v3.13H129.7V39.94m-.44-.45v4h4v-4Z"/><rect class="cls-6" x="129.48" y="47.74" width="3.58" height="3.57"/><path class="cls-5" d="M129.7,48h3.12v3.12H129.7V48m-.44-.45v4h4v-4Z"/><rect class="cls-6" x="129.48" y="43.73" width="3.58" height="3.57"/><path class="cls-5" d="M129.7,43.95h3.12v3.13H129.7V43.95m-.44-.44v4h4v-4Z"/><rect class="cls-6" x="129.48" y="51.76" width="3.58" height="3.57"/><path class="cls-5" d="M129.7,52h3.12v3.13H129.7V52m-.44-.45v4h4v-4Z"/><rect class="cls-6" x="129.48" y="55.77" width="3.58" height="3.57"/><path class="cls-5" d="M129.7,56h3.12v3.12H129.7V56m-.44-.44v4h4v-4Z"/><rect class="cls-6" x="129.48" y="59.79" width="3.58" height="3.57"/><path class="cls-5" d="M129.7,60h3.12v3.13H129.7V60m-.44-.45v4h4v-4Z"/><rect class="cls-6" x="129.48" y="63.81" width="3.58" height="3.57"/><path class="cls-5" d="M129.7,64h3.12v3.12H129.7V64m-.44-.44v4h4v-4Z"/><rect class="cls-6" x="129.48" y="67.82" width="3.58" height="3.57"/><path class="cls-5" d="M129.7,68h3.12v3.12H129.7V68m-.44-.45v4h4v-4Z"/><rect class="cls-6" x="129.48" y="71.84" width="3.58" height="3.57"/><path class="cls-5" d="M129.7,72.06h3.12v3.12H129.7V72.06m-.44-.44v4h4v-4Z"/><rect class="cls-6" x="129.48" y="75.85" width="3.58" height="3.57"/><path class="cls-5" d="M129.7,76.08h3.12V79.2H129.7V76.08m-.44-.45v4h4v-4Z"/><rect class="cls-6" x="129.48" y="79.87" width="3.58" height="3.57"/><path class="cls-5" d="M129.7,80.09h3.12v3.13H129.7V80.09m-.44-.44v4h4v-4Z"/><rect class="cls-6" x="129.48" y="87.9" width="3.58" height="3.57"/><path class="cls-5" d="M129.7,88.12h3.12v3.13H129.7V88.12m-.44-.44v4h4v-4Z"/><rect class="cls-6" x="129.48" y="83.89" width="3.58" height="3.57"/><path class="cls-5" d="M129.7,84.11h3.12v3.12H129.7V84.11m-.44-.44v4h4v-4Z"/><rect class="cls-6" x="129.48" y="91.91" width="3.58" height="3.57"/><path class="cls-5" d="M129.7,92.14h3.12v3.12H129.7V92.14m-.44-.45v4h4v-4Z"/><rect class="cls-6" x="129.48" y="95.93" width="3.58" height="3.57"/><path class="cls-5" d="M129.7,96.15h3.12v3.12H129.7V96.15m-.44-.45v4h4v-4Z"/><rect class="cls-6" x="129.48" y="99.95" width="3.58" height="3.56"/><path class="cls-5" d="M129.7,100.17h3.12v3.12H129.7v-3.12m-.44-.44v4h4v-4Z"/><rect class="cls-6" x="129.48" y="103.96" width="3.58" height="3.57"/><path class="cls-5" d="M129.7,104.18h3.12v3.13H129.7v-3.13m-.44-.44v4h4v-4Z"/><rect class="cls-6" x="129.48" y="107.98" width="3.58" height="3.57"/><path class="cls-5" d="M129.7,108.2h3.12v3.13H129.7V108.2m-.44-.44v4h4v-4Z"/><rect class="cls-6" x="129.48" y="112" width="3.58" height="3.57"/><path class="cls-5" d="M129.7,112.22h3.12v3.12H129.7v-3.12m-.44-.45v4h4v-4Z"/><rect class="cls-6" x="129.48" y="116.01" width="3.58" height="3.57"/><path class="cls-5" d="M129.7,116.23h3.12v3.12H129.7v-3.12m-.44-.44v4h4v-4Z"/><rect class="cls-6" x="129.48" y="120.03" width="3.58" height="3.57"/><path class="cls-5" d="M129.7,120.25h3.12v3.12H129.7v-3.12m-.44-.44v4h4v-4Z"/><rect class="cls-6" x="129.48" y="128.06" width="3.58" height="3.56"/><path class="cls-5" d="M129.7,128.28h3.12v3.12H129.7v-3.12m-.44-.45v4h4v-4Z"/><rect class="cls-6" x="125.47" y="15.61" width="3.57" height="3.57"/><path class="cls-5" d="M125.69,15.84h3.11V19h-3.11V15.84m-.45-.44v4h4v-4Z"/><rect class="cls-6" x="125.47" y="19.63" width="3.57" height="3.57"/><path class="cls-5" d="M125.69,19.86h3.11V23h-3.11V19.86m-.45-.45v4h4v-4Z"/><rect class="cls-6" x="125.47" y="23.65" width="3.57" height="3.57"/><path class="cls-5" d="M125.69,23.87h3.11V27h-3.11V23.87m-.45-.45v4h4v-4Z"/><rect class="cls-6" x="125.47" y="31.68" width="3.57" height="3.57"/><path class="cls-5" d="M125.69,31.9h3.11V35h-3.11V31.9m-.45-.45v4h4v-4Z"/><rect class="cls-6" x="125.47" y="35.7" width="3.57" height="3.57"/><path class="cls-5" d="M125.69,35.92h3.11V39h-3.11V35.92m-.45-.44v4h4v-4Z"/><rect class="cls-6" x="125.47" y="39.71" width="3.57" height="3.57"/><path class="cls-5" d="M125.69,39.94h3.11v3.13h-3.11V39.94m-.45-.45v4h4v-4Z"/><rect class="cls-6" x="125.47" y="47.74" width="3.57" height="3.57"/><path class="cls-5" d="M125.69,48h3.11v3.12h-3.11V48m-.45-.45v4h4v-4Z"/><rect class="cls-6" x="125.47" y="51.76" width="3.57" height="3.57"/><path class="cls-5" d="M125.69,52h3.11v3.13h-3.11V52m-.45-.45v4h4v-4Z"/><rect class="cls-6" x="125.47" y="55.77" width="3.57" height="3.57"/><path class="cls-5" d="M125.69,56h3.11v3.12h-3.11V56m-.45-.44v4h4v-4Z"/><rect class="cls-6" x="125.47" y="63.81" width="3.57" height="3.57"/><path class="cls-5" d="M125.69,64h3.11v3.12h-3.11V64m-.45-.44v4h4v-4Z"/><rect class="cls-6" x="125.47" y="67.82" width="3.57" height="3.57"/><path class="cls-5" d="M125.69,68h3.11v3.12h-3.11V68m-.45-.45v4h4v-4Z"/><rect class="cls-6" x="125.47" y="71.84" width="3.57" height="3.57"/><path class="cls-5" d="M125.69,72.06h3.11v3.12h-3.11V72.06m-.45-.44v4h4v-4Z"/><rect class="cls-6" x="125.47" y="79.87" width="3.57" height="3.57"/><path class="cls-5" d="M125.69,80.09h3.11v3.13h-3.11V80.09m-.45-.44v4h4v-4Z"/><rect class="cls-6" x="125.47" y="87.9" width="3.57" height="3.57"/><path class="cls-5" d="M125.69,88.12h3.11v3.13h-3.11V88.12m-.45-.44v4h4v-4Z"/><rect class="cls-6" x="125.47" y="83.89" width="3.57" height="3.57"/><path class="cls-5" d="M125.69,84.11h3.11v3.12h-3.11V84.11m-.45-.44v4h4v-4Z"/><rect class="cls-6" x="125.47" y="95.93" width="3.57" height="3.57"/><path class="cls-5" d="M125.69,96.15h3.11v3.12h-3.11V96.15m-.45-.45v4h4v-4Z"/><rect class="cls-6" x="125.47" y="99.95" width="3.57" height="3.56"/><path class="cls-5" d="M125.69,100.17h3.11v3.12h-3.11v-3.12m-.45-.44v4h4v-4Z"/><rect class="cls-6" x="125.47" y="103.96" width="3.57" height="3.57"/><path class="cls-5" d="M125.69,104.18h3.11v3.13h-3.11v-3.13m-.45-.44v4h4v-4Z"/><rect class="cls-6" x="125.47" y="112" width="3.57" height="3.57"/><path class="cls-5" d="M125.69,112.22h3.11v3.12h-3.11v-3.12m-.45-.45v4h4v-4Z"/><rect class="cls-6" x="125.47" y="116.01" width="3.57" height="3.57"/><path class="cls-5" d="M125.69,116.23h3.11v3.12h-3.11v-3.12m-.45-.44v4h4v-4Z"/><rect class="cls-6" x="121.46" y="19.63" width="3.56" height="3.57"/><path class="cls-5" d="M121.68,19.86h3.12V23h-3.12V19.86m-.45-.45v4h4v-4Z"/><rect class="cls-6" x="121.46" y="35.7" width="3.56" height="3.57"/><path class="cls-5" d="M121.68,35.92h3.12V39h-3.12V35.92m-.45-.44v4h4v-4Z"/><rect class="cls-6" x="121.46" y="51.76" width="3.56" height="3.57"/><path class="cls-5" d="M121.68,52h3.12v3.13h-3.12V52m-.45-.45v4h4v-4Z"/><rect class="cls-6" x="121.46" y="67.82" width="3.56" height="3.57"/><path class="cls-5" d="M121.68,68h3.12v3.12h-3.12V68m-.45-.45v4h4v-4Z"/><rect class="cls-6" x="121.46" y="83.89" width="3.56" height="3.57"/><path class="cls-5" d="M121.68,84.11h3.12v3.12h-3.12V84.11m-.45-.44v4h4v-4Z"/><rect class="cls-6" x="121.46" y="99.95" width="3.56" height="3.56"/><path class="cls-5" d="M121.68,100.17h3.12v3.12h-3.12v-3.12m-.45-.44v4h4v-4Z"/><rect class="cls-6" x="121.46" y="116.01" width="3.56" height="3.57"/><path class="cls-5" d="M121.68,116.23h3.12v3.12h-3.12v-3.12m-.45-.44v4h4v-4Z"/><rect class="cls-6" x="125.47" y="120.03" width="3.57" height="3.57"/><path class="cls-5" d="M125.69,120.25h3.11v3.12h-3.11v-3.12m-.45-.44v4h4v-4Z"/><rect class="cls-6" x="125.47" y="128.06" width="3.57" height="3.56"/><path class="cls-5" d="M125.69,128.28h3.11v3.12h-3.11v-3.12m-.45-.45v4h4v-4Z"/><rect class="cls-6" x="129.48" y="124.04" width="3.58" height="3.57"/><path class="cls-5" d="M129.7,124.26h3.12v3.13H129.7v-3.13m-.44-.45v4h4v-4Z"/><rect class="cls-6" x="137.29" y="27.44" width="4.02" height="4.02"/><rect class="cls-6" x="137.29" y="35.48" width="4.02" height="4.01"/><rect class="cls-6" x="137.29" y="43.5" width="4.02" height="4.02"/><rect class="cls-6" x="137.29" y="51.53" width="4.02" height="4.02"/><rect class="cls-6" x="137.29" y="59.56" width="4.02" height="4.02"/><rect class="cls-6" x="137.29" y="67.6" width="4.02" height="4.02"/><rect class="cls-6" x="137.29" y="75.63" width="4.02" height="4.02"/><rect class="cls-6" x="137.29" y="83.66" width="4.02" height="4.01"/><rect class="cls-6" x="137.29" y="91.69" width="4.02" height="4.01"/><rect class="cls-6" x="137.29" y="99.73" width="4.02" height="4.01"/><rect class="cls-6" x="137.56" y="11.65" width="3.47" height="3.48"/><path class="cls-5" d="M137.83,11.91h2.94v2.95h-2.94V11.91m-.54-.54v4h4v-4Z"/><rect class="cls-6" x="137.56" y="15.66" width="3.47" height="3.48"/><path class="cls-5" d="M137.83,15.93h2.94v2.95h-2.94V15.93m-.54-.53v4h4v-4Z"/><rect class="cls-6" x="137.56" y="19.68" width="3.47" height="3.48"/><path class="cls-5" d="M137.83,19.95h2.94v2.94h-2.94V19.95m-.54-.54v4h4v-4Z"/><rect class="cls-6" x="137.56" y="23.69" width="3.47" height="3.48"/><path class="cls-5" d="M137.83,24h2.94v3h-2.94V24m-.54-.54v4h4v-4Z"/><rect class="cls-6" x="137.56" y="27.71" width="3.47" height="3.47"/><path class="cls-5" d="M137.83,28h2.94v2.94h-2.94V28m-.54-.54v4h4v-4Z"/><rect class="cls-6" x="137.56" y="31.72" width="3.47" height="3.48"/><path class="cls-5" d="M137.83,32h2.94v2.95h-2.94V32m-.54-.53v4h4v-4Z"/><rect class="cls-6" x="137.56" y="35.74" width="3.47" height="3.48"/><path class="cls-5" d="M137.83,36h2.94V39h-2.94V36m-.54-.53v4h4v-4Z"/><rect class="cls-6" x="137.56" y="39.76" width="3.47" height="3.48"/><path class="cls-5" d="M137.83,40h2.94V43h-2.94V40m-.54-.54v4h4v-4Z"/><rect class="cls-6" x="137.56" y="47.79" width="3.47" height="3.48"/><path class="cls-5" d="M137.83,48.06h2.94V51h-2.94V48.06m-.54-.54v4h4v-4Z"/><rect class="cls-6" x="137.56" y="43.77" width="3.47" height="3.48"/><path class="cls-5" d="M137.83,44h2.94V47h-2.94V44m-.54-.53v4h4v-4Z"/><rect class="cls-6" x="137.56" y="51.8" width="3.47" height="3.48"/><path class="cls-5" d="M137.83,52.07h2.94V55h-2.94V52.07m-.54-.54v4h4v-4Z"/><rect class="cls-6" x="137.56" y="55.82" width="3.47" height="3.48"/><path class="cls-5" d="M137.83,56.08h2.94V59h-2.94V56.08m-.54-.53v4h4v-4Z"/><rect class="cls-6" x="137.56" y="59.83" width="3.47" height="3.48"/><path class="cls-5" d="M137.83,60.1h2.94v3h-2.94v-3m-.54-.53v4h4v-4Z"/><rect class="cls-6" x="137.56" y="63.85" width="3.47" height="3.48"/><path class="cls-5" d="M137.83,64.12h2.94v2.94h-2.94V64.12m-.54-.53v4h4v-4Z"/><rect class="cls-6" x="137.56" y="67.87" width="3.47" height="3.48"/><path class="cls-5" d="M137.83,68.13h2.94v3h-2.94v-3m-.54-.54v4h4v-4Z"/><rect class="cls-6" x="137.56" y="71.88" width="3.47" height="3.48"/><path class="cls-5" d="M137.83,72.15h2.94V75.1h-2.94V72.15m-.54-.53v4h4v-4Z"/><rect class="cls-6" x="137.56" y="75.9" width="3.47" height="3.48"/><path class="cls-5" d="M137.83,76.17h2.94v2.95h-2.94V76.17m-.54-.54v4h4v-4Z"/><rect class="cls-6" x="137.56" y="79.91" width="3.47" height="3.48"/><path class="cls-5" d="M137.83,80.18h2.94v2.95h-2.94V80.18m-.54-.53v4h4v-4Z"/><rect class="cls-6" x="137.56" y="87.94" width="3.47" height="3.48"/><path class="cls-5" d="M137.83,88.21h2.94v2.94h-2.94V88.21m-.54-.53v4h4v-4Z"/><rect class="cls-6" x="137.56" y="83.93" width="3.47" height="3.48"/><path class="cls-5" d="M137.83,84.2h2.94v2.95h-2.94V84.2m-.54-.53v4h4v-4Z"/><rect class="cls-6" x="137.56" y="91.96" width="3.47" height="3.48"/><path class="cls-5" d="M137.83,92.22h2.94v2.95h-2.94V92.22m-.54-.53v4h4v-4Z"/><rect class="cls-6" x="137.56" y="95.97" width="3.47" height="3.48"/><path class="cls-5" d="M137.83,96.24h2.94v2.95h-2.94V96.24m-.54-.54v4h4v-4Z"/><rect class="cls-6" x="137.56" y="99.99" width="3.47" height="3.48"/><path class="cls-5" d="M137.83,100.26h2.94v2.94h-2.94v-2.94m-.54-.53v4h4v-4Z"/><rect class="cls-6" x="137.56" y="104.01" width="3.47" height="3.48"/><path class="cls-5" d="M137.83,104.27h2.94v3h-2.94v-3m-.54-.53v4h4v-4Z"/><rect class="cls-6" x="137.56" y="108.02" width="3.47" height="3.48"/><path class="cls-5" d="M137.83,108.29h2.94v2.95h-2.94v-2.95m-.54-.53v4h4v-4Z"/><rect class="cls-6" x="137.56" y="112.04" width="3.47" height="3.48"/><path class="cls-5" d="M137.83,112.31h2.94v2.94h-2.94v-2.94m-.54-.54v4h4v-4Z"/><rect class="cls-6" x="137.56" y="116.06" width="3.47" height="3.48"/><path class="cls-5" d="M137.83,116.32h2.94v2.95h-2.94v-2.95m-.54-.53v4h4v-4Z"/><rect class="cls-6" x="137.56" y="120.07" width="3.47" height="3.48"/><path class="cls-5" d="M137.83,120.34h2.94v2.94h-2.94v-2.94m-.54-.53v4h4v-4Z"/><rect class="cls-6" x="137.56" y="128.1" width="3.47" height="3.48"/><path class="cls-5" d="M137.83,128.37h2.94v2.95h-2.94v-2.95m-.54-.53v4h4v-4Z"/><rect class="cls-6" x="137.56" y="124.09" width="3.47" height="3.47"/><path class="cls-5" d="M137.83,124.35h2.94v2.95h-2.94v-2.95m-.54-.53v4h4v-4Z"/><rect class="cls-6" x="109.18" y="27.44" width="4.02" height="4.02"/><rect class="cls-6" x="109.18" y="35.48" width="4.02" height="4.01"/><rect class="cls-6" x="109.18" y="43.5" width="4.02" height="4.02"/><rect class="cls-6" x="109.18" y="51.53" width="4.02" height="4.02"/><rect class="cls-6" x="109.18" y="59.56" width="4.02" height="4.02"/><rect class="cls-6" x="109.18" y="67.6" width="4.02" height="4.02"/><rect class="cls-6" x="109.18" y="75.63" width="4.02" height="4.02"/><rect class="cls-6" x="109.18" y="83.66" width="4.02" height="4.01"/><rect class="cls-6" x="109.18" y="91.69" width="4.02" height="4.01"/><rect class="cls-6" x="109.18" y="99.73" width="4.02" height="4.01"/><rect class="cls-6" x="109.45" y="11.65" width="3.48" height="3.48"/><path class="cls-5" d="M109.72,11.91h2.94v2.95h-2.94V11.91m-.54-.54v4h4v-4Z"/><rect class="cls-6" x="109.45" y="15.66" width="3.48" height="3.48"/><path class="cls-5" d="M109.72,15.93h2.94v2.95h-2.94V15.93m-.54-.53v4h4v-4Z"/><rect class="cls-6" x="109.45" y="19.68" width="3.48" height="3.48"/><path class="cls-5" d="M109.72,19.95h2.94v2.94h-2.94V19.95m-.54-.54v4h4v-4Z"/><rect class="cls-6" x="109.45" y="23.69" width="3.48" height="3.48"/><path class="cls-5" d="M109.72,24h2.94v3h-2.94V24m-.54-.54v4h4v-4Z"/><rect class="cls-6" x="109.45" y="27.71" width="3.48" height="3.47"/><path class="cls-5" d="M109.72,28h2.94v2.94h-2.94V28m-.54-.54v4h4v-4Z"/><rect class="cls-6" x="109.45" y="31.72" width="3.48" height="3.48"/><path class="cls-5" d="M109.72,32h2.94v2.95h-2.94V32m-.54-.53v4h4v-4Z"/><rect class="cls-6" x="109.45" y="35.74" width="3.48" height="3.48"/><path class="cls-5" d="M109.72,36h2.94V39h-2.94V36m-.54-.53v4h4v-4Z"/><rect class="cls-6" x="109.45" y="39.76" width="3.48" height="3.48"/><path class="cls-5" d="M109.72,40h2.94V43h-2.94V40m-.54-.54v4h4v-4Z"/><rect class="cls-6" x="109.45" y="47.79" width="3.48" height="3.48"/><path class="cls-5" d="M109.72,48.06h2.94V51h-2.94V48.06m-.54-.54v4h4v-4Z"/><rect class="cls-6" x="109.45" y="43.77" width="3.48" height="3.48"/><path class="cls-5" d="M109.72,44h2.94V47h-2.94V44m-.54-.53v4h4v-4Z"/><rect class="cls-6" x="109.45" y="51.8" width="3.48" height="3.48"/><path class="cls-5" d="M109.72,52.07h2.94V55h-2.94V52.07m-.54-.54v4h4v-4Z"/><rect class="cls-6" x="109.45" y="55.82" width="3.48" height="3.48"/><path class="cls-5" d="M109.72,56.08h2.94V59h-2.94V56.08m-.54-.53v4h4v-4Z"/><rect class="cls-6" x="109.45" y="59.83" width="3.48" height="3.48"/><path class="cls-5" d="M109.72,60.1h2.94v3h-2.94v-3m-.54-.53v4h4v-4Z"/><rect class="cls-6" x="109.45" y="63.85" width="3.48" height="3.48"/><path class="cls-5" d="M109.72,64.12h2.94v2.94h-2.94V64.12m-.54-.53v4h4v-4Z"/><rect class="cls-6" x="109.45" y="67.87" width="3.48" height="3.48"/><path class="cls-5" d="M109.72,68.13h2.94v3h-2.94v-3m-.54-.54v4h4v-4Z"/><rect class="cls-6" x="109.45" y="71.88" width="3.48" height="3.48"/><path class="cls-5" d="M109.72,72.15h2.94V75.1h-2.94V72.15m-.54-.53v4h4v-4Z"/><rect class="cls-6" x="109.45" y="75.9" width="3.48" height="3.48"/><path class="cls-5" d="M109.72,76.17h2.94v2.95h-2.94V76.17m-.54-.54v4h4v-4Z"/><rect class="cls-6" x="109.45" y="79.91" width="3.48" height="3.48"/><path class="cls-5" d="M109.72,80.18h2.94v2.95h-2.94V80.18m-.54-.53v4h4v-4Z"/><rect class="cls-6" x="109.45" y="87.94" width="3.48" height="3.48"/><path class="cls-5" d="M109.72,88.21h2.94v2.94h-2.94V88.21m-.54-.53v4h4v-4Z"/><rect class="cls-6" x="109.45" y="83.93" width="3.48" height="3.48"/><path class="cls-5" d="M109.72,84.2h2.94v2.95h-2.94V84.2m-.54-.53v4h4v-4Z"/><rect class="cls-6" x="109.45" y="91.96" width="3.48" height="3.48"/><path class="cls-5" d="M109.72,92.22h2.94v2.95h-2.94V92.22m-.54-.53v4h4v-4Z"/><rect class="cls-6" x="109.45" y="95.97" width="3.48" height="3.48"/><path class="cls-5" d="M109.72,96.24h2.94v2.95h-2.94V96.24m-.54-.54v4h4v-4Z"/><rect class="cls-6" x="109.45" y="99.99" width="3.48" height="3.48"/><path class="cls-5" d="M109.72,100.26h2.94v2.94h-2.94v-2.94m-.54-.53v4h4v-4Z"/><rect class="cls-6" x="109.45" y="104.01" width="3.48" height="3.48"/><path class="cls-5" d="M109.72,104.27h2.94v3h-2.94v-3m-.54-.53v4h4v-4Z"/><rect class="cls-6" x="109.45" y="108.02" width="3.48" height="3.48"/><path class="cls-5" d="M109.72,108.29h2.94v2.95h-2.94v-2.95m-.54-.53v4h4v-4Z"/><rect class="cls-6" x="109.45" y="112.04" width="3.48" height="3.48"/><path class="cls-5" d="M109.72,112.31h2.94v2.94h-2.94v-2.94m-.54-.54v4h4v-4Z"/><rect class="cls-6" x="109.45" y="116.06" width="3.48" height="3.48"/><path class="cls-5" d="M109.72,116.32h2.94v2.95h-2.94v-2.95m-.54-.53v4h4v-4Z"/><rect class="cls-6" x="109.45" y="120.07" width="3.48" height="3.48"/><path class="cls-5" d="M109.72,120.34h2.94v2.94h-2.94v-2.94m-.54-.53v4h4v-4Z"/><rect class="cls-6" x="109.45" y="128.1" width="3.48" height="3.48"/><path class="cls-5" d="M109.72,128.37h2.94v2.95h-2.94v-2.95m-.54-.53v4h4v-4Z"/><rect class="cls-6" x="109.45" y="124.09" width="3.48" height="3.47"/><path class="cls-5" d="M109.72,124.35h2.94v2.95h-2.94v-2.95m-.54-.53v4h4v-4Z"/><rect class="cls-6" x="69.02" y="27.44" width="4.02" height="4.02"/><rect class="cls-6" x="69.02" y="35.48" width="4.02" height="4.01"/><rect class="cls-6" x="69.02" y="43.5" width="4.02" height="4.02"/><rect class="cls-6" x="69.02" y="51.53" width="4.02" height="4.02"/><rect class="cls-6" x="69.02" y="59.56" width="4.02" height="4.02"/><rect class="cls-6" x="69.02" y="67.6" width="4.02" height="4.02"/><rect class="cls-6" x="69.02" y="75.63" width="4.02" height="4.02"/><rect class="cls-6" x="69.02" y="83.66" width="4.02" height="4.01"/><rect class="cls-6" x="69.02" y="91.69" width="4.02" height="4.01"/><rect class="cls-6" x="69.02" y="99.73" width="4.02" height="4.01"/><rect class="cls-6" x="69.29" y="11.65" width="3.48" height="3.48"/><path class="cls-5" d="M69.56,11.91h2.95v2.95H69.56V11.91M69,11.37v4h4v-4Z"/><rect class="cls-6" x="69.29" y="15.66" width="3.48" height="3.48"/><path class="cls-5" d="M69.56,15.93h2.95v2.95H69.56V15.93M69,15.39v4h4v-4Z"/><rect class="cls-6" x="69.29" y="19.68" width="3.48" height="3.48"/><path class="cls-5" d="M69.56,19.95h2.95v2.94H69.56V19.95M69,19.41v4h4v-4Z"/><rect class="cls-6" x="69.29" y="23.69" width="3.48" height="3.48"/><path class="cls-5" d="M69.56,24h2.95v3H69.56V24M69,23.42v4h4v-4Z"/><rect class="cls-6" x="69.29" y="27.71" width="3.48" height="3.47"/><path class="cls-5" d="M69.56,28h2.95v2.94H69.56V28M69,27.44v4h4v-4Z"/><rect class="cls-6" x="69.29" y="31.72" width="3.48" height="3.48"/><path class="cls-5" d="M69.56,32h2.95v2.95H69.56V32M69,31.46v4h4v-4Z"/><rect class="cls-6" x="69.29" y="35.74" width="3.48" height="3.48"/><path class="cls-5" d="M69.56,36h2.95V39H69.56V36M69,35.48v4h4v-4Z"/><rect class="cls-6" x="69.29" y="39.76" width="3.48" height="3.48"/><path class="cls-5" d="M69.56,40h2.95V43H69.56V40M69,39.49v4h4v-4Z"/><rect class="cls-6" x="69.29" y="47.79" width="3.48" height="3.48"/><path class="cls-5" d="M69.56,48.06h2.95V51H69.56V48.06M69,47.52v4h4v-4Z"/><rect class="cls-6" x="69.29" y="43.77" width="3.48" height="3.48"/><path class="cls-5" d="M69.56,44h2.95V47H69.56V44M69,43.5v4h4v-4Z"/><rect class="cls-6" x="69.29" y="51.8" width="3.48" height="3.48"/><path class="cls-5" d="M69.56,52.07h2.95V55H69.56V52.07M69,51.53v4h4v-4Z"/><rect class="cls-6" x="69.29" y="55.82" width="3.48" height="3.48"/><path class="cls-5" d="M69.56,56.08h2.95V59H69.56V56.08M69,55.55v4h4v-4Z"/><rect class="cls-6" x="69.29" y="59.83" width="3.48" height="3.48"/><path class="cls-5" d="M69.56,60.1h2.95v3H69.56v-3M69,59.56v4h4v-4Z"/><rect class="cls-6" x="69.29" y="63.85" width="3.48" height="3.48"/><path class="cls-5" d="M69.56,64.12h2.95v2.94H69.56V64.12M69,63.59v4h4v-4Z"/><rect class="cls-6" x="69.29" y="67.87" width="3.48" height="3.48"/><path class="cls-5" d="M69.56,68.13h2.95v3H69.56v-3M69,67.6v4h4v-4Z"/><rect class="cls-6" x="69.29" y="71.88" width="3.48" height="3.48"/><path class="cls-5" d="M69.56,72.15h2.95V75.1H69.56V72.15M69,71.62v4h4v-4Z"/><rect class="cls-6" x="69.29" y="75.9" width="3.48" height="3.48"/><path class="cls-5" d="M69.56,76.17h2.95v2.95H69.56V76.17M69,75.63v4h4v-4Z"/><rect class="cls-6" x="69.29" y="79.91" width="3.48" height="3.48"/><path class="cls-5" d="M69.56,80.18h2.95v2.95H69.56V80.18M69,79.64v4h4v-4Z"/><rect class="cls-6" x="69.29" y="87.94" width="3.48" height="3.48"/><path class="cls-5" d="M69.56,88.21h2.95v2.94H69.56V88.21M69,87.68v4h4v-4Z"/><rect class="cls-6" x="69.29" y="83.93" width="3.48" height="3.48"/><path class="cls-5" d="M69.56,84.2h2.95v2.95H69.56V84.2M69,83.66v4h4v-4Z"/><rect class="cls-6" x="69.29" y="91.96" width="3.48" height="3.48"/><path class="cls-5" d="M69.56,92.22h2.95v2.95H69.56V92.22M69,91.69v4h4v-4Z"/><rect class="cls-6" x="69.29" y="95.97" width="3.48" height="3.48"/><path class="cls-5" d="M69.56,96.24h2.95v2.95H69.56V96.24M69,95.7v4h4v-4Z"/><rect class="cls-6" x="69.29" y="99.99" width="3.48" height="3.48"/><path class="cls-5" d="M69.56,100.26h2.95v2.94H69.56v-2.94M69,99.73v4h4v-4Z"/><rect class="cls-6" x="69.29" y="104.01" width="3.48" height="3.48"/><path class="cls-5" d="M69.56,104.27h2.95v3H69.56v-3m-.53-.53v4h4v-4Z"/><rect class="cls-6" x="69.29" y="108.02" width="3.48" height="3.48"/><path class="cls-5" d="M69.56,108.29h2.95v2.95H69.56v-2.95m-.53-.53v4h4v-4Z"/><rect class="cls-6" x="69.29" y="112.04" width="3.48" height="3.48"/><path class="cls-5" d="M69.56,112.31h2.95v2.94H69.56v-2.94m-.53-.54v4h4v-4Z"/><rect class="cls-6" x="69.29" y="116.06" width="3.48" height="3.48"/><path class="cls-5" d="M69.56,116.32h2.95v2.95H69.56v-2.95m-.53-.53v4h4v-4Z"/><rect class="cls-6" x="69.29" y="120.07" width="3.48" height="3.48"/><path class="cls-5" d="M69.56,120.34h2.95v2.94H69.56v-2.94m-.53-.53v4h4v-4Z"/><rect class="cls-6" x="69.29" y="128.1" width="3.48" height="3.48"/><path class="cls-5" d="M69.56,128.37h2.95v2.95H69.56v-2.95m-.53-.53v4h4v-4Z"/><rect class="cls-6" x="69.29" y="124.09" width="3.48" height="3.47"/><path class="cls-5" d="M69.56,124.35h2.95v2.95H69.56v-2.95m-.53-.53v4h4v-4Z"/><rect class="cls-3" x="117.44" y="19.63" width="3.57" height="3.57"/><path class="cls-5" d="M117.66,19.86h3.12V23h-3.12V19.86m-.45-.45v4h4v-4Z"/><rect class="cls-3" x="117.44" y="23.65" width="3.57" height="3.57"/><path class="cls-5" d="M117.66,23.87h3.12V27h-3.12V23.87m-.45-.45v4h4v-4Z"/><rect class="cls-3" x="117.44" y="27.67" width="3.57" height="3.56"/><path class="cls-5" d="M117.66,27.89h3.12V31h-3.12V27.89m-.45-.45v4h4v-4Z"/><rect class="cls-3" x="117.44" y="31.68" width="3.57" height="3.57"/><path class="cls-5" d="M117.66,31.9h3.12V35h-3.12V31.9m-.45-.45v4h4v-4Z"/><rect class="cls-3" x="117.44" y="35.7" width="3.57" height="3.57"/><path class="cls-5" d="M117.66,35.92h3.12V39h-3.12V35.92m-.45-.44v4h4v-4Z"/><rect class="cls-3" x="117.44" y="39.71" width="3.57" height="3.57"/><path class="cls-5" d="M117.66,39.94h3.12v3.13h-3.12V39.94m-.45-.45v4h4v-4Z"/><rect class="cls-3" x="117.44" y="43.73" width="3.57" height="3.57"/><path class="cls-5" d="M117.66,43.95h3.12v3.13h-3.12V43.95m-.45-.44v4h4v-4Z"/><rect class="cls-3" x="117.44" y="47.74" width="3.57" height="3.57"/><path class="cls-5" d="M117.66,48h3.12v3.12h-3.12V48m-.45-.45v4h4v-4Z"/><rect class="cls-3" x="117.44" y="55.77" width="3.57" height="3.57"/><path class="cls-5" d="M117.66,56h3.12v3.12h-3.12V56m-.45-.44v4h4v-4Z"/><rect class="cls-3" x="117.44" y="51.76" width="3.57" height="3.57"/><path class="cls-5" d="M117.66,52h3.12v3.13h-3.12V52m-.45-.45v4h4v-4Z"/><rect class="cls-3" x="117.44" y="59.79" width="3.57" height="3.57"/><path class="cls-5" d="M117.66,60h3.12v3.13h-3.12V60m-.45-.45v4h4v-4Z"/><rect class="cls-3" x="117.44" y="63.81" width="3.57" height="3.57"/><path class="cls-5" d="M117.66,64h3.12v3.12h-3.12V64m-.45-.44v4h4v-4Z"/><rect class="cls-3" x="117.44" y="67.82" width="3.57" height="3.57"/><path class="cls-5" d="M117.66,68h3.12v3.12h-3.12V68m-.45-.45v4h4v-4Z"/><rect class="cls-3" x="117.44" y="71.84" width="3.57" height="3.57"/><path class="cls-5" d="M117.66,72.06h3.12v3.12h-3.12V72.06m-.45-.44v4h4v-4Z"/><rect class="cls-3" x="117.44" y="75.85" width="3.57" height="3.57"/><path class="cls-5" d="M117.66,76.08h3.12V79.2h-3.12V76.08m-.45-.45v4h4v-4Z"/><rect class="cls-3" x="117.44" y="79.87" width="3.57" height="3.57"/><path class="cls-5" d="M117.66,80.09h3.12v3.13h-3.12V80.09m-.45-.44v4h4v-4Z"/><rect class="cls-3" x="117.44" y="83.89" width="3.57" height="3.57"/><path class="cls-5" d="M117.66,84.11h3.12v3.12h-3.12V84.11m-.45-.44v4h4v-4Z"/><rect class="cls-3" x="117.44" y="87.9" width="3.57" height="3.57"/><path class="cls-5" d="M117.66,88.12h3.12v3.13h-3.12V88.12m-.45-.44v4h4v-4Z"/><rect class="cls-3" x="117.44" y="95.93" width="3.57" height="3.57"/><path class="cls-5" d="M117.66,96.15h3.12v3.12h-3.12V96.15m-.45-.45v4h4v-4Z"/><rect class="cls-3" x="117.44" y="91.91" width="3.57" height="3.57"/><path class="cls-5" d="M117.66,92.14h3.12v3.12h-3.12V92.14m-.45-.45v4h4v-4Z"/><rect class="cls-3" x="117.44" y="99.95" width="3.57" height="3.56"/><path class="cls-5" d="M117.66,100.17h3.12v3.12h-3.12v-3.12m-.45-.44v4h4v-4Z"/><rect class="cls-3" x="117.44" y="103.96" width="3.57" height="3.57"/><path class="cls-5" d="M117.66,104.18h3.12v3.13h-3.12v-3.13m-.45-.44v4h4v-4Z"/><rect class="cls-3" x="117.44" y="107.98" width="3.57" height="3.57"/><path class="cls-5" d="M117.66,108.2h3.12v3.13h-3.12V108.2m-.45-.44v4h4v-4Z"/><rect class="cls-3" x="117.44" y="112" width="3.57" height="3.57"/><path class="cls-5" d="M117.66,112.22h3.12v3.12h-3.12v-3.12m-.45-.45v4h4v-4Z"/><rect class="cls-3" x="117.44" y="116.01" width="3.57" height="3.57"/><path class="cls-5" d="M117.66,116.23h3.12v3.12h-3.12v-3.12m-.45-.44v4h4v-4Z"/><rect class="cls-3" x="117.44" y="120.03" width="3.57" height="3.57"/><path class="cls-5" d="M117.66,120.25h3.12v3.12h-3.12v-3.12m-.45-.44v4h4v-4Z"/><rect class="cls-3" x="117.44" y="124.04" width="3.57" height="3.57"/><path class="cls-5" d="M117.66,124.26h3.12v3.13h-3.12v-3.13m-.45-.45v4h4v-4Z"/><rect class="cls-3" x="117.44" y="128.06" width="3.57" height="3.56"/><path class="cls-5" d="M117.66,128.28h3.12v3.12h-3.12v-3.12m-.45-.45v4h4v-4Z"/><rect class="cls-3" x="117.44" y="136.09" width="3.57" height="3.57"/><path class="cls-5" d="M117.66,136.31h3.12v3.13h-3.12v-3.13m-.45-.44v4h4v-4Z"/><rect class="cls-3" x="121.46" y="23.65" width="3.56" height="3.57"/><path class="cls-5" d="M121.68,23.87h3.12V27h-3.12V23.87m-.45-.45v4h4v-4Z"/><rect class="cls-3" x="121.46" y="27.67" width="3.56" height="3.56"/><path class="cls-5" d="M121.68,27.89h3.12V31h-3.12V27.89m-.45-.45v4h4v-4Z"/><rect class="cls-3" x="121.46" y="31.68" width="3.56" height="3.57"/><path class="cls-5" d="M121.68,31.9h3.12V35h-3.12V31.9m-.45-.45v4h4v-4Z"/><rect class="cls-3" x="121.46" y="39.71" width="3.56" height="3.57"/><path class="cls-5" d="M121.68,39.94h3.12v3.13h-3.12V39.94m-.45-.45v4h4v-4Z"/><rect class="cls-3" x="121.46" y="43.73" width="3.56" height="3.57"/><path class="cls-5" d="M121.68,43.95h3.12v3.13h-3.12V43.95m-.45-.44v4h4v-4Z"/><rect class="cls-3" x="121.46" y="47.74" width="3.56" height="3.57"/><path class="cls-5" d="M121.68,48h3.12v3.12h-3.12V48m-.45-.45v4h4v-4Z"/><rect class="cls-3" x="121.46" y="55.77" width="3.56" height="3.57"/><path class="cls-5" d="M121.68,56h3.12v3.12h-3.12V56m-.45-.44v4h4v-4Z"/><rect class="cls-3" x="121.46" y="59.79" width="3.56" height="3.57"/><path class="cls-5" d="M121.68,60h3.12v3.13h-3.12V60m-.45-.45v4h4v-4Z"/><rect class="cls-3" x="121.46" y="63.81" width="3.56" height="3.57"/><path class="cls-5" d="M121.68,64h3.12v3.12h-3.12V64m-.45-.44v4h4v-4Z"/><rect class="cls-3" x="121.46" y="71.84" width="3.56" height="3.57"/><path class="cls-5" d="M121.68,72.06h3.12v3.12h-3.12V72.06m-.45-.44v4h4v-4Z"/><rect class="cls-3" x="121.46" y="75.85" width="3.56" height="3.57"/><path class="cls-5" d="M121.68,76.08h3.12V79.2h-3.12V76.08m-.45-.45v4h4v-4Z"/><rect class="cls-3" x="121.46" y="79.87" width="3.56" height="3.57"/><path class="cls-5" d="M121.68,80.09h3.12v3.13h-3.12V80.09m-.45-.44v4h4v-4Z"/><rect class="cls-3" x="121.46" y="87.9" width="3.56" height="3.57"/><path class="cls-5" d="M121.68,88.12h3.12v3.13h-3.12V88.12m-.45-.44v4h4v-4Z"/><rect class="cls-3" x="121.46" y="95.93" width="3.56" height="3.57"/><path class="cls-5" d="M121.68,96.15h3.12v3.12h-3.12V96.15m-.45-.45v4h4v-4Z"/><rect class="cls-3" x="121.46" y="91.91" width="3.56" height="3.57"/><path class="cls-5" d="M121.68,92.14h3.12v3.12h-3.12V92.14m-.45-.45v4h4v-4Z"/><rect class="cls-3" x="121.46" y="103.96" width="3.56" height="3.57"/><path class="cls-5" d="M121.68,104.18h3.12v3.13h-3.12v-3.13m-.45-.44v4h4v-4Z"/><rect class="cls-3" x="121.46" y="107.98" width="3.56" height="3.57"/><path class="cls-5" d="M121.68,108.2h3.12v3.13h-3.12V108.2m-.45-.44v4h4v-4Z"/><rect class="cls-3" x="121.46" y="112" width="3.56" height="3.57"/><path class="cls-5" d="M121.68,112.22h3.12v3.12h-3.12v-3.12m-.45-.45v4h4v-4Z"/><rect class="cls-3" x="121.46" y="120.03" width="3.56" height="3.57"/><path class="cls-5" d="M121.68,120.25h3.12v3.12h-3.12v-3.12m-.45-.44v4h4v-4Z"/><rect class="cls-3" x="121.46" y="124.04" width="3.56" height="3.57"/><path class="cls-5" d="M121.68,124.26h3.12v3.13h-3.12v-3.13m-.45-.45v4h4v-4Z"/><rect class="cls-3" x="125.47" y="27.67" width="3.57" height="3.56"/><path class="cls-5" d="M125.69,27.89h3.11V31h-3.11V27.89m-.45-.45v4h4v-4Z"/><rect class="cls-3" x="125.47" y="43.73" width="3.57" height="3.57"/><path class="cls-5" d="M125.69,43.95h3.11v3.13h-3.11V43.95m-.45-.44v4h4v-4Z"/><rect class="cls-3" x="125.47" y="59.79" width="3.57" height="3.57"/><path class="cls-5" d="M125.69,60h3.11v3.13h-3.11V60m-.45-.45v4h4v-4Z"/><rect class="cls-3" x="125.47" y="75.85" width="3.57" height="3.57"/><path class="cls-5" d="M125.69,76.08h3.11V79.2h-3.11V76.08m-.45-.45v4h4v-4Z"/><rect class="cls-3" x="125.47" y="91.91" width="3.57" height="3.57"/><path class="cls-5" d="M125.69,92.14h3.11v3.12h-3.11V92.14m-.45-.45v4h4v-4Z"/><rect class="cls-3" x="125.47" y="107.98" width="3.57" height="3.57"/><path class="cls-5" d="M125.69,108.2h3.11v3.13h-3.11V108.2m-.45-.44v4h4v-4Z"/><rect class="cls-3" x="125.47" y="124.04" width="3.57" height="3.57"/><path class="cls-5" d="M125.69,124.26h3.11v3.13h-3.11v-3.13m-.45-.45v4h4v-4Z"/><rect class="cls-3" x="121.46" y="128.06" width="3.56" height="3.56"/><path class="cls-5" d="M121.68,128.28h3.12v3.12h-3.12v-3.12m-.45-.45v4h4v-4Z"/><rect class="cls-3" x="121.46" y="136.09" width="3.56" height="3.57"/><path class="cls-5" d="M121.68,136.31h3.12v3.13h-3.12v-3.13m-.45-.44v4h4v-4Z"/><rect class="cls-3" x="117.44" y="132.07" width="3.57" height="3.56"/><path class="cls-5" d="M117.66,132.29h3.12v3.12h-3.12v-3.12m-.45-.44v4h4v-4Z"/><rect class="cls-6" x="49.16" y="11.6" width="3.58" height="3.57"/><path class="cls-5" d="M49.39,11.82h3.12V15H49.39V11.82m-.45-.45v4h4v-4Z"/><rect class="cls-6" x="49.16" y="15.61" width="3.58" height="3.57"/><path class="cls-5" d="M49.39,15.84h3.12V19H49.39V15.84m-.45-.44v4h4v-4Z"/><rect class="cls-6" x="49.16" y="19.63" width="3.58" height="3.57"/><path class="cls-5" d="M49.39,19.86h3.12V23H49.39V19.86m-.45-.45v4h4v-4Z"/><rect class="cls-6" x="49.16" y="23.65" width="3.58" height="3.57"/><path class="cls-5" d="M49.39,23.87h3.12V27H49.39V23.87m-.45-.45v4h4v-4Z"/><rect class="cls-6" x="49.16" y="27.67" width="3.58" height="3.56"/><path class="cls-5" d="M49.39,27.89h3.12V31H49.39V27.89m-.45-.45v4h4v-4Z"/><rect class="cls-6" x="49.16" y="31.68" width="3.58" height="3.57"/><path class="cls-5" d="M49.39,31.9h3.12V35H49.39V31.9m-.45-.45v4h4v-4Z"/><rect class="cls-6" x="49.16" y="35.7" width="3.58" height="3.57"/><path class="cls-5" d="M49.39,35.92h3.12V39H49.39V35.92m-.45-.44v4h4v-4Z"/><rect class="cls-6" x="49.16" y="39.71" width="3.58" height="3.57"/><path class="cls-5" d="M49.39,39.94h3.12v3.13H49.39V39.94m-.45-.45v4h4v-4Z"/><rect class="cls-6" x="49.16" y="47.74" width="3.58" height="3.57"/><path class="cls-5" d="M49.39,48h3.12v3.12H49.39V48m-.45-.45v4h4v-4Z"/><rect class="cls-6" x="49.16" y="43.73" width="3.58" height="3.57"/><path class="cls-5" d="M49.39,43.95h3.12v3.13H49.39V43.95m-.45-.44v4h4v-4Z"/><rect class="cls-6" x="49.16" y="51.76" width="3.58" height="3.57"/><path class="cls-5" d="M49.39,52h3.12v3.13H49.39V52m-.45-.45v4h4v-4Z"/><rect class="cls-6" x="49.16" y="55.77" width="3.58" height="3.57"/><path class="cls-5" d="M49.39,56h3.12v3.12H49.39V56m-.45-.44v4h4v-4Z"/><rect class="cls-6" x="49.16" y="59.79" width="3.58" height="3.57"/><path class="cls-5" d="M49.39,60h3.12v3.13H49.39V60m-.45-.45v4h4v-4Z"/><rect class="cls-6" x="49.16" y="63.81" width="3.58" height="3.57"/><path class="cls-5" d="M49.39,64h3.12v3.12H49.39V64m-.45-.44v4h4v-4Z"/><rect class="cls-6" x="49.16" y="67.82" width="3.58" height="3.57"/><path class="cls-5" d="M49.39,68h3.12v3.12H49.39V68m-.45-.45v4h4v-4Z"/><rect class="cls-6" x="49.16" y="71.84" width="3.58" height="3.57"/><path class="cls-5" d="M49.39,72.06h3.12v3.12H49.39V72.06m-.45-.44v4h4v-4Z"/><rect class="cls-6" x="49.16" y="75.85" width="3.58" height="3.57"/><path class="cls-5" d="M49.39,76.08h3.12V79.2H49.39V76.08m-.45-.45v4h4v-4Z"/><rect class="cls-6" x="49.16" y="79.87" width="3.58" height="3.57"/><path class="cls-5" d="M49.39,80.09h3.12v3.13H49.39V80.09m-.45-.44v4h4v-4Z"/><rect class="cls-6" x="49.16" y="87.9" width="3.58" height="3.57"/><path class="cls-5" d="M49.39,88.12h3.12v3.13H49.39V88.12m-.45-.44v4h4v-4Z"/><rect class="cls-6" x="49.16" y="83.89" width="3.58" height="3.57"/><path class="cls-5" d="M49.39,84.11h3.12v3.12H49.39V84.11m-.45-.44v4h4v-4Z"/><rect class="cls-6" x="49.16" y="91.91" width="3.58" height="3.57"/><path class="cls-5" d="M49.39,92.14h3.12v3.12H49.39V92.14m-.45-.45v4h4v-4Z"/><rect class="cls-6" x="49.16" y="95.93" width="3.58" height="3.57"/><path class="cls-5" d="M49.39,96.15h3.12v3.12H49.39V96.15m-.45-.45v4h4v-4Z"/><rect class="cls-6" x="49.16" y="99.95" width="3.58" height="3.56"/><path class="cls-5" d="M49.39,100.17h3.12v3.12H49.39v-3.12m-.45-.44v4h4v-4Z"/><rect class="cls-6" x="49.16" y="103.96" width="3.58" height="3.57"/><path class="cls-5" d="M49.39,104.18h3.12v3.13H49.39v-3.13m-.45-.44v4h4v-4Z"/><rect class="cls-6" x="49.16" y="107.98" width="3.58" height="3.57"/><path class="cls-5" d="M49.39,108.2h3.12v3.13H49.39V108.2m-.45-.44v4h4v-4Z"/><rect class="cls-6" x="49.16" y="112" width="3.58" height="3.57"/><path class="cls-5" d="M49.39,112.22h3.12v3.12H49.39v-3.12m-.45-.45v4h4v-4Z"/><rect class="cls-6" x="49.16" y="116.01" width="3.58" height="3.57"/><path class="cls-5" d="M49.39,116.23h3.12v3.12H49.39v-3.12m-.45-.44v4h4v-4Z"/><rect class="cls-6" x="49.16" y="120.03" width="3.58" height="3.57"/><path class="cls-5" d="M49.39,120.25h3.12v3.12H49.39v-3.12m-.45-.44v4h4v-4Z"/><rect class="cls-6" x="49.16" y="128.06" width="3.58" height="3.56"/><path class="cls-5" d="M49.39,128.28h3.12v3.12H49.39v-3.12m-.45-.45v4h4v-4Z"/><rect class="cls-6" x="53.19" y="15.61" width="3.57" height="3.57"/><path class="cls-5" d="M53.41,15.84h3.12V19H53.41V15.84M53,15.39v4h4v-4Z"/><rect class="cls-6" x="53.19" y="19.63" width="3.57" height="3.57"/><path class="cls-5" d="M53.41,19.86h3.12V23H53.41V19.86M53,19.41v4h4v-4Z"/><rect class="cls-6" x="53.19" y="23.65" width="3.57" height="3.57"/><path class="cls-5" d="M53.41,23.87h3.12V27H53.41V23.87M53,23.42v4h4v-4Z"/><rect class="cls-6" x="53.19" y="31.68" width="3.57" height="3.57"/><path class="cls-5" d="M53.41,31.9h3.12V35H53.41V31.9M53,31.46v4h4v-4Z"/><rect class="cls-6" x="53.19" y="35.7" width="3.57" height="3.57"/><path class="cls-5" d="M53.41,35.92h3.12V39H53.41V35.92M53,35.48v4h4v-4Z"/><rect class="cls-6" x="53.19" y="39.71" width="3.57" height="3.57"/><path class="cls-5" d="M53.41,39.94h3.12v3.13H53.41V39.94M53,39.49v4h4v-4Z"/><rect class="cls-6" x="53.19" y="47.74" width="3.57" height="3.57"/><path class="cls-5" d="M53.41,48h3.12v3.12H53.41V48M53,47.52v4h4v-4Z"/><rect class="cls-6" x="53.19" y="51.76" width="3.57" height="3.57"/><path class="cls-5" d="M53.41,52h3.12v3.13H53.41V52M53,51.53v4h4v-4Z"/><rect class="cls-6" x="53.19" y="55.77" width="3.57" height="3.57"/><path class="cls-5" d="M53.41,56h3.12v3.12H53.41V56M53,55.55v4h4v-4Z"/><rect class="cls-6" x="53.19" y="63.81" width="3.57" height="3.57"/><path class="cls-5" d="M53.41,64h3.12v3.12H53.41V64M53,63.59v4h4v-4Z"/><rect class="cls-6" x="53.19" y="67.82" width="3.57" height="3.57"/><path class="cls-5" d="M53.41,68h3.12v3.12H53.41V68M53,67.6v4h4v-4Z"/><rect class="cls-6" x="53.19" y="71.84" width="3.57" height="3.57"/><path class="cls-5" d="M53.41,72.06h3.12v3.12H53.41V72.06M53,71.62v4h4v-4Z"/><rect class="cls-6" x="53.19" y="79.87" width="3.57" height="3.57"/><path class="cls-5" d="M53.41,80.09h3.12v3.13H53.41V80.09M53,79.64v4h4v-4Z"/><rect class="cls-6" x="53.19" y="87.9" width="3.57" height="3.57"/><path class="cls-5" d="M53.41,88.12h3.12v3.13H53.41V88.12M53,87.68v4h4v-4Z"/><rect class="cls-6" x="53.19" y="83.89" width="3.57" height="3.57"/><path class="cls-5" d="M53.41,84.11h3.12v3.12H53.41V84.11M53,83.66v4h4v-4Z"/><rect class="cls-6" x="53.19" y="95.93" width="3.57" height="3.57"/><path class="cls-5" d="M53.41,96.15h3.12v3.12H53.41V96.15M53,95.7v4h4v-4Z"/><rect class="cls-6" x="53.19" y="99.95" width="3.57" height="3.56"/><path class="cls-5" d="M53.41,100.17h3.12v3.12H53.41v-3.12M53,99.73v4h4v-4Z"/><rect class="cls-6" x="53.19" y="103.96" width="3.57" height="3.57"/><path class="cls-5" d="M53.41,104.18h3.12v3.13H53.41v-3.13m-.45-.44v4h4v-4Z"/><rect class="cls-6" x="53.19" y="112" width="3.57" height="3.57"/><path class="cls-5" d="M53.41,112.22h3.12v3.12H53.41v-3.12m-.45-.45v4h4v-4Z"/><rect class="cls-6" x="53.19" y="116.01" width="3.57" height="3.57"/><path class="cls-5" d="M53.41,116.23h3.12v3.12H53.41v-3.12m-.45-.44v4h4v-4Z"/><rect class="cls-6" x="57.2" y="19.63" width="3.57" height="3.57"/><path class="cls-5" d="M57.42,19.86h3.12V23H57.42V19.86M57,19.41v4h4v-4Z"/><rect class="cls-6" x="57.2" y="35.7" width="3.57" height="3.57"/><path class="cls-5" d="M57.42,35.92h3.12V39H57.42V35.92M57,35.48v4h4v-4Z"/><rect class="cls-6" x="57.2" y="51.76" width="3.57" height="3.57"/><path class="cls-5" d="M57.42,52h3.12v3.13H57.42V52M57,51.53v4h4v-4Z"/><rect class="cls-6" x="57.2" y="67.82" width="3.57" height="3.57"/><path class="cls-5" d="M57.42,68h3.12v3.12H57.42V68M57,67.6v4h4v-4Z"/><rect class="cls-6" x="57.2" y="83.89" width="3.57" height="3.57"/><path class="cls-5" d="M57.42,84.11h3.12v3.12H57.42V84.11M57,83.66v4h4v-4Z"/><rect class="cls-6" x="57.2" y="99.95" width="3.57" height="3.56"/><path class="cls-5" d="M57.42,100.17h3.12v3.12H57.42v-3.12M57,99.73v4h4v-4Z"/><rect class="cls-6" x="57.2" y="116.01" width="3.57" height="3.57"/><path class="cls-5" d="M57.42,116.23h3.12v3.12H57.42v-3.12m-.44-.44v4h4v-4Z"/><rect class="cls-6" x="53.19" y="120.03" width="3.57" height="3.57"/><path class="cls-5" d="M53.41,120.25h3.12v3.12H53.41v-3.12m-.45-.44v4h4v-4Z"/><rect class="cls-6" x="53.19" y="128.06" width="3.57" height="3.56"/><path class="cls-5" d="M53.41,128.28h3.12v3.12H53.41v-3.12m-.45-.45v4h4v-4Z"/><rect class="cls-6" x="49.16" y="124.04" width="3.58" height="3.57"/><path class="cls-5" d="M49.39,124.26h3.12v3.13H49.39v-3.13m-.45-.45v4h4v-4Z"/><rect class="cls-3" x="61.22" y="19.63" width="3.57" height="3.57"/><path class="cls-5" d="M61.44,19.86h3.12V23H61.44V19.86M61,19.41v4h4v-4Z"/><rect class="cls-3" x="61.22" y="23.65" width="3.57" height="3.57"/><path class="cls-5" d="M61.44,23.87h3.12V27H61.44V23.87M61,23.42v4h4v-4Z"/><rect class="cls-3" x="61.22" y="27.67" width="3.57" height="3.56"/><path class="cls-5" d="M61.44,27.89h3.12V31H61.44V27.89M61,27.44v4h4v-4Z"/><rect class="cls-3" x="61.22" y="31.68" width="3.57" height="3.57"/><path class="cls-5" d="M61.44,31.9h3.12V35H61.44V31.9M61,31.46v4h4v-4Z"/><rect class="cls-3" x="61.22" y="35.7" width="3.57" height="3.57"/><path class="cls-5" d="M61.44,35.92h3.12V39H61.44V35.92M61,35.48v4h4v-4Z"/><rect class="cls-3" x="61.22" y="39.71" width="3.57" height="3.57"/><path class="cls-5" d="M61.44,39.94h3.12v3.13H61.44V39.94M61,39.49v4h4v-4Z"/><rect class="cls-3" x="61.22" y="43.73" width="3.57" height="3.57"/><path class="cls-5" d="M61.44,43.95h3.12v3.13H61.44V43.95M61,43.5v4h4v-4Z"/><rect class="cls-3" x="61.22" y="47.74" width="3.57" height="3.57"/><path class="cls-5" d="M61.44,48h3.12v3.12H61.44V48M61,47.52v4h4v-4Z"/><rect class="cls-3" x="61.22" y="55.77" width="3.57" height="3.57"/><path class="cls-5" d="M61.44,56h3.12v3.12H61.44V56M61,55.55v4h4v-4Z"/><rect class="cls-3" x="61.22" y="51.76" width="3.57" height="3.57"/><path class="cls-5" d="M61.44,52h3.12v3.13H61.44V52M61,51.53v4h4v-4Z"/><rect class="cls-3" x="61.22" y="59.79" width="3.57" height="3.57"/><path class="cls-5" d="M61.44,60h3.12v3.13H61.44V60M61,59.56v4h4v-4Z"/><rect class="cls-3" x="61.22" y="63.81" width="3.57" height="3.57"/><path class="cls-5" d="M61.44,64h3.12v3.12H61.44V64M61,63.59v4h4v-4Z"/><rect class="cls-3" x="61.22" y="67.82" width="3.57" height="3.57"/><path class="cls-5" d="M61.44,68h3.12v3.12H61.44V68M61,67.6v4h4v-4Z"/><rect class="cls-3" x="61.22" y="71.84" width="3.57" height="3.57"/><path class="cls-5" d="M61.44,72.06h3.12v3.12H61.44V72.06M61,71.62v4h4v-4Z"/><rect class="cls-3" x="61.22" y="75.85" width="3.57" height="3.57"/><path class="cls-5" d="M61.44,76.08h3.12V79.2H61.44V76.08M61,75.63v4h4v-4Z"/><rect class="cls-3" x="61.22" y="79.87" width="3.57" height="3.57"/><path class="cls-5" d="M61.44,80.09h3.12v3.13H61.44V80.09M61,79.64v4h4v-4Z"/><rect class="cls-3" x="61.22" y="83.89" width="3.57" height="3.57"/><path class="cls-5" d="M61.44,84.11h3.12v3.12H61.44V84.11M61,83.66v4h4v-4Z"/><rect class="cls-3" x="61.22" y="87.9" width="3.57" height="3.57"/><path class="cls-5" d="M61.44,88.12h3.12v3.13H61.44V88.12M61,87.68v4h4v-4Z"/><rect class="cls-3" x="61.22" y="95.93" width="3.57" height="3.57"/><path class="cls-5" d="M61.44,96.15h3.12v3.12H61.44V96.15M61,95.7v4h4v-4Z"/><rect class="cls-3" x="61.22" y="91.91" width="3.57" height="3.57"/><path class="cls-5" d="M61.44,92.14h3.12v3.12H61.44V92.14M61,91.69v4h4v-4Z"/><rect class="cls-3" x="61.22" y="99.95" width="3.57" height="3.56"/><path class="cls-5" d="M61.44,100.17h3.12v3.12H61.44v-3.12M61,99.73v4h4v-4Z"/><rect class="cls-3" x="61.22" y="103.96" width="3.57" height="3.57"/><path class="cls-5" d="M61.44,104.18h3.12v3.13H61.44v-3.13m-.44-.44v4h4v-4Z"/><rect class="cls-3" x="61.22" y="107.98" width="3.57" height="3.57"/><path class="cls-5" d="M61.44,108.2h3.12v3.13H61.44V108.2m-.44-.44v4h4v-4Z"/><rect class="cls-3" x="61.22" y="112" width="3.57" height="3.57"/><path class="cls-5" d="M61.44,112.22h3.12v3.12H61.44v-3.12m-.44-.45v4h4v-4Z"/><rect class="cls-3" x="61.22" y="116.01" width="3.57" height="3.57"/><path class="cls-5" d="M61.44,116.23h3.12v3.12H61.44v-3.12m-.44-.44v4h4v-4Z"/><rect class="cls-3" x="61.22" y="120.03" width="3.57" height="3.57"/><path class="cls-5" d="M61.44,120.25h3.12v3.12H61.44v-3.12m-.44-.44v4h4v-4Z"/><rect class="cls-3" x="61.22" y="124.04" width="3.57" height="3.57"/><path class="cls-5" d="M61.44,124.26h3.12v3.13H61.44v-3.13m-.44-.45v4h4v-4Z"/><rect class="cls-3" x="61.22" y="128.06" width="3.57" height="3.56"/><path class="cls-5" d="M61.44,128.28h3.12v3.12H61.44v-3.12m-.44-.45v4h4v-4Z"/><rect class="cls-3" x="61.22" y="136.09" width="3.57" height="3.57"/><path class="cls-5" d="M61.44,136.31h3.12v3.13H61.44v-3.13m-.44-.44v4h4v-4Z"/><rect class="cls-3" x="57.2" y="23.65" width="3.57" height="3.57"/><path class="cls-5" d="M57.42,23.87h3.12V27H57.42V23.87M57,23.42v4h4v-4Z"/><rect class="cls-3" x="57.2" y="27.67" width="3.57" height="3.56"/><path class="cls-5" d="M57.42,27.89h3.12V31H57.42V27.89M57,27.44v4h4v-4Z"/><rect class="cls-3" x="57.2" y="31.68" width="3.57" height="3.57"/><path class="cls-5" d="M57.42,31.9h3.12V35H57.42V31.9M57,31.46v4h4v-4Z"/><rect class="cls-3" x="57.2" y="39.71" width="3.57" height="3.57"/><path class="cls-5" d="M57.42,39.94h3.12v3.13H57.42V39.94M57,39.49v4h4v-4Z"/><rect class="cls-3" x="57.2" y="43.73" width="3.57" height="3.57"/><path class="cls-5" d="M57.42,43.95h3.12v3.13H57.42V43.95M57,43.5v4h4v-4Z"/><rect class="cls-3" x="57.2" y="47.74" width="3.57" height="3.57"/><path class="cls-5" d="M57.42,48h3.12v3.12H57.42V48M57,47.52v4h4v-4Z"/><rect class="cls-3" x="57.2" y="55.77" width="3.57" height="3.57"/><path class="cls-5" d="M57.42,56h3.12v3.12H57.42V56M57,55.55v4h4v-4Z"/><rect class="cls-3" x="57.2" y="59.79" width="3.57" height="3.57"/><path class="cls-5" d="M57.42,60h3.12v3.13H57.42V60M57,59.56v4h4v-4Z"/><rect class="cls-3" x="57.2" y="63.81" width="3.57" height="3.57"/><path class="cls-5" d="M57.42,64h3.12v3.12H57.42V64M57,63.59v4h4v-4Z"/><rect class="cls-3" x="57.2" y="71.84" width="3.57" height="3.57"/><path class="cls-5" d="M57.42,72.06h3.12v3.12H57.42V72.06M57,71.62v4h4v-4Z"/><rect class="cls-3" x="57.2" y="75.85" width="3.57" height="3.57"/><path class="cls-5" d="M57.42,76.08h3.12V79.2H57.42V76.08M57,75.63v4h4v-4Z"/><rect class="cls-3" x="57.2" y="79.87" width="3.57" height="3.57"/><path class="cls-5" d="M57.42,80.09h3.12v3.13H57.42V80.09M57,79.64v4h4v-4Z"/><rect class="cls-3" x="57.2" y="87.9" width="3.57" height="3.57"/><path class="cls-5" d="M57.42,88.12h3.12v3.13H57.42V88.12M57,87.68v4h4v-4Z"/><rect class="cls-3" x="57.2" y="95.93" width="3.57" height="3.57"/><path class="cls-5" d="M57.42,96.15h3.12v3.12H57.42V96.15M57,95.7v4h4v-4Z"/><rect class="cls-3" x="57.2" y="91.91" width="3.57" height="3.57"/><path class="cls-5" d="M57.42,92.14h3.12v3.12H57.42V92.14M57,91.69v4h4v-4Z"/><rect class="cls-3" x="57.2" y="103.96" width="3.57" height="3.57"/><path class="cls-5" d="M57.42,104.18h3.12v3.13H57.42v-3.13m-.44-.44v4h4v-4Z"/><rect class="cls-3" x="57.2" y="107.98" width="3.57" height="3.57"/><path class="cls-5" d="M57.42,108.2h3.12v3.13H57.42V108.2m-.44-.44v4h4v-4Z"/><rect class="cls-3" x="57.2" y="112" width="3.57" height="3.57"/><path class="cls-5" d="M57.42,112.22h3.12v3.12H57.42v-3.12m-.44-.45v4h4v-4Z"/><rect class="cls-3" x="57.2" y="120.03" width="3.57" height="3.57"/><path class="cls-5" d="M57.42,120.25h3.12v3.12H57.42v-3.12m-.44-.44v4h4v-4Z"/><rect class="cls-3" x="57.2" y="124.04" width="3.57" height="3.57"/><path class="cls-5" d="M57.42,124.26h3.12v3.13H57.42v-3.13m-.44-.45v4h4v-4Z"/><rect class="cls-3" x="53.19" y="27.67" width="3.57" height="3.56"/><path class="cls-5" d="M53.41,27.89h3.12V31H53.41V27.89M53,27.44v4h4v-4Z"/><rect class="cls-3" x="53.19" y="43.73" width="3.57" height="3.57"/><path class="cls-5" d="M53.41,43.95h3.12v3.13H53.41V43.95M53,43.5v4h4v-4Z"/><rect class="cls-3" x="53.19" y="59.79" width="3.57" height="3.57"/><path class="cls-5" d="M53.41,60h3.12v3.13H53.41V60M53,59.56v4h4v-4Z"/><rect class="cls-3" x="53.19" y="75.85" width="3.57" height="3.57"/><path class="cls-5" d="M53.41,76.08h3.12V79.2H53.41V76.08M53,75.63v4h4v-4Z"/><rect class="cls-3" x="53.19" y="91.91" width="3.57" height="3.57"/><path class="cls-5" d="M53.41,92.14h3.12v3.12H53.41V92.14M53,91.69v4h4v-4Z"/><rect class="cls-3" x="53.19" y="107.98" width="3.57" height="3.57"/><path class="cls-5" d="M53.41,108.2h3.12v3.13H53.41V108.2m-.45-.44v4h4v-4Z"/><rect class="cls-3" x="53.19" y="124.04" width="3.57" height="3.57"/><path class="cls-5" d="M53.41,124.26h3.12v3.13H53.41v-3.13m-.45-.45v4h4v-4Z"/><rect class="cls-3" x="57.2" y="128.06" width="3.57" height="3.56"/><path class="cls-5" d="M57.42,128.28h3.12v3.12H57.42v-3.12m-.44-.45v4h4v-4Z"/><rect class="cls-3" x="57.2" y="136.09" width="3.57" height="3.57"/><path class="cls-5" d="M57.42,136.31h3.12v3.13H57.42v-3.13m-.44-.44v4h4v-4Z"/><rect class="cls-3" x="61.22" y="132.07" width="3.57" height="3.56"/><path class="cls-5" d="M61.44,132.29h3.12v3.12H61.44v-3.12m-.44-.44v4h4v-4Z"/><g class="cls-7"><rect class="cls-5" x="77.06" y="21.86" width="28.11" height="80.32"/><path class="cls-6" d="M84.15,78.09,76.1,53.92l8-16L75.86,21.47l1.59-.8,8.63,17.26L78,54.06l8,24-7.73,23.2h6.1l5.8-23.2-6-24.15,6-16L83.8,21H98.42l-6.36,17,6,16L92,78.09l5.79,23.2h6.09L96.2,78.09l8-24L96.14,37.93l8.63-17.26,1.6.8L98.13,37.93l8,16L98.08,78.09l8.32,25h-10L91.11,81.76l-5.33,21.31h-10Zm7-37.62L86,54,91.11,74.4,96.2,54ZM86.37,22.76l4.74,12.63,4.74-12.63Z"/></g><rect class="cls-5" x="77.06" y="19.86" width="28.11" height="6.02"/><path class="cls-6" d="M76.86,19.66h28.5v6.41H76.86ZM105,20H77.25v5.63H105Z"/><polygon class="cls-6" points="101.69 19.86 105.17 25.88 98.21 25.88 101.69 19.86 105.17 25.88 98.21 25.88 101.69 19.86"/><polygon class="cls-6" points="94.74 19.86 98.21 25.88 91.25 25.88 94.74 19.86 98.21 25.88 91.25 25.88 94.74 19.86"/><polygon class="cls-6" points="87.63 19.86 91.11 25.88 84.16 25.88 87.63 19.86 91.11 25.88 84.16 25.88 87.63 19.86"/><polygon class="cls-6" points="80.53 19.86 84.02 25.88 77.06 25.88 80.53 19.86 84.02 25.88 77.06 25.88 80.53 19.86"/><rect class="cls-6" x="77.06" y="97.94" width="28.11" height="6.02"/><polygon class="cls-5" points="101.69 97.94 105.17 103.96 98.21 103.96 101.69 97.94 105.17 103.96 98.21 103.96 101.69 97.94"/><polygon class="cls-5" points="94.74 97.94 98.21 103.96 91.25 103.96 94.74 97.94 98.21 103.96 91.25 103.96 94.74 97.94"/><polygon class="cls-5" points="87.63 97.94 91.11 103.96 84.16 103.96 87.63 97.94 91.11 103.96 84.16 103.96 87.63 97.94"/><polygon class="cls-5" points="80.53 97.94 84.02 103.96 77.06 103.96 80.53 97.94 84.02 103.96 77.06 103.96 80.53 97.94"/><rect class="cls-6" x="77.06" width="28.11" height="19.86"/><rect class="cls-6" x="77.06" y="103.96" width="28.11" height="19.86"/><rect class="cls-5" x="89.1" y="4.02" width="4.02" height="4.01"/><path class="cls-6" d="M88.88,3.8h4.46V8.25H88.88Zm4,.44H89.32V7.81H92.9Z"/><rect class="cls-5" x="89.1" y="8.03" width="4.02" height="4.02"/><path class="cls-6" d="M88.88,7.81h4.46v4.46H88.88Zm4,.44H89.32v3.57H92.9Z"/><rect class="cls-5" x="85.09" y="8.03" width="4.02" height="4.02"/><path class="cls-6" d="M84.86,7.81h4.46v4.46H84.86Zm4,.44H85.31v3.57h3.57Z"/><rect class="cls-5" x="93.12" y="8.03" width="4.02" height="4.02"/><path class="cls-6" d="M92.9,7.81h4.46v4.46H92.9Zm4,.44H93.34v3.57h3.57Z"/><rect class="cls-5" x="93.12" y="12.05" width="4.02" height="4.01"/><path class="cls-6" d="M92.9,11.82h4.46v4.46H92.9Zm4,.45H93.34v3.56h3.57Z"/><rect class="cls-5" x="97.14" y="12.05" width="4.01" height="4.01"/><path class="cls-6" d="M96.91,11.82h4.47v4.46H96.91Zm4,.45H97.36v3.56h3.57Z"/><rect class="cls-5" x="89.1" y="12.05" width="4.02" height="4.01"/><path class="cls-6" d="M88.88,11.82h4.46v4.46H88.88Zm4,.45H89.32v3.56H92.9Z"/><rect class="cls-5" x="85.09" y="12.05" width="4.02" height="4.01"/><path class="cls-6" d="M84.86,11.82h4.46v4.46H84.86Zm4,.45H85.31v3.56h3.57Z"/><rect class="cls-5" x="81.07" y="12.05" width="4.01" height="4.01"/><path class="cls-6" d="M80.85,11.82h4.46v4.46H80.85Zm4,.45H81.3v3.56h3.56Z"/><rect class="cls-5" x="89.1" y="116.45" width="4.02" height="4.02"/><path class="cls-6" d="M88.88,116.23h4.46v4.47H88.88Zm4,.45H89.32v3.57H92.9Z"/><rect class="cls-5" x="89.1" y="112.44" width="4.02" height="4.01"/><path class="cls-6" d="M88.88,112.22h4.46v4.46H88.88Zm4,.44H89.32v3.57H92.9Z"/><rect class="cls-5" x="85.09" y="112.44" width="4.02" height="4.01"/><path class="cls-6" d="M84.86,112.22h4.46v4.46H84.86Zm4,.44H85.31v3.57h3.57Z"/><rect class="cls-5" x="93.12" y="112.44" width="4.02" height="4.01"/><path class="cls-6" d="M92.9,112.22h4.46v4.46H92.9Zm4,.44H93.34v3.57h3.57Z"/><rect class="cls-5" x="93.12" y="108.42" width="4.02" height="4.02"/><path class="cls-6" d="M92.9,108.2h4.46v4.46H92.9Zm4,.45H93.34v3.57h3.57Z"/><rect class="cls-5" x="97.14" y="108.42" width="4.01" height="4.02"/><path class="cls-6" d="M96.91,108.2h4.47v4.46H96.91Zm4,.45H97.36v3.57h3.57Z"/><rect class="cls-5" x="89.1" y="108.42" width="4.02" height="4.02"/><path class="cls-6" d="M88.88,108.2h4.46v4.46H88.88Zm4,.45H89.32v3.57H92.9Z"/><rect class="cls-5" x="85.09" y="108.42" width="4.02" height="4.02"/><path class="cls-6" d="M84.86,108.2h4.46v4.46H84.86Zm4,.45H85.31v3.57h3.57Z"/><rect class="cls-5" x="81.07" y="108.42" width="4.01" height="4.02"/><path class="cls-6" d="M80.85,108.2h4.46v4.46H80.85Zm4,.45H81.3v3.57h3.56Z"/></g><g class="cls-8"><path class="cls-9" d="M319.28,74.51c-5.51,6.85-33.3,39.19-73,46.7-24.86,4.69-54.4,1.62-86.1,1.62-38.05,0-73,1.87-100.47-4.68C27.77,110.54,6,81.42,1.05,74.34c49.48,3.41,103.61,5.3,160.34,5.3C217.17,79.64,270.45,77.82,319.28,74.51Z"/></g><path class="cls-5" d="M160.14,32.55c27.55,0,59.29,1.14,85.78,9.55,23.46,7.45,42.66,19.28,55.37,27.12,3.19,2,5.94,3.66,8.3,5,1,.58,2,1.06,2.84,1.46A151.43,151.43,0,0,1,296.9,90.8a134.31,134.31,0,0,1-22.56,15.5,100.22,100.22,0,0,1-28.93,10.52c-9.28,1.75-19.72,2.53-33.89,2.53-7.78,0-15.75-.23-24.17-.47-8.81-.26-17.92-.52-27.21-.52-7.07,0-14.09.06-20.86.13s-13,.12-19.23.12c-20.36,0-41.63-.58-59.34-4.81C34.56,107.57,15.28,85.74,7.51,75.62c.56-.26,1.14-.56,1.75-.9,2.64-1.49,6-3.77,10-6.41,10.76-7.19,25.5-17,42.18-23.23C91.21,34,128,32.55,160.14,32.55m0-4.46c-39,0-72.48,2.51-100.26,12.81C36.36,49.62,16.31,65.61,7.07,70.83a13.11,13.11,0,0,1-6.27,2,3.51,3.51,0,0,1-.8-.07s23.28,36.69,59.66,45.37c17.48,4.17,38,4.93,60.38,4.93,12.82,0,26.25-.25,40.09-.25,18,0,35.26,1,51.38,1,12.31,0,24-.58,34.71-2.61,44.52-8.41,74-48,74-48h-.18c-.72,0-3.59-.2-8.3-2.89-11.66-6.66-34.66-23-64.53-32.51-25.08-8-55-9.76-87.13-9.76Z"/></g></g></g></svg>