<svg xmlns="http://www.w3.org/2000/svg" viewBox="0 0 320.28 139.88"><defs><style>.cls-1{fill:none}.cls-2{isolation:isolate}.cls-3{fill:#e30613}.cls-4{clip-path:url(#clip-path)}.cls-5{fill:#1d1d1b}.cls-6{fill:#fff}.cls-7{clip-path:url(#clip-path-2)}.cls-8{opacity:.18;mix-blend-mode:hard-light}.cls-9{fill:#1d1612}</style><clipPath id="clip-path"><path class="cls-1" d="M0 72.78s23.28 36.69 59.66 45.37c27.48 6.55 62.42 4.68 100.47 4.68 31.69 0 61.24 3.07 86.1-1.62 44.52-8.41 74-48 74-48s-3 .27-8.48-2.88c-11.66-6.66-34.66-23-64.53-32.51-25.08-8-55-9.76-87.13-9.76-39 0-72.48 2.51-100.26 12.81-23.47 8.75-43.52 24.74-52.76 29.96C2.48 73.43 0 72.78 0 72.78z"/></clipPath><clipPath id="clip-path-2"><path class="cls-1" d="M77.06 25.88h28.11v72.28H77.06z"/></clipPath></defs><title>Asset 18</title><g class="cls-2"><g id="Layer_2" data-name="Layer 2"><g id="Layer_1-2" data-name="Layer 1"><path class="cls-3" d="M0 72.78s23.28 36.69 59.66 45.37c27.48 6.55 62.42 4.68 100.47 4.68 31.69 0 61.24 3.07 86.1-1.62 44.52-8.41 74-48 74-48s-3 .27-8.48-2.88c-11.66-6.66-34.66-23-64.53-32.51-25.08-8-55-9.76-87.13-9.76-39 0-72.48 2.51-100.26 12.81-23.47 8.75-43.52 24.74-52.76 29.96C2.48 73.43 0 72.78 0 72.78z"/><g class="cls-4"><path class="cls-5" d="M145.33 11.37h4.01v120.48h-4.01z"/><path class="cls-5" d="M145.33 11.37h4.01v120.48h-4.01zm-104.41 0h4.02v120.48h-4.02z"/><path class="cls-6" d="M129.48 11.6h3.58v3.57h-3.58z"/><path class="cls-5" d="M129.7 11.82h3.12V15h-3.12v-3.18m-.44-.45v4h4v-4z"/><path class="cls-6" d="M129.48 15.61h3.58v3.57h-3.58z"/><path class="cls-5" d="M129.7 15.84h3.12V19h-3.12v-3.16m-.44-.44v4h4v-4z"/><path class="cls-6" d="M129.48 19.63h3.58v3.57h-3.58z"/><path class="cls-5" d="M129.7 19.86h3.12V23h-3.12v-3.14m-.44-.45v4h4v-4z"/><path class="cls-6" d="M129.48 23.65h3.58v3.57h-3.58z"/><path class="cls-5" d="M129.7 23.87h3.12V27h-3.12v-3.13m-.44-.45v4h4v-4z"/><path class="cls-6" d="M129.48 27.67h3.58v3.56h-3.58z"/><path class="cls-5" d="M129.7 27.89h3.12V31h-3.12v-3.11m-.44-.45v4h4v-4z"/><path class="cls-6" d="M129.48 31.68h3.58v3.57h-3.58z"/><path class="cls-5" d="M129.7 31.9h3.12V35h-3.12v-3.1m-.44-.45v4h4v-4z"/><path class="cls-6" d="M129.48 35.7h3.58v3.57h-3.58z"/><path class="cls-5" d="M129.7 35.92h3.12V39h-3.12v-3.08m-.44-.44v4h4v-4z"/><path class="cls-6" d="M129.48 39.71h3.58v3.57h-3.58z"/><path class="cls-5" d="M129.7 39.94h3.12v3.13h-3.12v-3.13m-.44-.45v4h4v-4z"/><path class="cls-6" d="M129.48 47.74h3.58v3.57h-3.58z"/><path class="cls-5" d="M129.7 48h3.12v3.12h-3.12V48m-.44-.45v4h4v-4z"/><path class="cls-6" d="M129.48 43.73h3.58v3.57h-3.58z"/><path class="cls-5" d="M129.7 43.95h3.12v3.13h-3.12v-3.13m-.44-.44v4h4v-4z"/><path class="cls-6" d="M129.48 51.76h3.58v3.57h-3.58z"/><path class="cls-5" d="M129.7 52h3.12v3.13h-3.12V52m-.44-.45v4h4v-4z"/><path class="cls-6" d="M129.48 55.77h3.58v3.57h-3.58z"/><path class="cls-5" d="M129.7 56h3.12v3.12h-3.12V56m-.44-.44v4h4v-4z"/><path class="cls-6" d="M129.48 59.79h3.58v3.57h-3.58z"/><path class="cls-5" d="M129.7 60h3.12v3.13h-3.12V60m-.44-.45v4h4v-4z"/><path class="cls-6" d="M129.48 63.81h3.58v3.57h-3.58z"/><path class="cls-5" d="M129.7 64h3.12v3.12h-3.12V64m-.44-.44v4h4v-4z"/><path class="cls-6" d="M129.48 67.82h3.58v3.57h-3.58z"/><path class="cls-5" d="M129.7 68h3.12v3.12h-3.12V68m-.44-.45v4h4v-4z"/><path class="cls-6" d="M129.48 71.84h3.58v3.57h-3.58z"/><path class="cls-5" d="M129.7 72.06h3.12v3.12h-3.12v-3.12m-.44-.44v4h4v-4z"/><path class="cls-6" d="M129.48 75.85h3.58v3.57h-3.58z"/><path class="cls-5" d="M129.7 76.08h3.12v3.12h-3.12v-3.12m-.44-.45v4h4v-4z"/><path class="cls-6" d="M129.48 79.87h3.58v3.57h-3.58z"/><path class="cls-5" d="M129.7 80.09h3.12v3.13h-3.12v-3.13m-.44-.44v4h4v-4z"/><path class="cls-6" d="M129.48 87.9h3.58v3.57h-3.58z"/><path class="cls-5" d="M129.7 88.12h3.12v3.13h-3.12v-3.13m-.44-.44v4h4v-4z"/><path class="cls-6" d="M129.48 83.89h3.58v3.57h-3.58z"/><path class="cls-5" d="M129.7 84.11h3.12v3.12h-3.12v-3.12m-.44-.44v4h4v-4z"/><path class="cls-6" d="M129.48 91.91h3.58v3.57h-3.58z"/><path class="cls-5" d="M129.7 92.14h3.12v3.12h-3.12v-3.12m-.44-.45v4h4v-4z"/><path class="cls-6" d="M129.48 95.93h3.58v3.57h-3.58z"/><path class="cls-5" d="M129.7 96.15h3.12v3.12h-3.12v-3.12m-.44-.45v4h4v-4z"/><path class="cls-6" d="M129.48 99.95h3.58v3.56h-3.58z"/><path class="cls-5" d="M129.7 100.17h3.12v3.12h-3.12v-3.12m-.44-.44v4h4v-4z"/><path class="cls-6" d="M129.48 103.96h3.58v3.57h-3.58z"/><path class="cls-5" d="M129.7 104.18h3.12v3.13h-3.12v-3.13m-.44-.44v4h4v-4z"/><path class="cls-6" d="M129.48 107.98h3.58v3.57h-3.58z"/><path class="cls-5" d="M129.7 108.2h3.12v3.13h-3.12v-3.13m-.44-.44v4h4v-4z"/><path class="cls-6" d="M129.48 112h3.58v3.57h-3.58z"/><path class="cls-5" d="M129.7 112.22h3.12v3.12h-3.12v-3.12m-.44-.45v4h4v-4z"/><path class="cls-6" d="M129.48 116.01h3.58v3.57h-3.58z"/><path class="cls-5" d="M129.7 116.23h3.12v3.12h-3.12v-3.12m-.44-.44v4h4v-4z"/><path class="cls-6" d="M129.48 120.03h3.58v3.57h-3.58z"/><path class="cls-5" d="M129.7 120.25h3.12v3.12h-3.12v-3.12m-.44-.44v4h4v-4z"/><path class="cls-6" d="M129.48 128.06h3.58v3.56h-3.58z"/><path class="cls-5" d="M129.7 128.28h3.12v3.12h-3.12v-3.12m-.44-.45v4h4v-4z"/><path class="cls-6" d="M125.47 15.61h3.57v3.57h-3.57z"/><path class="cls-5" d="M125.69 15.84h3.11V19h-3.11v-3.16m-.45-.44v4h4v-4z"/><path class="cls-6" d="M125.47 19.63h3.57v3.57h-3.57z"/><path class="cls-5" d="M125.69 19.86h3.11V23h-3.11v-3.14m-.45-.45v4h4v-4z"/><path class="cls-6" d="M125.47 23.65h3.57v3.57h-3.57z"/><path class="cls-5" d="M125.69 23.87h3.11V27h-3.11v-3.13m-.45-.45v4h4v-4z"/><path class="cls-6" d="M125.47 31.68h3.57v3.57h-3.57z"/><path class="cls-5" d="M125.69 31.9h3.11V35h-3.11v-3.1m-.45-.45v4h4v-4z"/><path class="cls-6" d="M125.47 35.7h3.57v3.57h-3.57z"/><path class="cls-5" d="M125.69 35.92h3.11V39h-3.11v-3.08m-.45-.44v4h4v-4z"/><path class="cls-6" d="M125.47 39.71h3.57v3.57h-3.57z"/><path class="cls-5" d="M125.69 39.94h3.11v3.13h-3.11v-3.13m-.45-.45v4h4v-4z"/><path class="cls-6" d="M125.47 47.74h3.57v3.57h-3.57z"/><path class="cls-5" d="M125.69 48h3.11v3.12h-3.11V48m-.45-.45v4h4v-4z"/><path class="cls-6" d="M125.47 51.76h3.57v3.57h-3.57z"/><path class="cls-5" d="M125.69 52h3.11v3.13h-3.11V52m-.45-.45v4h4v-4z"/><path class="cls-6" d="M125.47 55.77h3.57v3.57h-3.57z"/><path class="cls-5" d="M125.69 56h3.11v3.12h-3.11V56m-.45-.44v4h4v-4z"/><path class="cls-6" d="M125.47 63.81h3.57v3.57h-3.57z"/><path class="cls-5" d="M125.69 64h3.11v3.12h-3.11V64m-.45-.44v4h4v-4z"/><path class="cls-6" d="M125.47 67.82h3.57v3.57h-3.57z"/><path class="cls-5" d="M125.69 68h3.11v3.12h-3.11V68m-.45-.45v4h4v-4z"/><path class="cls-6" d="M125.47 71.84h3.57v3.57h-3.57z"/><path class="cls-5" d="M125.69 72.06h3.11v3.12h-3.11v-3.12m-.45-.44v4h4v-4z"/><path class="cls-6" d="M125.47 79.87h3.57v3.57h-3.57z"/><path class="cls-5" d="M125.69 80.09h3.11v3.13h-3.11v-3.13m-.45-.44v4h4v-4z"/><path class="cls-6" d="M125.47 87.9h3.57v3.57h-3.57z"/><path class="cls-5" d="M125.69 88.12h3.11v3.13h-3.11v-3.13m-.45-.44v4h4v-4z"/><path class="cls-6" d="M125.47 83.89h3.57v3.57h-3.57z"/><path class="cls-5" d="M125.69 84.11h3.11v3.12h-3.11v-3.12m-.45-.44v4h4v-4z"/><path class="cls-6" d="M125.47 95.93h3.57v3.57h-3.57z"/><path class="cls-5" d="M125.69 96.15h3.11v3.12h-3.11v-3.12m-.45-.45v4h4v-4z"/><path class="cls-6" d="M125.47 99.95h3.57v3.56h-3.57z"/><path class="cls-5" d="M125.69 100.17h3.11v3.12h-3.11v-3.12m-.45-.44v4h4v-4z"/><path class="cls-6" d="M125.47 103.96h3.57v3.57h-3.57z"/><path class="cls-5" d="M125.69 104.18h3.11v3.13h-3.11v-3.13m-.45-.44v4h4v-4z"/><path class="cls-6" d="M125.47 112h3.57v3.57h-3.57z"/><path class="cls-5" d="M125.69 112.22h3.11v3.12h-3.11v-3.12m-.45-.45v4h4v-4z"/><path class="cls-6" d="M125.47 116.01h3.57v3.57h-3.57z"/><path class="cls-5" d="M125.69 116.23h3.11v3.12h-3.11v-3.12m-.45-.44v4h4v-4z"/><path class="cls-6" d="M121.46 19.63h3.56v3.57h-3.56z"/><path class="cls-5" d="M121.68 19.86h3.12V23h-3.12v-3.14m-.45-.45v4h4v-4z"/><path class="cls-6" d="M121.46 35.7h3.56v3.57h-3.56z"/><path class="cls-5" d="M121.68 35.92h3.12V39h-3.12v-3.08m-.45-.44v4h4v-4z"/><path class="cls-6" d="M121.46 51.76h3.56v3.57h-3.56z"/><path class="cls-5" d="M121.68 52h3.12v3.13h-3.12V52m-.45-.45v4h4v-4z"/><path class="cls-6" d="M121.46 67.82h3.56v3.57h-3.56z"/><path class="cls-5" d="M121.68 68h3.12v3.12h-3.12V68m-.45-.45v4h4v-4z"/><path class="cls-6" d="M121.46 83.89h3.56v3.57h-3.56z"/><path class="cls-5" d="M121.68 84.11h3.12v3.12h-3.12v-3.12m-.45-.44v4h4v-4z"/><path class="cls-6" d="M121.46 99.95h3.56v3.56h-3.56z"/><path class="cls-5" d="M121.68 100.17h3.12v3.12h-3.12v-3.12m-.45-.44v4h4v-4z"/><path class="cls-6" d="M121.46 116.01h3.56v3.57h-3.56z"/><path class="cls-5" d="M121.68 116.23h3.12v3.12h-3.12v-3.12m-.45-.44v4h4v-4z"/><path class="cls-6" d="M125.47 120.03h3.57v3.57h-3.57z"/><path class="cls-5" d="M125.69 120.25h3.11v3.12h-3.11v-3.12m-.45-.44v4h4v-4z"/><path class="cls-6" d="M125.47 128.06h3.57v3.56h-3.57z"/><path class="cls-5" d="M125.69 128.28h3.11v3.12h-3.11v-3.12m-.45-.45v4h4v-4z"/><path class="cls-6" d="M129.48 124.04h3.58v3.57h-3.58z"/><path class="cls-5" d="M129.7 124.26h3.12v3.13h-3.12v-3.13m-.44-.45v4h4v-4z"/><path class="cls-6" d="M137.29 27.44h4.02v4.02h-4.02zm0 8.04h4.02v4.01h-4.02zm0 8.02h4.02v4.02h-4.02zm0 8.03h4.02v4.02h-4.02zm0 8.03h4.02v4.02h-4.02zm0 8.04h4.02v4.02h-4.02zm0 8.03h4.02v4.02h-4.02zm0 8.03h4.02v4.01h-4.02zm0 8.03h4.02v4.01h-4.02zm0 8.04h4.02v4.01h-4.02zm.27-88.08h3.47v3.48h-3.47z"/><path class="cls-5" d="M137.83 11.91h2.94v2.95h-2.94v-2.95m-.54-.54v4h4v-4z"/><path class="cls-6" d="M137.56 15.66h3.47v3.48h-3.47z"/><path class="cls-5" d="M137.83 15.93h2.94v2.95h-2.94v-2.95m-.54-.53v4h4v-4z"/><path class="cls-6" d="M137.56 19.68h3.47v3.48h-3.47z"/><path class="cls-5" d="M137.83 19.95h2.94v2.94h-2.94v-2.94m-.54-.54v4h4v-4z"/><path class="cls-6" d="M137.56 23.69h3.47v3.48h-3.47z"/><path class="cls-5" d="M137.83 24h2.94v3h-2.94v-3m-.54-.54v4h4v-4z"/><path class="cls-6" d="M137.56 27.71h3.47v3.47h-3.47z"/><path class="cls-5" d="M137.83 28h2.94v2.94h-2.94V28m-.54-.54v4h4v-4z"/><path class="cls-6" d="M137.56 31.72h3.47v3.48h-3.47z"/><path class="cls-5" d="M137.83 32h2.94v2.95h-2.94V32m-.54-.53v4h4v-4z"/><path class="cls-6" d="M137.56 35.74h3.47v3.48h-3.47z"/><path class="cls-5" d="M137.83 36h2.94v3h-2.94v-3m-.54-.53v4h4v-4z"/><path class="cls-6" d="M137.56 39.76h3.47v3.48h-3.47z"/><path class="cls-5" d="M137.83 40h2.94v3h-2.94v-3m-.54-.54v4h4v-4z"/><path class="cls-6" d="M137.56 47.79h3.47v3.48h-3.47z"/><path class="cls-5" d="M137.83 48.06h2.94V51h-2.94v-2.94m-.54-.54v4h4v-4z"/><path class="cls-6" d="M137.56 43.77h3.47v3.48h-3.47z"/><path class="cls-5" d="M137.83 44h2.94v3h-2.94v-3m-.54-.53v4h4v-4z"/><path class="cls-6" d="M137.56 51.8h3.47v3.48h-3.47z"/><path class="cls-5" d="M137.83 52.07h2.94V55h-2.94v-2.93m-.54-.54v4h4v-4z"/><path class="cls-6" d="M137.56 55.82h3.47v3.48h-3.47z"/><path class="cls-5" d="M137.83 56.08h2.94V59h-2.94v-2.92m-.54-.53v4h4v-4z"/><path class="cls-6" d="M137.56 59.83h3.47v3.48h-3.47z"/><path class="cls-5" d="M137.83 60.1h2.94v3h-2.94v-3m-.54-.53v4h4v-4z"/><path class="cls-6" d="M137.56 63.85h3.47v3.48h-3.47z"/><path class="cls-5" d="M137.83 64.12h2.94v2.94h-2.94v-2.94m-.54-.53v4h4v-4z"/><path class="cls-6" d="M137.56 67.87h3.47v3.48h-3.47z"/><path class="cls-5" d="M137.83 68.13h2.94v3h-2.94v-3m-.54-.54v4h4v-4z"/><path class="cls-6" d="M137.56 71.88h3.47v3.48h-3.47z"/><path class="cls-5" d="M137.83 72.15h2.94v2.95h-2.94v-2.95m-.54-.53v4h4v-4z"/><path class="cls-6" d="M137.56 75.9h3.47v3.48h-3.47z"/><path class="cls-5" d="M137.83 76.17h2.94v2.95h-2.94v-2.95m-.54-.54v4h4v-4z"/><path class="cls-6" d="M137.56 79.91h3.47v3.48h-3.47z"/><path class="cls-5" d="M137.83 80.18h2.94v2.95h-2.94v-2.95m-.54-.53v4h4v-4z"/><path class="cls-6" d="M137.56 87.94h3.47v3.48h-3.47z"/><path class="cls-5" d="M137.83 88.21h2.94v2.94h-2.94v-2.94m-.54-.53v4h4v-4z"/><path class="cls-6" d="M137.56 83.93h3.47v3.48h-3.47z"/><path class="cls-5" d="M137.83 84.2h2.94v2.95h-2.94V84.2m-.54-.53v4h4v-4z"/><path class="cls-6" d="M137.56 91.96h3.47v3.48h-3.47z"/><path class="cls-5" d="M137.83 92.22h2.94v2.95h-2.94v-2.95m-.54-.53v4h4v-4z"/><path class="cls-6" d="M137.56 95.97h3.47v3.48h-3.47z"/><path class="cls-5" d="M137.83 96.24h2.94v2.95h-2.94v-2.95m-.54-.54v4h4v-4z"/><path class="cls-6" d="M137.56 99.99h3.47v3.48h-3.47z"/><path class="cls-5" d="M137.83 100.26h2.94v2.94h-2.94v-2.94m-.54-.53v4h4v-4z"/><path class="cls-6" d="M137.56 104.01h3.47v3.48h-3.47z"/><path class="cls-5" d="M137.83 104.27h2.94v3h-2.94v-3m-.54-.53v4h4v-4z"/><path class="cls-6" d="M137.56 108.02h3.47v3.48h-3.47z"/><path class="cls-5" d="M137.83 108.29h2.94v2.95h-2.94v-2.95m-.54-.53v4h4v-4z"/><path class="cls-6" d="M137.56 112.04h3.47v3.48h-3.47z"/><path class="cls-5" d="M137.83 112.31h2.94v2.94h-2.94v-2.94m-.54-.54v4h4v-4z"/><path class="cls-6" d="M137.56 116.06h3.47v3.48h-3.47z"/><path class="cls-5" d="M137.83 116.32h2.94v2.95h-2.94v-2.95m-.54-.53v4h4v-4z"/><path class="cls-6" d="M137.56 120.07h3.47v3.48h-3.47z"/><path class="cls-5" d="M137.83 120.34h2.94v2.94h-2.94v-2.94m-.54-.53v4h4v-4z"/><path class="cls-6" d="M137.56 128.1h3.47v3.48h-3.47z"/><path class="cls-5" d="M137.83 128.37h2.94v2.95h-2.94v-2.95m-.54-.53v4h4v-4z"/><path class="cls-6" d="M137.56 124.09h3.47v3.47h-3.47z"/><path class="cls-5" d="M137.83 124.35h2.94v2.95h-2.94v-2.95m-.54-.53v4h4v-4z"/><path class="cls-6" d="M109.18 27.44h4.02v4.02h-4.02zm0 8.04h4.02v4.01h-4.02zm0 8.02h4.02v4.02h-4.02zm0 8.03h4.02v4.02h-4.02zm0 8.03h4.02v4.02h-4.02zm0 8.04h4.02v4.02h-4.02zm0 8.03h4.02v4.02h-4.02zm0 8.03h4.02v4.01h-4.02zm0 8.03h4.02v4.01h-4.02zm0 8.04h4.02v4.01h-4.02zm.27-88.08h3.48v3.48h-3.48z"/><path class="cls-5" d="M109.72 11.91h2.94v2.95h-2.94v-2.95m-.54-.54v4h4v-4z"/><path class="cls-6" d="M109.45 15.66h3.48v3.48h-3.48z"/><path class="cls-5" d="M109.72 15.93h2.94v2.95h-2.94v-2.95m-.54-.53v4h4v-4z"/><path class="cls-6" d="M109.45 19.68h3.48v3.48h-3.48z"/><path class="cls-5" d="M109.72 19.95h2.94v2.94h-2.94v-2.94m-.54-.54v4h4v-4z"/><path class="cls-6" d="M109.45 23.69h3.48v3.48h-3.48z"/><path class="cls-5" d="M109.72 24h2.94v3h-2.94v-3m-.54-.54v4h4v-4z"/><path class="cls-6" d="M109.45 27.71h3.48v3.47h-3.48z"/><path class="cls-5" d="M109.72 28h2.94v2.94h-2.94V28m-.54-.54v4h4v-4z"/><path class="cls-6" d="M109.45 31.72h3.48v3.48h-3.48z"/><path class="cls-5" d="M109.72 32h2.94v2.95h-2.94V32m-.54-.53v4h4v-4z"/><path class="cls-6" d="M109.45 35.74h3.48v3.48h-3.48z"/><path class="cls-5" d="M109.72 36h2.94v3h-2.94v-3m-.54-.53v4h4v-4z"/><path class="cls-6" d="M109.45 39.76h3.48v3.48h-3.48z"/><path class="cls-5" d="M109.72 40h2.94v3h-2.94v-3m-.54-.54v4h4v-4z"/><path class="cls-6" d="M109.45 47.79h3.48v3.48h-3.48z"/><path class="cls-5" d="M109.72 48.06h2.94V51h-2.94v-2.94m-.54-.54v4h4v-4z"/><path class="cls-6" d="M109.45 43.77h3.48v3.48h-3.48z"/><path class="cls-5" d="M109.72 44h2.94v3h-2.94v-3m-.54-.53v4h4v-4z"/><path class="cls-6" d="M109.45 51.8h3.48v3.48h-3.48z"/><path class="cls-5" d="M109.72 52.07h2.94V55h-2.94v-2.93m-.54-.54v4h4v-4z"/><path class="cls-6" d="M109.45 55.82h3.48v3.48h-3.48z"/><path class="cls-5" d="M109.72 56.08h2.94V59h-2.94v-2.92m-.54-.53v4h4v-4z"/><path class="cls-6" d="M109.45 59.83h3.48v3.48h-3.48z"/><path class="cls-5" d="M109.72 60.1h2.94v3h-2.94v-3m-.54-.53v4h4v-4z"/><path class="cls-6" d="M109.45 63.85h3.48v3.48h-3.48z"/><path class="cls-5" d="M109.72 64.12h2.94v2.94h-2.94v-2.94m-.54-.53v4h4v-4z"/><path class="cls-6" d="M109.45 67.87h3.48v3.48h-3.48z"/><path class="cls-5" d="M109.72 68.13h2.94v3h-2.94v-3m-.54-.54v4h4v-4z"/><path class="cls-6" d="M109.45 71.88h3.48v3.48h-3.48z"/><path class="cls-5" d="M109.72 72.15h2.94v2.95h-2.94v-2.95m-.54-.53v4h4v-4z"/><path class="cls-6" d="M109.45 75.9h3.48v3.48h-3.48z"/><path class="cls-5" d="M109.72 76.17h2.94v2.95h-2.94v-2.95m-.54-.54v4h4v-4z"/><path class="cls-6" d="M109.45 79.91h3.48v3.48h-3.48z"/><path class="cls-5" d="M109.72 80.18h2.94v2.95h-2.94v-2.95m-.54-.53v4h4v-4z"/><path class="cls-6" d="M109.45 87.94h3.48v3.48h-3.48z"/><path class="cls-5" d="M109.72 88.21h2.94v2.94h-2.94v-2.94m-.54-.53v4h4v-4z"/><path class="cls-6" d="M109.45 83.93h3.48v3.48h-3.48z"/><path class="cls-5" d="M109.72 84.2h2.94v2.95h-2.94V84.2m-.54-.53v4h4v-4z"/><path class="cls-6" d="M109.45 91.96h3.48v3.48h-3.48z"/><path class="cls-5" d="M109.72 92.22h2.94v2.95h-2.94v-2.95m-.54-.53v4h4v-4z"/><path class="cls-6" d="M109.45 95.97h3.48v3.48h-3.48z"/><path class="cls-5" d="M109.72 96.24h2.94v2.95h-2.94v-2.95m-.54-.54v4h4v-4z"/><path class="cls-6" d="M109.45 99.99h3.48v3.48h-3.48z"/><path class="cls-5" d="M109.72 100.26h2.94v2.94h-2.94v-2.94m-.54-.53v4h4v-4z"/><path class="cls-6" d="M109.45 104.01h3.48v3.48h-3.48z"/><path class="cls-5" d="M109.72 104.27h2.94v3h-2.94v-3m-.54-.53v4h4v-4z"/><path class="cls-6" d="M109.45 108.02h3.48v3.48h-3.48z"/><path class="cls-5" d="M109.72 108.29h2.94v2.95h-2.94v-2.95m-.54-.53v4h4v-4z"/><path class="cls-6" d="M109.45 112.04h3.48v3.48h-3.48z"/><path class="cls-5" d="M109.72 112.31h2.94v2.94h-2.94v-2.94m-.54-.54v4h4v-4z"/><path class="cls-6" d="M109.45 116.06h3.48v3.48h-3.48z"/><path class="cls-5" d="M109.72 116.32h2.94v2.95h-2.94v-2.95m-.54-.53v4h4v-4z"/><path class="cls-6" d="M109.45 120.07h3.48v3.48h-3.48z"/><path class="cls-5" d="M109.72 120.34h2.94v2.94h-2.94v-2.94m-.54-.53v4h4v-4z"/><path class="cls-6" d="M109.45 128.1h3.48v3.48h-3.48z"/><path class="cls-5" d="M109.72 128.37h2.94v2.95h-2.94v-2.95m-.54-.53v4h4v-4z"/><path class="cls-6" d="M109.45 124.09h3.48v3.47h-3.48z"/><path class="cls-5" d="M109.72 124.35h2.94v2.95h-2.94v-2.95m-.54-.53v4h4v-4z"/><path class="cls-6" d="M69.02 27.44h4.02v4.02h-4.02zm0 8.04h4.02v4.01h-4.02zm0 8.02h4.02v4.02h-4.02zm0 8.03h4.02v4.02h-4.02zm0 8.03h4.02v4.02h-4.02zm0 8.04h4.02v4.02h-4.02zm0 8.03h4.02v4.02h-4.02zm0 8.03h4.02v4.01h-4.02zm0 8.03h4.02v4.01h-4.02zm0 8.04h4.02v4.01h-4.02zm.27-88.08h3.48v3.48h-3.48z"/><path class="cls-5" d="M69.56 11.91h2.95v2.95h-2.95v-2.95m-.56-.54v4h4v-4z"/><path class="cls-6" d="M69.29 15.66h3.48v3.48h-3.48z"/><path class="cls-5" d="M69.56 15.93h2.95v2.95h-2.95v-2.95m-.56-.54v4h4v-4z"/><path class="cls-6" d="M69.29 19.68h3.48v3.48h-3.48z"/><path class="cls-5" d="M69.56 19.95h2.95v2.94h-2.95v-2.94m-.56-.54v4h4v-4z"/><path class="cls-6" d="M69.29 23.69h3.48v3.48h-3.48z"/><path class="cls-5" d="M69.56 24h2.95v3h-2.95v-3m-.56-.58v4h4v-4z"/><path class="cls-6" d="M69.29 27.71h3.48v3.47h-3.48z"/><path class="cls-5" d="M69.56 28h2.95v2.94h-2.95V28m-.56-.56v4h4v-4z"/><path class="cls-6" d="M69.29 31.72h3.48v3.48h-3.48z"/><path class="cls-5" d="M69.56 32h2.95v2.95h-2.95V32m-.56-.54v4h4v-4z"/><path class="cls-6" d="M69.29 35.74h3.48v3.48h-3.48z"/><path class="cls-5" d="M69.56 36h2.95v3h-2.95v-3m-.56-.52v4h4v-4z"/><path class="cls-6" d="M69.29 39.76h3.48v3.48h-3.48z"/><path class="cls-5" d="M69.56 40h2.95v3h-2.95v-3m-.56-.51v4h4v-4z"/><path class="cls-6" d="M69.29 47.79h3.48v3.48h-3.48z"/><path class="cls-5" d="M69.56 48.06h2.95V51h-2.95v-2.94m-.56-.54v4h4v-4z"/><path class="cls-6" d="M69.29 43.77h3.48v3.48h-3.48z"/><path class="cls-5" d="M69.56 44h2.95v3h-2.95v-3m-.56-.5v4h4v-4z"/><path class="cls-6" d="M69.29 51.8h3.48v3.48h-3.48z"/><path class="cls-5" d="M69.56 52.07h2.95V55h-2.95v-2.93m-.56-.54v4h4v-4z"/><path class="cls-6" d="M69.29 55.82h3.48v3.48h-3.48z"/><path class="cls-5" d="M69.56 56.08h2.95V59h-2.95v-2.92m-.56-.53v4h4v-4z"/><path class="cls-6" d="M69.29 59.83h3.48v3.48h-3.48z"/><path class="cls-5" d="M69.56 60.1h2.95v3h-2.95v-3m-.56-.54v4h4v-4z"/><path class="cls-6" d="M69.29 63.85h3.48v3.48h-3.48z"/><path class="cls-5" d="M69.56 64.12h2.95v2.94h-2.95v-2.94m-.56-.53v4h4v-4z"/><path class="cls-6" d="M69.29 67.87h3.48v3.48h-3.48z"/><path class="cls-5" d="M69.56 68.13h2.95v3h-2.95v-3M69 67.6v4h4v-4z"/><path class="cls-6" d="M69.29 71.88h3.48v3.48h-3.48z"/><path class="cls-5" d="M69.56 72.15h2.95v2.95h-2.95v-2.95m-.56-.53v4h4v-4z"/><path class="cls-6" d="M69.29 75.9h3.48v3.48h-3.48z"/><path class="cls-5" d="M69.56 76.17h2.95v2.95h-2.95v-2.95m-.56-.54v4h4v-4z"/><path class="cls-6" d="M69.29 79.91h3.48v3.48h-3.48z"/><path class="cls-5" d="M69.56 80.18h2.95v2.95h-2.95v-2.95m-.56-.54v4h4v-4z"/><path class="cls-6" d="M69.29 87.94h3.48v3.48h-3.48z"/><path class="cls-5" d="M69.56 88.21h2.95v2.94h-2.95v-2.94m-.56-.53v4h4v-4z"/><path class="cls-6" d="M69.29 83.93h3.48v3.48h-3.48z"/><path class="cls-5" d="M69.56 84.2h2.95v2.95h-2.95V84.2m-.56-.54v4h4v-4z"/><path class="cls-6" d="M69.29 91.96h3.48v3.48h-3.48z"/><path class="cls-5" d="M69.56 92.22h2.95v2.95h-2.95v-2.95m-.56-.53v4h4v-4z"/><path class="cls-6" d="M69.29 95.97h3.48v3.48h-3.48z"/><path class="cls-5" d="M69.56 96.24h2.95v2.95h-2.95v-2.95M69 95.7v4h4v-4z"/><path class="cls-6" d="M69.29 99.99h3.48v3.48h-3.48z"/><path class="cls-5" d="M69.56 100.26h2.95v2.94h-2.95v-2.94m-.56-.53v4h4v-4z"/><path class="cls-6" d="M69.29 104.01h3.48v3.48h-3.48z"/><path class="cls-5" d="M69.56 104.27h2.95v3h-2.95v-3m-.53-.53v4h4v-4z"/><path class="cls-6" d="M69.29 108.02h3.48v3.48h-3.48z"/><path class="cls-5" d="M69.56 108.29h2.95v2.95h-2.95v-2.95m-.53-.53v4h4v-4z"/><path class="cls-6" d="M69.29 112.04h3.48v3.48h-3.48z"/><path class="cls-5" d="M69.56 112.31h2.95v2.94h-2.95v-2.94m-.53-.54v4h4v-4z"/><path class="cls-6" d="M69.29 116.06h3.48v3.48h-3.48z"/><path class="cls-5" d="M69.56 116.32h2.95v2.95h-2.95v-2.95m-.53-.53v4h4v-4z"/><path class="cls-6" d="M69.29 120.07h3.48v3.48h-3.48z"/><path class="cls-5" d="M69.56 120.34h2.95v2.94h-2.95v-2.94m-.53-.53v4h4v-4z"/><path class="cls-6" d="M69.29 128.1h3.48v3.48h-3.48z"/><path class="cls-5" d="M69.56 128.37h2.95v2.95h-2.95v-2.95m-.53-.53v4h4v-4z"/><path class="cls-6" d="M69.29 124.09h3.48v3.47h-3.48z"/><path class="cls-5" d="M69.56 124.35h2.95v2.95h-2.95v-2.95m-.53-.53v4h4v-4z"/><path class="cls-3" d="M117.44 19.63h3.57v3.57h-3.57z"/><path class="cls-5" d="M117.66 19.86h3.12V23h-3.12v-3.14m-.45-.45v4h4v-4z"/><path class="cls-3" d="M117.44 23.65h3.57v3.57h-3.57z"/><path class="cls-5" d="M117.66 23.87h3.12V27h-3.12v-3.13m-.45-.45v4h4v-4z"/><path class="cls-3" d="M117.44 27.67h3.57v3.56h-3.57z"/><path class="cls-5" d="M117.66 27.89h3.12V31h-3.12v-3.11m-.45-.45v4h4v-4z"/><path class="cls-3" d="M117.44 31.68h3.57v3.57h-3.57z"/><path class="cls-5" d="M117.66 31.9h3.12V35h-3.12v-3.1m-.45-.45v4h4v-4z"/><path class="cls-3" d="M117.44 35.7h3.57v3.57h-3.57z"/><path class="cls-5" d="M117.66 35.92h3.12V39h-3.12v-3.08m-.45-.44v4h4v-4z"/><path class="cls-3" d="M117.44 39.71h3.57v3.57h-3.57z"/><path class="cls-5" d="M117.66 39.94h3.12v3.13h-3.12v-3.13m-.45-.45v4h4v-4z"/><path class="cls-3" d="M117.44 43.73h3.57v3.57h-3.57z"/><path class="cls-5" d="M117.66 43.95h3.12v3.13h-3.12v-3.13m-.45-.44v4h4v-4z"/><path class="cls-3" d="M117.44 47.74h3.57v3.57h-3.57z"/><path class="cls-5" d="M117.66 48h3.12v3.12h-3.12V48m-.45-.45v4h4v-4z"/><path class="cls-3" d="M117.44 55.77h3.57v3.57h-3.57z"/><path class="cls-5" d="M117.66 56h3.12v3.12h-3.12V56m-.45-.44v4h4v-4z"/><path class="cls-3" d="M117.44 51.76h3.57v3.57h-3.57z"/><path class="cls-5" d="M117.66 52h3.12v3.13h-3.12V52m-.45-.45v4h4v-4z"/><path class="cls-3" d="M117.44 59.79h3.57v3.57h-3.57z"/><path class="cls-5" d="M117.66 60h3.12v3.13h-3.12V60m-.45-.45v4h4v-4z"/><path class="cls-3" d="M117.44 63.81h3.57v3.57h-3.57z"/><path class="cls-5" d="M117.66 64h3.12v3.12h-3.12V64m-.45-.44v4h4v-4z"/><path class="cls-3" d="M117.44 67.82h3.57v3.57h-3.57z"/><path class="cls-5" d="M117.66 68h3.12v3.12h-3.12V68m-.45-.45v4h4v-4z"/><path class="cls-3" d="M117.44 71.84h3.57v3.57h-3.57z"/><path class="cls-5" d="M117.66 72.06h3.12v3.12h-3.12v-3.12m-.45-.44v4h4v-4z"/><path class="cls-3" d="M117.44 75.85h3.57v3.57h-3.57z"/><path class="cls-5" d="M117.66 76.08h3.12v3.12h-3.12v-3.12m-.45-.45v4h4v-4z"/><path class="cls-3" d="M117.44 79.87h3.57v3.57h-3.57z"/><path class="cls-5" d="M117.66 80.09h3.12v3.13h-3.12v-3.13m-.45-.44v4h4v-4z"/><path class="cls-3" d="M117.44 83.89h3.57v3.57h-3.57z"/><path class="cls-5" d="M117.66 84.11h3.12v3.12h-3.12v-3.12m-.45-.44v4h4v-4z"/><path class="cls-3" d="M117.44 87.9h3.57v3.57h-3.57z"/><path class="cls-5" d="M117.66 88.12h3.12v3.13h-3.12v-3.13m-.45-.44v4h4v-4z"/><path class="cls-3" d="M117.44 95.93h3.57v3.57h-3.57z"/><path class="cls-5" d="M117.66 96.15h3.12v3.12h-3.12v-3.12m-.45-.45v4h4v-4z"/><path class="cls-3" d="M117.44 91.91h3.57v3.57h-3.57z"/><path class="cls-5" d="M117.66 92.14h3.12v3.12h-3.12v-3.12m-.45-.45v4h4v-4z"/><path class="cls-3" d="M117.44 99.95h3.57v3.56h-3.57z"/><path class="cls-5" d="M117.66 100.17h3.12v3.12h-3.12v-3.12m-.45-.44v4h4v-4z"/><path class="cls-3" d="M117.44 103.96h3.57v3.57h-3.57z"/><path class="cls-5" d="M117.66 104.18h3.12v3.13h-3.12v-3.13m-.45-.44v4h4v-4z"/><path class="cls-3" d="M117.44 107.98h3.57v3.57h-3.57z"/><path class="cls-5" d="M117.66 108.2h3.12v3.13h-3.12v-3.13m-.45-.44v4h4v-4z"/><path class="cls-3" d="M117.44 112h3.57v3.57h-3.57z"/><path class="cls-5" d="M117.66 112.22h3.12v3.12h-3.12v-3.12m-.45-.45v4h4v-4z"/><path class="cls-3" d="M117.44 116.01h3.57v3.57h-3.57z"/><path class="cls-5" d="M117.66 116.23h3.12v3.12h-3.12v-3.12m-.45-.44v4h4v-4z"/><path class="cls-3" d="M117.44 120.03h3.57v3.57h-3.57z"/><path class="cls-5" d="M117.66 120.25h3.12v3.12h-3.12v-3.12m-.45-.44v4h4v-4z"/><path class="cls-3" d="M117.44 124.04h3.57v3.57h-3.57z"/><path class="cls-5" d="M117.66 124.26h3.12v3.13h-3.12v-3.13m-.45-.45v4h4v-4z"/><path class="cls-3" d="M117.44 128.06h3.57v3.56h-3.57z"/><path class="cls-5" d="M117.66 128.28h3.12v3.12h-3.12v-3.12m-.45-.45v4h4v-4z"/><path class="cls-3" d="M117.44 136.09h3.57v3.57h-3.57z"/><path class="cls-5" d="M117.66 136.31h3.12v3.13h-3.12v-3.13m-.45-.44v4h4v-4z"/><path class="cls-3" d="M121.46 23.65h3.56v3.57h-3.56z"/><path class="cls-5" d="M121.68 23.87h3.12V27h-3.12v-3.13m-.45-.45v4h4v-4z"/><path class="cls-3" d="M121.46 27.67h3.56v3.56h-3.56z"/><path class="cls-5" d="M121.68 27.89h3.12V31h-3.12v-3.11m-.45-.45v4h4v-4z"/><path class="cls-3" d="M121.46 31.68h3.56v3.57h-3.56z"/><path class="cls-5" d="M121.68 31.9h3.12V35h-3.12v-3.1m-.45-.45v4h4v-4z"/><path class="cls-3" d="M121.46 39.71h3.56v3.57h-3.56z"/><path class="cls-5" d="M121.68 39.94h3.12v3.13h-3.12v-3.13m-.45-.45v4h4v-4z"/><path class="cls-3" d="M121.46 43.73h3.56v3.57h-3.56z"/><path class="cls-5" d="M121.68 43.95h3.12v3.13h-3.12v-3.13m-.45-.44v4h4v-4z"/><path class="cls-3" d="M121.46 47.74h3.56v3.57h-3.56z"/><path class="cls-5" d="M121.68 48h3.12v3.12h-3.12V48m-.45-.45v4h4v-4z"/><path class="cls-3" d="M121.46 55.77h3.56v3.57h-3.56z"/><path class="cls-5" d="M121.68 56h3.12v3.12h-3.12V56m-.45-.44v4h4v-4z"/><path class="cls-3" d="M121.46 59.79h3.56v3.57h-3.56z"/><path class="cls-5" d="M121.68 60h3.12v3.13h-3.12V60m-.45-.45v4h4v-4z"/><path class="cls-3" d="M121.46 63.81h3.56v3.57h-3.56z"/><path class="cls-5" d="M121.68 64h3.12v3.12h-3.12V64m-.45-.44v4h4v-4z"/><path class="cls-3" d="M121.46 71.84h3.56v3.57h-3.56z"/><path class="cls-5" d="M121.68 72.06h3.12v3.12h-3.12v-3.12m-.45-.44v4h4v-4z"/><path class="cls-3" d="M121.46 75.85h3.56v3.57h-3.56z"/><path class="cls-5" d="M121.68 76.08h3.12v3.12h-3.12v-3.12m-.45-.45v4h4v-4z"/><path class="cls-3" d="M121.46 79.87h3.56v3.57h-3.56z"/><path class="cls-5" d="M121.68 80.09h3.12v3.13h-3.12v-3.13m-.45-.44v4h4v-4z"/><path class="cls-3" d="M121.46 87.9h3.56v3.57h-3.56z"/><path class="cls-5" d="M121.68 88.12h3.12v3.13h-3.12v-3.13m-.45-.44v4h4v-4z"/><path class="cls-3" d="M121.46 95.93h3.56v3.57h-3.56z"/><path class="cls-5" d="M121.68 96.15h3.12v3.12h-3.12v-3.12m-.45-.45v4h4v-4z"/><path class="cls-3" d="M121.46 91.91h3.56v3.57h-3.56z"/><path class="cls-5" d="M121.68 92.14h3.12v3.12h-3.12v-3.12m-.45-.45v4h4v-4z"/><path class="cls-3" d="M121.46 103.96h3.56v3.57h-3.56z"/><path class="cls-5" d="M121.68 104.18h3.12v3.13h-3.12v-3.13m-.45-.44v4h4v-4z"/><path class="cls-3" d="M121.46 107.98h3.56v3.57h-3.56z"/><path class="cls-5" d="M121.68 108.2h3.12v3.13h-3.12v-3.13m-.45-.44v4h4v-4z"/><path class="cls-3" d="M121.46 112h3.56v3.57h-3.56z"/><path class="cls-5" d="M121.68 112.22h3.12v3.12h-3.12v-3.12m-.45-.45v4h4v-4z"/><path class="cls-3" d="M121.46 120.03h3.56v3.57h-3.56z"/><path class="cls-5" d="M121.68 120.25h3.12v3.12h-3.12v-3.12m-.45-.44v4h4v-4z"/><path class="cls-3" d="M121.46 124.04h3.56v3.57h-3.56z"/><path class="cls-5" d="M121.68 124.26h3.12v3.13h-3.12v-3.13m-.45-.45v4h4v-4z"/><path class="cls-3" d="M125.47 27.67h3.57v3.56h-3.57z"/><path class="cls-5" d="M125.69 27.89h3.11V31h-3.11v-3.11m-.45-.45v4h4v-4z"/><path class="cls-3" d="M125.47 43.73h3.57v3.57h-3.57z"/><path class="cls-5" d="M125.69 43.95h3.11v3.13h-3.11v-3.13m-.45-.44v4h4v-4z"/><path class="cls-3" d="M125.47 59.79h3.57v3.57h-3.57z"/><path class="cls-5" d="M125.69 60h3.11v3.13h-3.11V60m-.45-.45v4h4v-4z"/><path class="cls-3" d="M125.47 75.85h3.57v3.57h-3.57z"/><path class="cls-5" d="M125.69 76.08h3.11v3.12h-3.11v-3.12m-.45-.45v4h4v-4z"/><path class="cls-3" d="M125.47 91.91h3.57v3.57h-3.57z"/><path class="cls-5" d="M125.69 92.14h3.11v3.12h-3.11v-3.12m-.45-.45v4h4v-4z"/><path class="cls-3" d="M125.47 107.98h3.57v3.57h-3.57z"/><path class="cls-5" d="M125.69 108.2h3.11v3.13h-3.11v-3.13m-.45-.44v4h4v-4z"/><path class="cls-3" d="M125.47 124.04h3.57v3.57h-3.57z"/><path class="cls-5" d="M125.69 124.26h3.11v3.13h-3.11v-3.13m-.45-.45v4h4v-4z"/><path class="cls-3" d="M121.46 128.06h3.56v3.56h-3.56z"/><path class="cls-5" d="M121.68 128.28h3.12v3.12h-3.12v-3.12m-.45-.45v4h4v-4z"/><path class="cls-3" d="M121.46 136.09h3.56v3.57h-3.56z"/><path class="cls-5" d="M121.68 136.31h3.12v3.13h-3.12v-3.13m-.45-.44v4h4v-4z"/><path class="cls-3" d="M117.44 132.07h3.57v3.56h-3.57z"/><path class="cls-5" d="M117.66 132.29h3.12v3.12h-3.12v-3.12m-.45-.44v4h4v-4z"/><path class="cls-6" d="M49.16 11.6h3.58v3.57h-3.58z"/><path class="cls-5" d="M49.39 11.82h3.12V15h-3.12v-3.18m-.45-.45v4h4v-4z"/><path class="cls-6" d="M49.16 15.61h3.58v3.57h-3.58z"/><path class="cls-5" d="M49.39 15.84h3.12V19h-3.12v-3.16m-.45-.44v4h4v-4z"/><path class="cls-6" d="M49.16 19.63h3.58v3.57h-3.58z"/><path class="cls-5" d="M49.39 19.86h3.12V23h-3.12v-3.14m-.45-.45v4h4v-4z"/><path class="cls-6" d="M49.16 23.65h3.58v3.57h-3.58z"/><path class="cls-5" d="M49.39 23.87h3.12V27h-3.12v-3.13m-.45-.45v4h4v-4z"/><path class="cls-6" d="M49.16 27.67h3.58v3.56h-3.58z"/><path class="cls-5" d="M49.39 27.89h3.12V31h-3.12v-3.11m-.45-.45v4h4v-4z"/><path class="cls-6" d="M49.16 31.68h3.58v3.57h-3.58z"/><path class="cls-5" d="M49.39 31.9h3.12V35h-3.12v-3.1m-.45-.45v4h4v-4z"/><path class="cls-6" d="M49.16 35.7h3.58v3.57h-3.58z"/><path class="cls-5" d="M49.39 35.92h3.12V39h-3.12v-3.08m-.45-.44v4h4v-4z"/><path class="cls-6" d="M49.16 39.71h3.58v3.57h-3.58z"/><path class="cls-5" d="M49.39 39.94h3.12v3.13h-3.12v-3.13m-.45-.45v4h4v-4z"/><path class="cls-6" d="M49.16 47.74h3.58v3.57h-3.58z"/><path class="cls-5" d="M49.39 48h3.12v3.12h-3.12V48m-.45-.45v4h4v-4z"/><path class="cls-6" d="M49.16 43.73h3.58v3.57h-3.58z"/><path class="cls-5" d="M49.39 43.95h3.12v3.13h-3.12v-3.13m-.45-.44v4h4v-4z"/><path class="cls-6" d="M49.16 51.76h3.58v3.57h-3.58z"/><path class="cls-5" d="M49.39 52h3.12v3.13h-3.12V52m-.45-.45v4h4v-4z"/><path class="cls-6" d="M49.16 55.77h3.58v3.57h-3.58z"/><path class="cls-5" d="M49.39 56h3.12v3.12h-3.12V56m-.45-.44v4h4v-4z"/><path class="cls-6" d="M49.16 59.79h3.58v3.57h-3.58z"/><path class="cls-5" d="M49.39 60h3.12v3.13h-3.12V60m-.45-.45v4h4v-4z"/><path class="cls-6" d="M49.16 63.81h3.58v3.57h-3.58z"/><path class="cls-5" d="M49.39 64h3.12v3.12h-3.12V64m-.45-.44v4h4v-4z"/><path class="cls-6" d="M49.16 67.82h3.58v3.57h-3.58z"/><path class="cls-5" d="M49.39 68h3.12v3.12h-3.12V68m-.45-.45v4h4v-4z"/><path class="cls-6" d="M49.16 71.84h3.58v3.57h-3.58z"/><path class="cls-5" d="M49.39 72.06h3.12v3.12h-3.12v-3.12m-.45-.44v4h4v-4z"/><path class="cls-6" d="M49.16 75.85h3.58v3.57h-3.58z"/><path class="cls-5" d="M49.39 76.08h3.12v3.12h-3.12v-3.12m-.45-.45v4h4v-4z"/><path class="cls-6" d="M49.16 79.87h3.58v3.57h-3.58z"/><path class="cls-5" d="M49.39 80.09h3.12v3.13h-3.12v-3.13m-.45-.44v4h4v-4z"/><path class="cls-6" d="M49.16 87.9h3.58v3.57h-3.58z"/><path class="cls-5" d="M49.39 88.12h3.12v3.13h-3.12v-3.13m-.45-.44v4h4v-4z"/><path class="cls-6" d="M49.16 83.89h3.58v3.57h-3.58z"/><path class="cls-5" d="M49.39 84.11h3.12v3.12h-3.12v-3.12m-.45-.44v4h4v-4z"/><path class="cls-6" d="M49.16 91.91h3.58v3.57h-3.58z"/><path class="cls-5" d="M49.39 92.14h3.12v3.12h-3.12v-3.12m-.45-.45v4h4v-4z"/><path class="cls-6" d="M49.16 95.93h3.58v3.57h-3.58z"/><path class="cls-5" d="M49.39 96.15h3.12v3.12h-3.12v-3.12m-.45-.45v4h4v-4z"/><path class="cls-6" d="M49.16 99.95h3.58v3.56h-3.58z"/><path class="cls-5" d="M49.39 100.17h3.12v3.12h-3.12v-3.12m-.45-.44v4h4v-4z"/><path class="cls-6" d="M49.16 103.96h3.58v3.57h-3.58z"/><path class="cls-5" d="M49.39 104.18h3.12v3.13h-3.12v-3.13m-.45-.44v4h4v-4z"/><path class="cls-6" d="M49.16 107.98h3.58v3.57h-3.58z"/><path class="cls-5" d="M49.39 108.2h3.12v3.13h-3.12v-3.13m-.45-.44v4h4v-4z"/><path class="cls-6" d="M49.16 112h3.58v3.57h-3.58z"/><path class="cls-5" d="M49.39 112.22h3.12v3.12h-3.12v-3.12m-.45-.45v4h4v-4z"/><path class="cls-6" d="M49.16 116.01h3.58v3.57h-3.58z"/><path class="cls-5" d="M49.39 116.23h3.12v3.12h-3.12v-3.12m-.45-.44v4h4v-4z"/><path class="cls-6" d="M49.16 120.03h3.58v3.57h-3.58z"/><path class="cls-5" d="M49.39 120.25h3.12v3.12h-3.12v-3.12m-.45-.44v4h4v-4z"/><path class="cls-6" d="M49.16 128.06h3.58v3.56h-3.58z"/><path class="cls-5" d="M49.39 128.28h3.12v3.12h-3.12v-3.12m-.45-.45v4h4v-4z"/><path class="cls-6" d="M53.19 15.61h3.57v3.57h-3.57z"/><path class="cls-5" d="M53.41 15.84h3.12V19h-3.12v-3.16m-.41-.45v4h4v-4z"/><path class="cls-6" d="M53.19 19.63h3.57v3.57h-3.57z"/><path class="cls-5" d="M53.41 19.86h3.12V23h-3.12v-3.14m-.41-.45v4h4v-4z"/><path class="cls-6" d="M53.19 23.65h3.57v3.57h-3.57z"/><path class="cls-5" d="M53.41 23.87h3.12V27h-3.12v-3.13m-.41-.45v4h4v-4z"/><path class="cls-6" d="M53.19 31.68h3.57v3.57h-3.57z"/><path class="cls-5" d="M53.41 31.9h3.12V35h-3.12v-3.1m-.41-.44v4h4v-4z"/><path class="cls-6" d="M53.19 35.7h3.57v3.57h-3.57z"/><path class="cls-5" d="M53.41 35.92h3.12V39h-3.12v-3.08m-.41-.44v4h4v-4z"/><path class="cls-6" d="M53.19 39.71h3.57v3.57h-3.57z"/><path class="cls-5" d="M53.41 39.94h3.12v3.13h-3.12v-3.13m-.41-.45v4h4v-4z"/><path class="cls-6" d="M53.19 47.74h3.57v3.57h-3.57z"/><path class="cls-5" d="M53.41 48h3.12v3.12h-3.12V48m-.41-.48v4h4v-4z"/><path class="cls-6" d="M53.19 51.76h3.57v3.57h-3.57z"/><path class="cls-5" d="M53.41 52h3.12v3.13h-3.12V52m-.41-.47v4h4v-4z"/><path class="cls-6" d="M53.19 55.77h3.57v3.57h-3.57z"/><path class="cls-5" d="M53.41 56h3.12v3.12h-3.12V56m-.41-.45v4h4v-4z"/><path class="cls-6" d="M53.19 63.81h3.57v3.57h-3.57z"/><path class="cls-5" d="M53.41 64h3.12v3.12h-3.12V64m-.41-.41v4h4v-4z"/><path class="cls-6" d="M53.19 67.82h3.57v3.57h-3.57z"/><path class="cls-5" d="M53.41 68h3.12v3.12h-3.12V68m-.41-.4v4h4v-4z"/><path class="cls-6" d="M53.19 71.84h3.57v3.57h-3.57z"/><path class="cls-5" d="M53.41 72.06h3.12v3.12h-3.12v-3.12m-.41-.44v4h4v-4z"/><path class="cls-6" d="M53.19 79.87h3.57v3.57h-3.57z"/><path class="cls-5" d="M53.41 80.09h3.12v3.13h-3.12v-3.13m-.41-.45v4h4v-4z"/><path class="cls-6" d="M53.19 87.9h3.57v3.57h-3.57z"/><path class="cls-5" d="M53.41 88.12h3.12v3.13h-3.12v-3.13m-.41-.44v4h4v-4z"/><path class="cls-6" d="M53.19 83.89h3.57v3.57h-3.57z"/><path class="cls-5" d="M53.41 84.11h3.12v3.12h-3.12v-3.12m-.41-.45v4h4v-4z"/><path class="cls-6" d="M53.19 95.93h3.57v3.57h-3.57z"/><path class="cls-5" d="M53.41 96.15h3.12v3.12h-3.12v-3.12M53 95.7v4h4v-4z"/><path class="cls-6" d="M53.19 99.95h3.57v3.56h-3.57z"/><path class="cls-5" d="M53.41 100.17h3.12v3.12h-3.12v-3.12m-.41-.44v4h4v-4z"/><path class="cls-6" d="M53.19 103.96h3.57v3.57h-3.57z"/><path class="cls-5" d="M53.41 104.18h3.12v3.13h-3.12v-3.13m-.45-.44v4h4v-4z"/><path class="cls-6" d="M53.19 112h3.57v3.57h-3.57z"/><path class="cls-5" d="M53.41 112.22h3.12v3.12h-3.12v-3.12m-.45-.45v4h4v-4z"/><path class="cls-6" d="M53.19 116.01h3.57v3.57h-3.57z"/><path class="cls-5" d="M53.41 116.23h3.12v3.12h-3.12v-3.12m-.45-.44v4h4v-4z"/><path class="cls-6" d="M57.2 19.63h3.57v3.57H57.2z"/><path class="cls-5" d="M57.42 19.86h3.12V23h-3.12v-3.14m-.42-.45v4h4v-4z"/><path class="cls-6" d="M57.2 35.7h3.57v3.57H57.2z"/><path class="cls-5" d="M57.42 35.92h3.12V39h-3.12v-3.08m-.42-.44v4h4v-4z"/><path class="cls-6" d="M57.2 51.76h3.57v3.57H57.2z"/><path class="cls-5" d="M57.42 52h3.12v3.13h-3.12V52m-.42-.47v4h4v-4z"/><path class="cls-6" d="M57.2 67.82h3.57v3.57H57.2z"/><path class="cls-5" d="M57.42 68h3.12v3.12h-3.12V68m-.42-.4v4h4v-4z"/><path class="cls-6" d="M57.2 83.89h3.57v3.57H57.2z"/><path class="cls-5" d="M57.42 84.11h3.12v3.12h-3.12v-3.12m-.42-.45v4h4v-4z"/><path class="cls-6" d="M57.2 99.95h3.57v3.56H57.2z"/><path class="cls-5" d="M57.42 100.17h3.12v3.12h-3.12v-3.12m-.42-.44v4h4v-4z"/><path class="cls-6" d="M57.2 116.01h3.57v3.57H57.2z"/><path class="cls-5" d="M57.42 116.23h3.12v3.12h-3.12v-3.12m-.44-.44v4h4v-4z"/><path class="cls-6" d="M53.19 120.03h3.57v3.57h-3.57z"/><path class="cls-5" d="M53.41 120.25h3.12v3.12h-3.12v-3.12m-.45-.44v4h4v-4z"/><path class="cls-6" d="M53.19 128.06h3.57v3.56h-3.57z"/><path class="cls-5" d="M53.41 128.28h3.12v3.12h-3.12v-3.12m-.45-.45v4h4v-4z"/><path class="cls-6" d="M49.16 124.04h3.58v3.57h-3.58z"/><path class="cls-5" d="M49.39 124.26h3.12v3.13h-3.12v-3.13m-.45-.45v4h4v-4z"/><path class="cls-3" d="M61.22 19.63h3.57v3.57h-3.57z"/><path class="cls-5" d="M61.44 19.86h3.12V23h-3.12v-3.14m-.44-.45v4h4v-4z"/><path class="cls-3" d="M61.22 23.65h3.57v3.57h-3.57z"/><path class="cls-5" d="M61.44 23.87h3.12V27h-3.12v-3.13m-.44-.45v4h4v-4z"/><path class="cls-3" d="M61.22 27.67h3.57v3.56h-3.57z"/><path class="cls-5" d="M61.44 27.89h3.12V31h-3.12v-3.11m-.44-.45v4h4v-4z"/><path class="cls-3" d="M61.22 31.68h3.57v3.57h-3.57z"/><path class="cls-5" d="M61.44 31.9h3.12V35h-3.12v-3.1m-.44-.44v4h4v-4z"/><path class="cls-3" d="M61.22 35.7h3.57v3.57h-3.57z"/><path class="cls-5" d="M61.44 35.92h3.12V39h-3.12v-3.08m-.44-.44v4h4v-4z"/><path class="cls-3" d="M61.22 39.71h3.57v3.57h-3.57z"/><path class="cls-5" d="M61.44 39.94h3.12v3.13h-3.12v-3.13m-.44-.45v4h4v-4z"/><path class="cls-3" d="M61.22 43.73h3.57v3.57h-3.57z"/><path class="cls-5" d="M61.44 43.95h3.12v3.13h-3.12v-3.13M61 43.5v4h4v-4z"/><path class="cls-3" d="M61.22 47.74h3.57v3.57h-3.57z"/><path class="cls-5" d="M61.44 48h3.12v3.12h-3.12V48m-.44-.48v4h4v-4z"/><path class="cls-3" d="M61.22 55.77h3.57v3.57h-3.57z"/><path class="cls-5" d="M61.44 56h3.12v3.12h-3.12V56m-.44-.45v4h4v-4z"/><path class="cls-3" d="M61.22 51.76h3.57v3.57h-3.57z"/><path class="cls-5" d="M61.44 52h3.12v3.13h-3.12V52m-.44-.47v4h4v-4z"/><path class="cls-3" d="M61.22 59.79h3.57v3.57h-3.57z"/><path class="cls-5" d="M61.44 60h3.12v3.13h-3.12V60m-.44-.44v4h4v-4z"/><path class="cls-3" d="M61.22 63.81h3.57v3.57h-3.57z"/><path class="cls-5" d="M61.44 64h3.12v3.12h-3.12V64m-.44-.41v4h4v-4z"/><path class="cls-3" d="M61.22 67.82h3.57v3.57h-3.57z"/><path class="cls-5" d="M61.44 68h3.12v3.12h-3.12V68m-.44-.4v4h4v-4z"/><path class="cls-3" d="M61.22 71.84h3.57v3.57h-3.57z"/><path class="cls-5" d="M61.44 72.06h3.12v3.12h-3.12v-3.12m-.44-.44v4h4v-4z"/><path class="cls-3" d="M61.22 75.85h3.57v3.57h-3.57z"/><path class="cls-5" d="M61.44 76.08h3.12v3.12h-3.12v-3.12m-.44-.45v4h4v-4z"/><path class="cls-3" d="M61.22 79.87h3.57v3.57h-3.57z"/><path class="cls-5" d="M61.44 80.09h3.12v3.13h-3.12v-3.13m-.44-.45v4h4v-4z"/><path class="cls-3" d="M61.22 83.89h3.57v3.57h-3.57z"/><path class="cls-5" d="M61.44 84.11h3.12v3.12h-3.12v-3.12m-.44-.45v4h4v-4z"/><path class="cls-3" d="M61.22 87.9h3.57v3.57h-3.57z"/><path class="cls-5" d="M61.44 88.12h3.12v3.13h-3.12v-3.13m-.44-.44v4h4v-4z"/><path class="cls-3" d="M61.22 95.93h3.57v3.57h-3.57z"/><path class="cls-5" d="M61.44 96.15h3.12v3.12h-3.12v-3.12M61 95.7v4h4v-4z"/><path class="cls-3" d="M61.22 91.91h3.57v3.57h-3.57z"/><path class="cls-5" d="M61.44 92.14h3.12v3.12h-3.12v-3.12m-.44-.45v4h4v-4z"/><path class="cls-3" d="M61.22 99.95h3.57v3.56h-3.57z"/><path class="cls-5" d="M61.44 100.17h3.12v3.12h-3.12v-3.12m-.44-.44v4h4v-4z"/><path class="cls-3" d="M61.22 103.96h3.57v3.57h-3.57z"/><path class="cls-5" d="M61.44 104.18h3.12v3.13h-3.12v-3.13m-.44-.44v4h4v-4z"/><path class="cls-3" d="M61.22 107.98h3.57v3.57h-3.57z"/><path class="cls-5" d="M61.44 108.2h3.12v3.13h-3.12v-3.13m-.44-.44v4h4v-4z"/><path class="cls-3" d="M61.22 112h3.57v3.57h-3.57z"/><path class="cls-5" d="M61.44 112.22h3.12v3.12h-3.12v-3.12m-.44-.45v4h4v-4z"/><path class="cls-3" d="M61.22 116.01h3.57v3.57h-3.57z"/><path class="cls-5" d="M61.44 116.23h3.12v3.12h-3.12v-3.12m-.44-.44v4h4v-4z"/><path class="cls-3" d="M61.22 120.03h3.57v3.57h-3.57z"/><path class="cls-5" d="M61.44 120.25h3.12v3.12h-3.12v-3.12m-.44-.44v4h4v-4z"/><path class="cls-3" d="M61.22 124.04h3.57v3.57h-3.57z"/><path class="cls-5" d="M61.44 124.26h3.12v3.13h-3.12v-3.13m-.44-.45v4h4v-4z"/><path class="cls-3" d="M61.22 128.06h3.57v3.56h-3.57z"/><path class="cls-5" d="M61.44 128.28h3.12v3.12h-3.12v-3.12m-.44-.45v4h4v-4z"/><path class="cls-3" d="M61.22 136.09h3.57v3.57h-3.57z"/><path class="cls-5" d="M61.44 136.31h3.12v3.13h-3.12v-3.13m-.44-.44v4h4v-4z"/><path class="cls-3" d="M57.2 23.65h3.57v3.57H57.2z"/><path class="cls-5" d="M57.42 23.87h3.12V27h-3.12v-3.13m-.42-.45v4h4v-4z"/><path class="cls-3" d="M57.2 27.67h3.57v3.56H57.2z"/><path class="cls-5" d="M57.42 27.89h3.12V31h-3.12v-3.11m-.42-.45v4h4v-4z"/><path class="cls-3" d="M57.2 31.68h3.57v3.57H57.2z"/><path class="cls-5" d="M57.42 31.9h3.12V35h-3.12v-3.1m-.42-.44v4h4v-4z"/><path class="cls-3" d="M57.2 39.71h3.57v3.57H57.2z"/><path class="cls-5" d="M57.42 39.94h3.12v3.13h-3.12v-3.13m-.42-.45v4h4v-4z"/><path class="cls-3" d="M57.2 43.73h3.57v3.57H57.2z"/><path class="cls-5" d="M57.42 43.95h3.12v3.13h-3.12v-3.13M57 43.5v4h4v-4z"/><path class="cls-3" d="M57.2 47.74h3.57v3.57H57.2z"/><path class="cls-5" d="M57.42 48h3.12v3.12h-3.12V48m-.42-.48v4h4v-4z"/><path class="cls-3" d="M57.2 55.77h3.57v3.57H57.2z"/><path class="cls-5" d="M57.42 56h3.12v3.12h-3.12V56m-.42-.45v4h4v-4z"/><path class="cls-3" d="M57.2 59.79h3.57v3.57H57.2z"/><path class="cls-5" d="M57.42 60h3.12v3.13h-3.12V60m-.42-.44v4h4v-4z"/><path class="cls-3" d="M57.2 63.81h3.57v3.57H57.2z"/><path class="cls-5" d="M57.42 64h3.12v3.12h-3.12V64m-.42-.41v4h4v-4z"/><path class="cls-3" d="M57.2 71.84h3.57v3.57H57.2z"/><path class="cls-5" d="M57.42 72.06h3.12v3.12h-3.12v-3.12m-.42-.44v4h4v-4z"/><path class="cls-3" d="M57.2 75.85h3.57v3.57H57.2z"/><path class="cls-5" d="M57.42 76.08h3.12v3.12h-3.12v-3.12m-.42-.45v4h4v-4z"/><path class="cls-3" d="M57.2 79.87h3.57v3.57H57.2z"/><path class="cls-5" d="M57.42 80.09h3.12v3.13h-3.12v-3.13m-.42-.45v4h4v-4z"/><path class="cls-3" d="M57.2 87.9h3.57v3.57H57.2z"/><path class="cls-5" d="M57.42 88.12h3.12v3.13h-3.12v-3.13m-.42-.44v4h4v-4z"/><path class="cls-3" d="M57.2 95.93h3.57v3.57H57.2z"/><path class="cls-5" d="M57.42 96.15h3.12v3.12h-3.12v-3.12M57 95.7v4h4v-4z"/><path class="cls-3" d="M57.2 91.91h3.57v3.57H57.2z"/><path class="cls-5" d="M57.42 92.14h3.12v3.12h-3.12v-3.12m-.42-.45v4h4v-4z"/><path class="cls-3" d="M57.2 103.96h3.57v3.57H57.2z"/><path class="cls-5" d="M57.42 104.18h3.12v3.13h-3.12v-3.13m-.44-.44v4h4v-4z"/><path class="cls-3" d="M57.2 107.98h3.57v3.57H57.2z"/><path class="cls-5" d="M57.42 108.2h3.12v3.13h-3.12v-3.13m-.44-.44v4h4v-4z"/><path class="cls-3" d="M57.2 112h3.57v3.57H57.2z"/><path class="cls-5" d="M57.42 112.22h3.12v3.12h-3.12v-3.12m-.44-.45v4h4v-4z"/><path class="cls-3" d="M57.2 120.03h3.57v3.57H57.2z"/><path class="cls-5" d="M57.42 120.25h3.12v3.12h-3.12v-3.12m-.44-.44v4h4v-4z"/><path class="cls-3" d="M57.2 124.04h3.57v3.57H57.2z"/><path class="cls-5" d="M57.42 124.26h3.12v3.13h-3.12v-3.13m-.44-.45v4h4v-4z"/><path class="cls-3" d="M53.19 27.67h3.57v3.56h-3.57z"/><path class="cls-5" d="M53.41 27.89h3.12V31h-3.12v-3.11m-.41-.45v4h4v-4z"/><path class="cls-3" d="M53.19 43.73h3.57v3.57h-3.57z"/><path class="cls-5" d="M53.41 43.95h3.12v3.13h-3.12v-3.13M53 43.5v4h4v-4z"/><path class="cls-3" d="M53.19 59.79h3.57v3.57h-3.57z"/><path class="cls-5" d="M53.41 60h3.12v3.13h-3.12V60m-.41-.44v4h4v-4z"/><path class="cls-3" d="M53.19 75.85h3.57v3.57h-3.57z"/><path class="cls-5" d="M53.41 76.08h3.12v3.12h-3.12v-3.12m-.41-.45v4h4v-4z"/><path class="cls-3" d="M53.19 91.91h3.57v3.57h-3.57z"/><path class="cls-5" d="M53.41 92.14h3.12v3.12h-3.12v-3.12m-.41-.45v4h4v-4z"/><path class="cls-3" d="M53.19 107.98h3.57v3.57h-3.57z"/><path class="cls-5" d="M53.41 108.2h3.12v3.13h-3.12v-3.13m-.45-.44v4h4v-4z"/><path class="cls-3" d="M53.19 124.04h3.57v3.57h-3.57z"/><path class="cls-5" d="M53.41 124.26h3.12v3.13h-3.12v-3.13m-.45-.45v4h4v-4z"/><path class="cls-3" d="M57.2 128.06h3.57v3.56H57.2z"/><path class="cls-5" d="M57.42 128.28h3.12v3.12h-3.12v-3.12m-.44-.45v4h4v-4z"/><path class="cls-3" d="M57.2 136.09h3.57v3.57H57.2z"/><path class="cls-5" d="M57.42 136.31h3.12v3.13h-3.12v-3.13m-.44-.44v4h4v-4z"/><path class="cls-3" d="M61.22 132.07h3.57v3.56h-3.57z"/><path class="cls-5" d="M61.44 132.29h3.12v3.12h-3.12v-3.12m-.44-.44v4h4v-4z"/><g class="cls-7"><path class="cls-5" d="M77.06 21.86h28.11v80.32H77.06z"/><path class="cls-6" d="M84.15 78.09L76.1 53.92l8-16-8.24-16.45 1.59-.8 8.63 17.26L78 54.06l8 24-7.73 23.2h6.1l5.8-23.2-6-24.15 6-16L83.8 21h14.62l-6.36 17 6 16L92 78.09l5.79 23.2h6.09l-7.68-23.2 8-24-8.06-16.16 8.63-17.26 1.6.8-8.24 16.46 8 16-8.05 24.16 8.32 25h-10l-5.29-21.33-5.33 21.31h-10zm7-37.62L86 54l5.11 20.4L96.2 54zm-4.78-17.71l4.74 12.63 4.74-12.63z"/></g><path class="cls-5" d="M77.06 19.86h28.11v6.02H77.06z"/><path class="cls-6" d="M76.86 19.66h28.5v6.41h-28.5zM105 20H77.25v5.63H105z"/><path class="cls-6" d="M101.69 19.86l3.48 6.02h-6.96l3.48-6.02 3.48 6.02h-6.96l3.48-6.02zm-6.95 0l3.47 6.02h-6.96l3.49-6.02 3.47 6.02h-6.96l3.49-6.02zm-7.11 0l3.48 6.02h-6.95l3.47-6.02 3.48 6.02h-6.95l3.47-6.02zm-7.1 0l3.49 6.02h-6.96l3.47-6.02 3.49 6.02h-6.96l3.47-6.02zm-3.47 78.08h28.11v6.02H77.06z"/><path class="cls-5" d="M101.69 97.94l3.48 6.02h-6.96l3.48-6.02 3.48 6.02h-6.96l3.48-6.02zm-6.95 0l3.47 6.02h-6.96l3.49-6.02 3.47 6.02h-6.96l3.49-6.02zm-7.11 0l3.48 6.02h-6.95l3.47-6.02 3.48 6.02h-6.95l3.47-6.02zm-7.1 0l3.49 6.02h-6.96l3.47-6.02 3.49 6.02h-6.96l3.47-6.02z"/><path class="cls-6" d="M77.06 0h28.11v19.86H77.06zm0 103.96h28.11v19.86H77.06z"/><path class="cls-5" d="M89.1 4.02h4.02v4.01H89.1z"/><path class="cls-6" d="M88.88 3.8h4.46v4.45h-4.46zm4 .44h-3.56v3.57h3.58z"/><path class="cls-5" d="M89.1 8.03h4.02v4.02H89.1z"/><path class="cls-6" d="M88.88 7.81h4.46v4.46h-4.46zm4 .44h-3.56v3.57h3.58z"/><path class="cls-5" d="M85.09 8.03h4.02v4.02h-4.02z"/><path class="cls-6" d="M84.86 7.81h4.46v4.46h-4.46zm4 .44h-3.55v3.57h3.57z"/><path class="cls-5" d="M93.12 8.03h4.02v4.02h-4.02z"/><path class="cls-6" d="M92.9 7.81h4.46v4.46H92.9zm4 .44h-3.56v3.57h3.57z"/><path class="cls-5" d="M93.12 12.05h4.02v4.01h-4.02z"/><path class="cls-6" d="M92.9 11.82h4.46v4.46H92.9zm4 .45h-3.56v3.56h3.57z"/><path class="cls-5" d="M97.14 12.05h4.01v4.01h-4.01z"/><path class="cls-6" d="M96.91 11.82h4.47v4.46h-4.47zm4 .45h-3.55v3.56h3.57z"/><path class="cls-5" d="M89.1 12.05h4.02v4.01H89.1z"/><path class="cls-6" d="M88.88 11.82h4.46v4.46h-4.46zm4 .45h-3.56v3.56h3.58z"/><path class="cls-5" d="M85.09 12.05h4.02v4.01h-4.02z"/><path class="cls-6" d="M84.86 11.82h4.46v4.46h-4.46zm4 .45h-3.55v3.56h3.57z"/><path class="cls-5" d="M81.07 12.05h4.01v4.01h-4.01z"/><path class="cls-6" d="M80.85 11.82h4.46v4.46h-4.46zm4 .45H81.3v3.56h3.56z"/><path class="cls-5" d="M89.1 116.45h4.02v4.02H89.1z"/><path class="cls-6" d="M88.88 116.23h4.46v4.47h-4.46zm4 .45h-3.56v3.57h3.58z"/><path class="cls-5" d="M89.1 112.44h4.02v4.01H89.1z"/><path class="cls-6" d="M88.88 112.22h4.46v4.46h-4.46zm4 .44h-3.56v3.57h3.58z"/><path class="cls-5" d="M85.09 112.44h4.02v4.01h-4.02z"/><path class="cls-6" d="M84.86 112.22h4.46v4.46h-4.46zm4 .44h-3.55v3.57h3.57z"/><path class="cls-5" d="M93.12 112.44h4.02v4.01h-4.02z"/><path class="cls-6" d="M92.9 112.22h4.46v4.46H92.9zm4 .44h-3.56v3.57h3.57z"/><path class="cls-5" d="M93.12 108.42h4.02v4.02h-4.02z"/><path class="cls-6" d="M92.9 108.2h4.46v4.46H92.9zm4 .45h-3.56v3.57h3.57z"/><path class="cls-5" d="M97.14 108.42h4.01v4.02h-4.01z"/><path class="cls-6" d="M96.91 108.2h4.47v4.46h-4.47zm4 .45h-3.55v3.57h3.57z"/><path class="cls-5" d="M89.1 108.42h4.02v4.02H89.1z"/><path class="cls-6" d="M88.88 108.2h4.46v4.46h-4.46zm4 .45h-3.56v3.57h3.58z"/><path class="cls-5" d="M85.09 108.42h4.02v4.02h-4.02z"/><path class="cls-6" d="M84.86 108.2h4.46v4.46h-4.46zm4 .45h-3.55v3.57h3.57z"/><path class="cls-5" d="M81.07 108.42h4.01v4.02h-4.01z"/><path class="cls-6" d="M80.85 108.2h4.46v4.46h-4.46zm4 .45H81.3v3.57h3.56z"/></g><g class="cls-8"><path class="cls-9" d="M319.28 74.51c-5.51 6.85-33.3 39.19-73 46.7-24.86 4.69-54.4 1.62-86.1 1.62-38.05 0-73 1.87-100.47-4.68C27.77 110.54 6 81.42 1.05 74.34c49.48 3.41 103.61 5.3 160.34 5.3 55.78 0 109.06-1.82 157.89-5.13z"/></g><path class="cls-5" d="M160.14 32.55c27.55 0 59.29 1.14 85.78 9.55 23.46 7.45 42.66 19.28 55.37 27.12 3.19 2 5.94 3.66 8.3 5 1 .58 2 1.06 2.84 1.46A151.43 151.43 0 0 1 296.9 90.8a134.31 134.31 0 0 1-22.56 15.5 100.22 100.22 0 0 1-28.93 10.52c-9.28 1.75-19.72 2.53-33.89 2.53-7.78 0-15.75-.23-24.17-.47-8.81-.26-17.92-.52-27.21-.52-7.07 0-14.09.06-20.86.13s-13 .12-19.23.12c-20.36 0-41.63-.58-59.34-4.81-26.15-6.23-45.43-28.06-53.2-38.18.56-.26 1.14-.56 1.75-.9 2.64-1.49 6-3.77 10-6.41 10.76-7.19 25.5-17 42.18-23.23C91.21 34 128 32.55 160.14 32.55m0-4.46c-39 0-72.48 2.51-100.26 12.81-23.52 8.72-43.57 24.71-52.81 29.93a13.11 13.11 0 0 1-6.27 2 3.51 3.51 0 0 1-.8-.07s23.28 36.69 59.66 45.37c17.48 4.17 38 4.93 60.38 4.93 12.82 0 26.25-.25 40.09-.25 18 0 35.26 1 51.38 1 12.31 0 24-.58 34.71-2.61 44.52-8.41 74-48 74-48h-.18c-.72 0-3.59-.2-8.3-2.89-11.66-6.66-34.66-23-64.53-32.51-25.08-8-55-9.76-87.13-9.76z"/></g></g></g></svg>