<svg xmlns="http://www.w3.org/2000/svg" viewBox="0 0 320.28 139.88"><defs><style>.cls-1{fill:none}.cls-2{isolation:isolate}.cls-3{fill:#e30613}.cls-4{clip-path:url(#clip-path)}.cls-5{fill:#1d1d1b}.cls-6{fill:#fff}.cls-7{clip-path:url(#clip-path-2)}.cls-8{opacity:.18;mix-blend-mode:hard-light}.cls-9{fill:#1d1612}</style><clipPath id="clip-path"><path class="cls-1" d="M320.28 72.78s-23.28 36.69-59.66 45.37c-27.48 6.55-62.42 4.68-100.47 4.68-31.69 0-61.24 3.07-86.1-1.62-44.52-8.41-74-48-74-48s3 .27 8.48-2.88c11.66-6.66 34.66-23 64.53-32.51 25.08-8 55-9.76 87.13-9.76 39 0 72.48 2.51 100.26 12.81 23.52 8.72 43.56 24.71 52.8 29.94 4.55 2.62 7.03 1.97 7.03 1.97z"/></clipPath><clipPath id="clip-path-2"><path class="cls-1" d="M215.11 25.88h28.11v72.28h-28.11z"/></clipPath></defs><title>Asset 17</title><g class="cls-2"><g id="Layer_2" data-name="Layer 2"><g id="Layer_1-2" data-name="Layer 1"><path class="cls-3" d="M320.28 72.78s-23.28 36.69-59.66 45.37c-27.48 6.55-62.42 4.68-100.47 4.68-31.69 0-61.24 3.07-86.1-1.62-44.52-8.41-74-48-74-48s3 .27 8.48-2.88c11.66-6.66 34.66-23 64.53-32.51 25.08-8 55-9.76 87.13-9.76 39 0 72.48 2.51 100.26 12.81 23.52 8.72 43.56 24.71 52.8 29.94 4.55 2.62 7.03 1.97 7.03 1.97z"/><g class="cls-4"><path class="cls-5" d="M170.94 11.37h4.01v120.48h-4.01z"/><path class="cls-5" d="M170.94 11.37h4.01v120.48h-4.01zm104.4 0h4.02v120.48h-4.02z"/><path class="cls-6" d="M187.22 11.6h3.58v3.57h-3.58z"/><path class="cls-5" d="M190.58 11.82V15h-3.12v-3.18h3.12m.44-.45h-4v4h4v-4z"/><path class="cls-6" d="M187.22 15.61h3.58v3.57h-3.58z"/><path class="cls-5" d="M190.58 15.84V19h-3.12v-3.16h3.12m.44-.44h-4v4h4v-4z"/><path class="cls-6" d="M187.22 19.63h3.58v3.57h-3.58z"/><path class="cls-5" d="M190.58 19.86V23h-3.12v-3.14h3.12m.44-.45h-4v4h4v-4z"/><path class="cls-6" d="M187.22 23.65h3.58v3.57h-3.58z"/><path class="cls-5" d="M190.58 23.87V27h-3.12v-3.13h3.12m.44-.45h-4v4h4v-4z"/><path class="cls-6" d="M187.22 27.67h3.58v3.56h-3.58z"/><path class="cls-5" d="M190.58 27.89V31h-3.12v-3.11h3.12m.44-.45h-4v4h4v-4z"/><path class="cls-6" d="M187.22 31.68h3.58v3.57h-3.58z"/><path class="cls-5" d="M190.58 31.9V35h-3.12v-3.1h3.12m.44-.45h-4v4h4v-4z"/><path class="cls-6" d="M187.22 35.7h3.58v3.57h-3.58z"/><path class="cls-5" d="M190.58 35.92V39h-3.12v-3.08h3.12m.44-.44h-4v4h4v-4z"/><path class="cls-6" d="M187.22 39.71h3.58v3.57h-3.58z"/><path class="cls-5" d="M190.58 39.94v3.13h-3.12v-3.13h3.12m.44-.45h-4v4h4v-4z"/><path class="cls-6" d="M187.22 47.74h3.58v3.57h-3.58z"/><path class="cls-5" d="M190.58 48v3.12h-3.12V48h3.12m.44-.45h-4v4h4v-4z"/><path class="cls-6" d="M187.22 43.73h3.58v3.57h-3.58z"/><path class="cls-5" d="M190.58 43.95v3.13h-3.12v-3.13h3.12m.44-.44h-4v4h4v-4z"/><path class="cls-6" d="M187.22 51.76h3.58v3.57h-3.58z"/><path class="cls-5" d="M190.58 52v3.13h-3.12V52h3.12m.44-.45h-4v4h4v-4z"/><path class="cls-6" d="M187.22 55.77h3.58v3.57h-3.58z"/><path class="cls-5" d="M190.58 56v3.12h-3.12V56h3.12m.44-.44h-4v4h4v-4z"/><path class="cls-6" d="M187.22 59.79h3.58v3.57h-3.58z"/><path class="cls-5" d="M190.58 60v3.13h-3.12V60h3.12m.44-.45h-4v4h4v-4z"/><path class="cls-6" d="M187.22 63.81h3.58v3.57h-3.58z"/><path class="cls-5" d="M190.58 64v3.12h-3.12V64h3.12m.44-.44h-4v4h4v-4z"/><path class="cls-6" d="M187.22 67.82h3.58v3.57h-3.58z"/><path class="cls-5" d="M190.58 68v3.12h-3.12V68h3.12m.44-.45h-4v4h4v-4z"/><path class="cls-6" d="M187.22 71.84h3.58v3.57h-3.58z"/><path class="cls-5" d="M190.58 72.06v3.12h-3.12v-3.12h3.12m.44-.44h-4v4h4v-4z"/><path class="cls-6" d="M187.22 75.85h3.58v3.57h-3.58z"/><path class="cls-5" d="M190.58 76.08v3.12h-3.12v-3.12h3.12m.44-.45h-4v4h4v-4z"/><path class="cls-6" d="M187.22 79.87h3.58v3.57h-3.58z"/><path class="cls-5" d="M190.58 80.09v3.13h-3.12v-3.13h3.12m.44-.44h-4v4h4v-4z"/><path class="cls-6" d="M187.22 87.9h3.58v3.57h-3.58z"/><path class="cls-5" d="M190.58 88.12v3.13h-3.12v-3.13h3.12m.44-.44h-4v4h4v-4z"/><path class="cls-6" d="M187.22 83.89h3.58v3.57h-3.58z"/><path class="cls-5" d="M190.58 84.11v3.12h-3.12v-3.12h3.12m.44-.44h-4v4h4v-4z"/><path class="cls-6" d="M187.22 91.91h3.58v3.57h-3.58z"/><path class="cls-5" d="M190.58 92.14v3.12h-3.12v-3.12h3.12m.44-.45h-4v4h4v-4z"/><path class="cls-6" d="M187.22 95.93h3.58v3.57h-3.58z"/><path class="cls-5" d="M190.58 96.15v3.12h-3.12v-3.12h3.12m.44-.45h-4v4h4v-4z"/><path class="cls-6" d="M187.22 99.95h3.58v3.56h-3.58z"/><path class="cls-5" d="M190.58 100.17v3.12h-3.12v-3.12h3.12m.44-.44h-4v4h4v-4z"/><path class="cls-6" d="M187.22 103.96h3.58v3.57h-3.58z"/><path class="cls-5" d="M190.58 104.18v3.13h-3.12v-3.13h3.12m.44-.44h-4v4h4v-4z"/><path class="cls-6" d="M187.22 107.98h3.58v3.57h-3.58z"/><path class="cls-5" d="M190.58 108.2v3.13h-3.12v-3.13h3.12m.44-.44h-4v4h4v-4z"/><path class="cls-6" d="M187.22 112h3.58v3.57h-3.58z"/><path class="cls-5" d="M190.58 112.22v3.12h-3.12v-3.12h3.12m.44-.45h-4v4h4v-4z"/><path class="cls-6" d="M187.22 116.01h3.58v3.57h-3.58z"/><path class="cls-5" d="M190.58 116.23v3.12h-3.12v-3.12h3.12m.44-.44h-4v4h4v-4z"/><path class="cls-6" d="M187.22 120.03h3.58v3.57h-3.58z"/><path class="cls-5" d="M190.58 120.25v3.12h-3.12v-3.12h3.12m.44-.44h-4v4h4v-4z"/><path class="cls-6" d="M187.22 128.06h3.58v3.56h-3.58z"/><path class="cls-5" d="M190.58 128.28v3.12h-3.12v-3.12h3.12m.44-.45h-4v4h4v-4z"/><path class="cls-6" d="M191.24 15.61h3.57v3.57h-3.57z"/><path class="cls-5" d="M194.58 15.84V19h-3.11v-3.16h3.11m.45-.44h-4v4h4v-4z"/><path class="cls-6" d="M191.24 19.63h3.57v3.57h-3.57z"/><path class="cls-5" d="M194.58 19.86V23h-3.11v-3.14h3.11m.45-.45h-4v4h4v-4z"/><path class="cls-6" d="M191.24 23.65h3.57v3.57h-3.57z"/><path class="cls-5" d="M194.58 23.87V27h-3.11v-3.13h3.11m.45-.45h-4v4h4v-4z"/><path class="cls-6" d="M191.24 31.68h3.57v3.57h-3.57z"/><path class="cls-5" d="M194.58 31.9V35h-3.11v-3.1h3.11m.45-.45h-4v4h4v-4z"/><path class="cls-6" d="M191.24 35.7h3.57v3.57h-3.57z"/><path class="cls-5" d="M194.58 35.92V39h-3.11v-3.08h3.11m.45-.44h-4v4h4v-4z"/><path class="cls-6" d="M191.24 39.71h3.57v3.57h-3.57z"/><path class="cls-5" d="M194.58 39.94v3.13h-3.11v-3.13h3.11m.45-.45h-4v4h4v-4z"/><path class="cls-6" d="M191.24 47.74h3.57v3.57h-3.57z"/><path class="cls-5" d="M194.58 48v3.12h-3.11V48h3.11m.45-.45h-4v4h4v-4z"/><path class="cls-6" d="M191.24 51.76h3.57v3.57h-3.57z"/><path class="cls-5" d="M194.58 52v3.13h-3.11V52h3.11m.45-.45h-4v4h4v-4z"/><path class="cls-6" d="M191.24 55.77h3.57v3.57h-3.57z"/><path class="cls-5" d="M194.58 56v3.12h-3.11V56h3.11m.45-.44h-4v4h4v-4z"/><path class="cls-6" d="M191.24 63.81h3.57v3.57h-3.57z"/><path class="cls-5" d="M194.58 64v3.12h-3.11V64h3.11m.45-.44h-4v4h4v-4z"/><path class="cls-6" d="M191.24 67.82h3.57v3.57h-3.57z"/><path class="cls-5" d="M194.58 68v3.12h-3.11V68h3.11m.45-.45h-4v4h4v-4z"/><path class="cls-6" d="M191.24 71.84h3.57v3.57h-3.57z"/><path class="cls-5" d="M194.58 72.06v3.12h-3.11v-3.12h3.11m.45-.44h-4v4h4v-4z"/><path class="cls-6" d="M191.24 79.87h3.57v3.57h-3.57z"/><path class="cls-5" d="M194.58 80.09v3.13h-3.11v-3.13h3.11m.45-.44h-4v4h4v-4z"/><path class="cls-6" d="M191.24 87.9h3.57v3.57h-3.57z"/><path class="cls-5" d="M194.58 88.12v3.13h-3.11v-3.13h3.11m.45-.44h-4v4h4v-4z"/><path class="cls-6" d="M191.24 83.89h3.57v3.57h-3.57z"/><path class="cls-5" d="M194.58 84.11v3.12h-3.11v-3.12h3.11m.45-.44h-4v4h4v-4z"/><path class="cls-6" d="M191.24 95.93h3.57v3.57h-3.57z"/><path class="cls-5" d="M194.58 96.15v3.12h-3.11v-3.12h3.11m.45-.45h-4v4h4v-4z"/><path class="cls-6" d="M191.24 99.95h3.57v3.56h-3.57z"/><path class="cls-5" d="M194.58 100.17v3.12h-3.11v-3.12h3.11m.45-.44h-4v4h4v-4z"/><path class="cls-6" d="M191.24 103.96h3.57v3.57h-3.57z"/><path class="cls-5" d="M194.58 104.18v3.13h-3.11v-3.13h3.11m.45-.44h-4v4h4v-4z"/><path class="cls-6" d="M191.24 112h3.57v3.57h-3.57z"/><path class="cls-5" d="M194.58 112.22v3.12h-3.11v-3.12h3.11m.45-.45h-4v4h4v-4z"/><path class="cls-6" d="M191.24 116.01h3.57v3.57h-3.57z"/><path class="cls-5" d="M194.58 116.23v3.12h-3.11v-3.12h3.11m.45-.44h-4v4h4v-4z"/><path class="cls-6" d="M195.26 19.63h3.56v3.57h-3.56z"/><path class="cls-5" d="M198.6 19.86V23h-3.12v-3.14h3.12m.45-.45h-4v4h4v-4z"/><path class="cls-6" d="M195.26 35.7h3.56v3.57h-3.56z"/><path class="cls-5" d="M198.6 35.92V39h-3.12v-3.08h3.12m.45-.44h-4v4h4v-4z"/><path class="cls-6" d="M195.26 51.76h3.56v3.57h-3.56z"/><path class="cls-5" d="M198.6 52v3.13h-3.12V52h3.12m.45-.45h-4v4h4v-4z"/><path class="cls-6" d="M195.26 67.82h3.56v3.57h-3.56z"/><path class="cls-5" d="M198.6 68v3.12h-3.12V68h3.12m.45-.45h-4v4h4v-4z"/><path class="cls-6" d="M195.26 83.89h3.56v3.57h-3.56z"/><path class="cls-5" d="M198.6 84.11v3.12h-3.12v-3.12h3.12m.45-.44h-4v4h4v-4z"/><path class="cls-6" d="M195.26 99.95h3.56v3.56h-3.56z"/><path class="cls-5" d="M198.6 100.17v3.12h-3.12v-3.12h3.12m.45-.44h-4v4h4v-4z"/><path class="cls-6" d="M195.26 116.01h3.56v3.57h-3.56z"/><path class="cls-5" d="M198.6 116.23v3.12h-3.12v-3.12h3.12m.45-.44h-4v4h4v-4z"/><path class="cls-6" d="M191.24 120.03h3.57v3.57h-3.57z"/><path class="cls-5" d="M194.58 120.25v3.12h-3.11v-3.12h3.11m.45-.44h-4v4h4v-4z"/><path class="cls-6" d="M191.24 128.06h3.57v3.56h-3.57z"/><path class="cls-5" d="M194.58 128.28v3.12h-3.11v-3.12h3.11m.45-.45h-4v4h4v-4z"/><path class="cls-6" d="M187.22 124.04h3.58v3.57h-3.58z"/><path class="cls-5" d="M190.58 124.26v3.13h-3.12v-3.13h3.12m.44-.45h-4v4h4v-4z"/><path class="cls-6" d="M178.97 27.44h4.02v4.02h-4.02zm0 8.04h4.02v4.01h-4.02zm0 8.02h4.02v4.02h-4.02zm0 8.03h4.02v4.02h-4.02zm0 8.03h4.02v4.02h-4.02zm0 8.04h4.02v4.02h-4.02zm0 8.03h4.02v4.02h-4.02zm0 8.03h4.02v4.01h-4.02zm0 8.03h4.02v4.01h-4.02zm0 8.04h4.02v4.01h-4.02zm.28-88.08h3.47v3.48h-3.47z"/><path class="cls-5" d="M182.45 11.91v2.95h-2.94v-2.95h2.94m.54-.54h-4v4h4v-4z"/><path class="cls-6" d="M179.25 15.66h3.47v3.48h-3.47z"/><path class="cls-5" d="M182.45 15.93v2.95h-2.94v-2.95h2.94m.54-.53h-4v4h4v-4z"/><path class="cls-6" d="M179.25 19.68h3.47v3.48h-3.47z"/><path class="cls-5" d="M182.45 19.95v2.94h-2.94v-2.94h2.94m.54-.54h-4v4h4v-4z"/><path class="cls-6" d="M179.25 23.69h3.47v3.48h-3.47z"/><path class="cls-5" d="M182.45 24v3h-2.94v-3h2.94m.54-.54h-4v4h4v-4z"/><path class="cls-6" d="M179.25 27.71h3.47v3.47h-3.47z"/><path class="cls-5" d="M182.45 28v2.94h-2.94V28h2.94m.54-.54h-4v4h4v-4z"/><path class="cls-6" d="M179.25 31.72h3.47v3.48h-3.47z"/><path class="cls-5" d="M182.45 32v2.95h-2.94V32h2.94m.54-.53h-4v4h4v-4z"/><path class="cls-6" d="M179.25 35.74h3.47v3.48h-3.47z"/><path class="cls-5" d="M182.45 36v3h-2.94v-3h2.94m.54-.53h-4v4h4v-4z"/><path class="cls-6" d="M179.25 39.76h3.47v3.48h-3.47z"/><path class="cls-5" d="M182.45 40v3h-2.94v-3h2.94m.54-.54h-4v4h4v-4z"/><path class="cls-6" d="M179.25 47.79h3.47v3.48h-3.47z"/><path class="cls-5" d="M182.45 48.06V51h-2.94v-2.94h2.94m.54-.54h-4v4h4v-4z"/><path class="cls-6" d="M179.25 43.77h3.47v3.48h-3.47z"/><path class="cls-5" d="M182.45 44v3h-2.94v-3h2.94m.54-.53h-4v4h4v-4z"/><path class="cls-6" d="M179.25 51.8h3.47v3.48h-3.47z"/><path class="cls-5" d="M182.45 52.07V55h-2.94v-2.93h2.94m.54-.54h-4v4h4v-4z"/><path class="cls-6" d="M179.25 55.82h3.47v3.48h-3.47z"/><path class="cls-5" d="M182.45 56.08V59h-2.94v-2.92h2.94m.54-.53h-4v4h4v-4z"/><path class="cls-6" d="M179.25 59.83h3.47v3.48h-3.47z"/><path class="cls-5" d="M182.45 60.1v3h-2.94v-3h2.94m.54-.53h-4v4h4v-4z"/><path class="cls-6" d="M179.25 63.85h3.47v3.48h-3.47z"/><path class="cls-5" d="M182.45 64.12v2.94h-2.94v-2.94h2.94m.54-.53h-4v4h4v-4z"/><path class="cls-6" d="M179.25 67.87h3.47v3.48h-3.47z"/><path class="cls-5" d="M182.45 68.13v3h-2.94v-3h2.94m.54-.54h-4v4h4v-4z"/><path class="cls-6" d="M179.25 71.88h3.47v3.48h-3.47z"/><path class="cls-5" d="M182.45 72.15v2.95h-2.94v-2.95h2.94m.54-.53h-4v4h4v-4z"/><path class="cls-6" d="M179.25 75.9h3.47v3.48h-3.47z"/><path class="cls-5" d="M182.45 76.17v2.95h-2.94v-2.95h2.94m.54-.54h-4v4h4v-4z"/><path class="cls-6" d="M179.25 79.91h3.47v3.48h-3.47z"/><path class="cls-5" d="M182.45 80.18v2.95h-2.94v-2.95h2.94m.54-.53h-4v4h4v-4z"/><path class="cls-6" d="M179.25 87.94h3.47v3.48h-3.47z"/><path class="cls-5" d="M182.45 88.21v2.94h-2.94v-2.94h2.94m.54-.53h-4v4h4v-4z"/><path class="cls-6" d="M179.25 83.93h3.47v3.48h-3.47z"/><path class="cls-5" d="M182.45 84.2v2.95h-2.94V84.2h2.94m.54-.53h-4v4h4v-4z"/><path class="cls-6" d="M179.25 91.96h3.47v3.48h-3.47z"/><path class="cls-5" d="M182.45 92.22v2.95h-2.94v-2.95h2.94m.54-.53h-4v4h4v-4z"/><path class="cls-6" d="M179.25 95.97h3.47v3.48h-3.47z"/><path class="cls-5" d="M182.45 96.24v2.95h-2.94v-2.95h2.94m.54-.54h-4v4h4v-4z"/><path class="cls-6" d="M179.25 99.99h3.47v3.48h-3.47z"/><path class="cls-5" d="M182.45 100.26v2.94h-2.94v-2.94h2.94m.54-.53h-4v4h4v-4z"/><path class="cls-6" d="M179.25 104.01h3.47v3.48h-3.47z"/><path class="cls-5" d="M182.45 104.27v3h-2.94v-3h2.94m.54-.53h-4v4h4v-4z"/><path class="cls-6" d="M179.25 108.02h3.47v3.48h-3.47z"/><path class="cls-5" d="M182.45 108.29v2.95h-2.94v-2.95h2.94m.54-.53h-4v4h4v-4z"/><path class="cls-6" d="M179.25 112.04h3.47v3.48h-3.47z"/><path class="cls-5" d="M182.45 112.31v2.94h-2.94v-2.94h2.94m.54-.54h-4v4h4v-4z"/><path class="cls-6" d="M179.25 116.06h3.47v3.48h-3.47z"/><path class="cls-5" d="M182.45 116.32v2.95h-2.94v-2.95h2.94m.54-.53h-4v4h4v-4z"/><path class="cls-6" d="M179.25 120.07h3.47v3.48h-3.47z"/><path class="cls-5" d="M182.45 120.34v2.94h-2.94v-2.94h2.94m.54-.53h-4v4h4v-4z"/><path class="cls-6" d="M179.25 128.1h3.47v3.48h-3.47z"/><path class="cls-5" d="M182.45 128.37v2.95h-2.94v-2.95h2.94m.54-.53h-4v4h4v-4z"/><path class="cls-6" d="M179.25 124.09h3.47v3.47h-3.47z"/><path class="cls-5" d="M182.45 124.35v2.95h-2.94v-2.95h2.94m.54-.53h-4v4h4v-4z"/><path class="cls-6" d="M207.08 27.44h4.02v4.02h-4.02zm0 8.04h4.02v4.01h-4.02zm0 8.02h4.02v4.02h-4.02zm0 8.03h4.02v4.02h-4.02zm0 8.03h4.02v4.02h-4.02zm0 8.04h4.02v4.02h-4.02zm0 8.03h4.02v4.02h-4.02zm0 8.03h4.02v4.01h-4.02zm0 8.03h4.02v4.01h-4.02zm0 8.04h4.02v4.01h-4.02zm.27-88.08h3.48v3.48h-3.48z"/><path class="cls-5" d="M210.56 11.91v2.95h-2.94v-2.95h2.94m.54-.54h-4v4h4v-4z"/><path class="cls-6" d="M207.35 15.66h3.48v3.48h-3.48z"/><path class="cls-5" d="M210.56 15.93v2.95h-2.94v-2.95h2.94m.54-.53h-4v4h4v-4z"/><path class="cls-6" d="M207.35 19.68h3.48v3.48h-3.48z"/><path class="cls-5" d="M210.56 19.95v2.94h-2.94v-2.94h2.94m.54-.54h-4v4h4v-4z"/><path class="cls-6" d="M207.35 23.69h3.48v3.48h-3.48z"/><path class="cls-5" d="M210.56 24v3h-2.94v-3h2.94m.54-.54h-4v4h4v-4z"/><path class="cls-6" d="M207.35 27.71h3.48v3.47h-3.48z"/><path class="cls-5" d="M210.56 28v2.94h-2.94V28h2.94m.54-.54h-4v4h4v-4z"/><path class="cls-6" d="M207.35 31.72h3.48v3.48h-3.48z"/><path class="cls-5" d="M210.56 32v2.95h-2.94V32h2.94m.54-.53h-4v4h4v-4z"/><path class="cls-6" d="M207.35 35.74h3.48v3.48h-3.48z"/><path class="cls-5" d="M210.56 36v3h-2.94v-3h2.94m.54-.53h-4v4h4v-4z"/><path class="cls-6" d="M207.35 39.76h3.48v3.48h-3.48z"/><path class="cls-5" d="M210.56 40v3h-2.94v-3h2.94m.54-.54h-4v4h4v-4z"/><path class="cls-6" d="M207.35 47.79h3.48v3.48h-3.48z"/><path class="cls-5" d="M210.56 48.06V51h-2.94v-2.94h2.94m.54-.54h-4v4h4v-4z"/><path class="cls-6" d="M207.35 43.77h3.48v3.48h-3.48z"/><path class="cls-5" d="M210.56 44v3h-2.94v-3h2.94m.54-.53h-4v4h4v-4z"/><path class="cls-6" d="M207.35 51.8h3.48v3.48h-3.48z"/><path class="cls-5" d="M210.56 52.07V55h-2.94v-2.93h2.94m.54-.54h-4v4h4v-4z"/><path class="cls-6" d="M207.35 55.82h3.48v3.48h-3.48z"/><path class="cls-5" d="M210.56 56.08V59h-2.94v-2.92h2.94m.54-.53h-4v4h4v-4z"/><path class="cls-6" d="M207.35 59.83h3.48v3.48h-3.48z"/><path class="cls-5" d="M210.56 60.1v3h-2.94v-3h2.94m.54-.53h-4v4h4v-4z"/><path class="cls-6" d="M207.35 63.85h3.48v3.48h-3.48z"/><path class="cls-5" d="M210.56 64.12v2.94h-2.94v-2.94h2.94m.54-.53h-4v4h4v-4z"/><path class="cls-6" d="M207.35 67.87h3.48v3.48h-3.48z"/><path class="cls-5" d="M210.56 68.13v3h-2.94v-3h2.94m.54-.54h-4v4h4v-4z"/><path class="cls-6" d="M207.35 71.88h3.48v3.48h-3.48z"/><path class="cls-5" d="M210.56 72.15v2.95h-2.94v-2.95h2.94m.54-.53h-4v4h4v-4z"/><path class="cls-6" d="M207.35 75.9h3.48v3.48h-3.48z"/><path class="cls-5" d="M210.56 76.17v2.95h-2.94v-2.95h2.94m.54-.54h-4v4h4v-4z"/><path class="cls-6" d="M207.35 79.91h3.48v3.48h-3.48z"/><path class="cls-5" d="M210.56 80.18v2.95h-2.94v-2.95h2.94m.54-.53h-4v4h4v-4z"/><path class="cls-6" d="M207.35 87.94h3.48v3.48h-3.48z"/><path class="cls-5" d="M210.56 88.21v2.94h-2.94v-2.94h2.94m.54-.53h-4v4h4v-4z"/><path class="cls-6" d="M207.35 83.93h3.48v3.48h-3.48z"/><path class="cls-5" d="M210.56 84.2v2.95h-2.94V84.2h2.94m.54-.53h-4v4h4v-4z"/><path class="cls-6" d="M207.35 91.96h3.48v3.48h-3.48z"/><path class="cls-5" d="M210.56 92.22v2.95h-2.94v-2.95h2.94m.54-.53h-4v4h4v-4z"/><path class="cls-6" d="M207.35 95.97h3.48v3.48h-3.48z"/><path class="cls-5" d="M210.56 96.24v2.95h-2.94v-2.95h2.94m.54-.54h-4v4h4v-4z"/><path class="cls-6" d="M207.35 99.99h3.48v3.48h-3.48z"/><path class="cls-5" d="M210.56 100.26v2.94h-2.94v-2.94h2.94m.54-.53h-4v4h4v-4z"/><path class="cls-6" d="M207.35 104.01h3.48v3.48h-3.48z"/><path class="cls-5" d="M210.56 104.27v3h-2.94v-3h2.94m.54-.53h-4v4h4v-4z"/><path class="cls-6" d="M207.35 108.02h3.48v3.48h-3.48z"/><path class="cls-5" d="M210.56 108.29v2.95h-2.94v-2.95h2.94m.54-.53h-4v4h4v-4z"/><path class="cls-6" d="M207.35 112.04h3.48v3.48h-3.48z"/><path class="cls-5" d="M210.56 112.31v2.94h-2.94v-2.94h2.94m.54-.54h-4v4h4v-4z"/><path class="cls-6" d="M207.35 116.06h3.48v3.48h-3.48z"/><path class="cls-5" d="M210.56 116.32v2.95h-2.94v-2.95h2.94m.54-.53h-4v4h4v-4z"/><path class="cls-6" d="M207.35 120.07h3.48v3.48h-3.48z"/><path class="cls-5" d="M210.56 120.34v2.94h-2.94v-2.94h2.94m.54-.53h-4v4h4v-4z"/><path class="cls-6" d="M207.35 128.1h3.48v3.48h-3.48z"/><path class="cls-5" d="M210.56 128.37v2.95h-2.94v-2.95h2.94m.54-.53h-4v4h4v-4z"/><path class="cls-6" d="M207.35 124.09h3.48v3.47h-3.48z"/><path class="cls-5" d="M210.56 124.35v2.95h-2.94v-2.95h2.94m.54-.53h-4v4h4v-4z"/><path class="cls-6" d="M247.24 27.44h4.02v4.02h-4.02zm0 8.04h4.02v4.01h-4.02zm0 8.02h4.02v4.02h-4.02zm0 8.03h4.02v4.02h-4.02zm0 8.03h4.02v4.02h-4.02zm0 8.04h4.02v4.02h-4.02zm0 8.03h4.02v4.02h-4.02zm0 8.03h4.02v4.01h-4.02zm0 8.03h4.02v4.01h-4.02zm0 8.04h4.02v4.01h-4.02zm.27-88.08h3.48v3.48h-3.48z"/><path class="cls-5" d="M250.72 11.91v2.95h-2.95v-2.95h2.95m.53-.54h-4v4h4v-4z"/><path class="cls-6" d="M247.51 15.66h3.48v3.48h-3.48z"/><path class="cls-5" d="M250.72 15.93v2.95h-2.95v-2.95h2.95m.53-.53h-4v4h4v-4z"/><path class="cls-6" d="M247.51 19.68h3.48v3.48h-3.48z"/><path class="cls-5" d="M250.72 19.95v2.94h-2.95v-2.94h2.95m.53-.54h-4v4h4v-4z"/><path class="cls-6" d="M247.51 23.69h3.48v3.48h-3.48z"/><path class="cls-5" d="M250.72 24v3h-2.95v-3h2.95m.53-.54h-4v4h4v-4z"/><path class="cls-6" d="M247.51 27.71h3.48v3.47h-3.48z"/><path class="cls-5" d="M250.72 28v2.94h-2.95V28h2.95m.53-.54h-4v4h4v-4z"/><path class="cls-6" d="M247.51 31.72h3.48v3.48h-3.48z"/><path class="cls-5" d="M250.72 32v2.95h-2.95V32h2.95m.53-.53h-4v4h4v-4z"/><path class="cls-6" d="M247.51 35.74h3.48v3.48h-3.48z"/><path class="cls-5" d="M250.72 36v3h-2.95v-3h2.95m.53-.53h-4v4h4v-4z"/><path class="cls-6" d="M247.51 39.76h3.48v3.48h-3.48z"/><path class="cls-5" d="M250.72 40v3h-2.95v-3h2.95m.53-.54h-4v4h4v-4z"/><path class="cls-6" d="M247.51 47.79h3.48v3.48h-3.48z"/><path class="cls-5" d="M250.72 48.06V51h-2.95v-2.94h2.95m.53-.54h-4v4h4v-4z"/><path class="cls-6" d="M247.51 43.77h3.48v3.48h-3.48z"/><path class="cls-5" d="M250.72 44v3h-2.95v-3h2.95m.53-.53h-4v4h4v-4z"/><path class="cls-6" d="M247.51 51.8h3.48v3.48h-3.48z"/><path class="cls-5" d="M250.72 52.07V55h-2.95v-2.93h2.95m.53-.54h-4v4h4v-4z"/><path class="cls-6" d="M247.51 55.82h3.48v3.48h-3.48z"/><path class="cls-5" d="M250.72 56.08V59h-2.95v-2.92h2.95m.53-.53h-4v4h4v-4z"/><path class="cls-6" d="M247.51 59.83h3.48v3.48h-3.48z"/><path class="cls-5" d="M250.72 60.1v3h-2.95v-3h2.95m.53-.53h-4v4h4v-4z"/><path class="cls-6" d="M247.51 63.85h3.48v3.48h-3.48z"/><path class="cls-5" d="M250.72 64.12v2.94h-2.95v-2.94h2.95m.53-.53h-4v4h4v-4z"/><path class="cls-6" d="M247.51 67.87h3.48v3.48h-3.48z"/><path class="cls-5" d="M250.72 68.13v3h-2.95v-3h2.95m.53-.54h-4v4h4v-4z"/><path class="cls-6" d="M247.51 71.88h3.48v3.48h-3.48z"/><path class="cls-5" d="M250.72 72.15v2.95h-2.95v-2.95h2.95m.53-.53h-4v4h4v-4z"/><path class="cls-6" d="M247.51 75.9h3.48v3.48h-3.48z"/><path class="cls-5" d="M250.72 76.17v2.95h-2.95v-2.95h2.95m.53-.54h-4v4h4v-4z"/><path class="cls-6" d="M247.51 79.91h3.48v3.48h-3.48z"/><path class="cls-5" d="M250.72 80.18v2.95h-2.95v-2.95h2.95m.53-.53h-4v4h4v-4z"/><path class="cls-6" d="M247.51 87.94h3.48v3.48h-3.48z"/><path class="cls-5" d="M250.72 88.21v2.94h-2.95v-2.94h2.95m.53-.53h-4v4h4v-4z"/><path class="cls-6" d="M247.51 83.93h3.48v3.48h-3.48z"/><path class="cls-5" d="M250.72 84.2v2.95h-2.95V84.2h2.95m.53-.53h-4v4h4v-4z"/><path class="cls-6" d="M247.51 91.96h3.48v3.48h-3.48z"/><path class="cls-5" d="M250.72 92.22v2.95h-2.95v-2.95h2.95m.53-.53h-4v4h4v-4z"/><path class="cls-6" d="M247.51 95.97h3.48v3.48h-3.48z"/><path class="cls-5" d="M250.72 96.24v2.95h-2.95v-2.95h2.95m.53-.54h-4v4h4v-4z"/><path class="cls-6" d="M247.51 99.99h3.48v3.48h-3.48z"/><path class="cls-5" d="M250.72 100.26v2.94h-2.95v-2.94h2.95m.53-.53h-4v4h4v-4z"/><path class="cls-6" d="M247.51 104.01h3.48v3.48h-3.48z"/><path class="cls-5" d="M250.72 104.27v3h-2.95v-3h2.95m.53-.53h-4v4h4v-4z"/><path class="cls-6" d="M247.51 108.02h3.48v3.48h-3.48z"/><path class="cls-5" d="M250.72 108.29v2.95h-2.95v-2.95h2.95m.53-.53h-4v4h4v-4z"/><path class="cls-6" d="M247.51 112.04h3.48v3.48h-3.48z"/><path class="cls-5" d="M250.72 112.31v2.94h-2.95v-2.94h2.95m.53-.54h-4v4h4v-4z"/><path class="cls-6" d="M247.51 116.06h3.48v3.48h-3.48z"/><path class="cls-5" d="M250.72 116.32v2.95h-2.95v-2.95h2.95m.53-.53h-4v4h4v-4z"/><path class="cls-6" d="M247.51 120.07h3.48v3.48h-3.48z"/><path class="cls-5" d="M250.72 120.34v2.94h-2.95v-2.94h2.95m.53-.53h-4v4h4v-4z"/><path class="cls-6" d="M247.51 128.1h3.48v3.48h-3.48z"/><path class="cls-5" d="M250.72 128.37v2.95h-2.95v-2.95h2.95m.53-.53h-4v4h4v-4z"/><path class="cls-6" d="M247.51 124.09h3.48v3.47h-3.48z"/><path class="cls-5" d="M250.72 124.35v2.95h-2.95v-2.95h2.95m.53-.53h-4v4h4v-4z"/><path class="cls-3" d="M199.27 19.63h3.57v3.57h-3.57z"/><path class="cls-5" d="M202.62 19.86V23h-3.12v-3.14h3.12m.45-.45h-4v4h4v-4z"/><path class="cls-3" d="M199.27 23.65h3.57v3.57h-3.57z"/><path class="cls-5" d="M202.62 23.87V27h-3.12v-3.13h3.12m.45-.45h-4v4h4v-4z"/><path class="cls-3" d="M199.27 27.67h3.57v3.56h-3.57z"/><path class="cls-5" d="M202.62 27.89V31h-3.12v-3.11h3.12m.45-.45h-4v4h4v-4z"/><path class="cls-3" d="M199.27 31.68h3.57v3.57h-3.57z"/><path class="cls-5" d="M202.62 31.9V35h-3.12v-3.1h3.12m.45-.45h-4v4h4v-4z"/><path class="cls-3" d="M199.27 35.7h3.57v3.57h-3.57z"/><path class="cls-5" d="M202.62 35.92V39h-3.12v-3.08h3.12m.45-.44h-4v4h4v-4z"/><path class="cls-3" d="M199.27 39.71h3.57v3.57h-3.57z"/><path class="cls-5" d="M202.62 39.94v3.13h-3.12v-3.13h3.12m.45-.45h-4v4h4v-4z"/><path class="cls-3" d="M199.27 43.73h3.57v3.57h-3.57z"/><path class="cls-5" d="M202.62 43.95v3.13h-3.12v-3.13h3.12m.45-.44h-4v4h4v-4z"/><path class="cls-3" d="M199.27 47.74h3.57v3.57h-3.57z"/><path class="cls-5" d="M202.62 48v3.12h-3.12V48h3.12m.45-.45h-4v4h4v-4z"/><path class="cls-3" d="M199.27 55.77h3.57v3.57h-3.57z"/><path class="cls-5" d="M202.62 56v3.12h-3.12V56h3.12m.45-.44h-4v4h4v-4z"/><path class="cls-3" d="M199.27 51.76h3.57v3.57h-3.57z"/><path class="cls-5" d="M202.62 52v3.13h-3.12V52h3.12m.45-.45h-4v4h4v-4z"/><path class="cls-3" d="M199.27 59.79h3.57v3.57h-3.57z"/><path class="cls-5" d="M202.62 60v3.13h-3.12V60h3.12m.45-.45h-4v4h4v-4z"/><path class="cls-3" d="M199.27 63.81h3.57v3.57h-3.57z"/><path class="cls-5" d="M202.62 64v3.12h-3.12V64h3.12m.45-.44h-4v4h4v-4z"/><path class="cls-3" d="M199.27 67.82h3.57v3.57h-3.57z"/><path class="cls-5" d="M202.62 68v3.12h-3.12V68h3.12m.45-.45h-4v4h4v-4z"/><path class="cls-3" d="M199.27 71.84h3.57v3.57h-3.57z"/><path class="cls-5" d="M202.62 72.06v3.12h-3.12v-3.12h3.12m.45-.44h-4v4h4v-4z"/><path class="cls-3" d="M199.27 75.85h3.57v3.57h-3.57z"/><path class="cls-5" d="M202.62 76.08v3.12h-3.12v-3.12h3.12m.45-.45h-4v4h4v-4z"/><path class="cls-3" d="M199.27 79.87h3.57v3.57h-3.57z"/><path class="cls-5" d="M202.62 80.09v3.13h-3.12v-3.13h3.12m.45-.44h-4v4h4v-4z"/><path class="cls-3" d="M199.27 83.89h3.57v3.57h-3.57z"/><path class="cls-5" d="M202.62 84.11v3.12h-3.12v-3.12h3.12m.45-.44h-4v4h4v-4z"/><path class="cls-3" d="M199.27 87.9h3.57v3.57h-3.57z"/><path class="cls-5" d="M202.62 88.12v3.13h-3.12v-3.13h3.12m.45-.44h-4v4h4v-4z"/><path class="cls-3" d="M199.27 95.93h3.57v3.57h-3.57z"/><path class="cls-5" d="M202.62 96.15v3.12h-3.12v-3.12h3.12m.45-.45h-4v4h4v-4z"/><path class="cls-3" d="M199.27 91.91h3.57v3.57h-3.57z"/><path class="cls-5" d="M202.62 92.14v3.12h-3.12v-3.12h3.12m.45-.45h-4v4h4v-4z"/><path class="cls-3" d="M199.27 99.95h3.57v3.56h-3.57z"/><path class="cls-5" d="M202.62 100.17v3.12h-3.12v-3.12h3.12m.45-.44h-4v4h4v-4z"/><path class="cls-3" d="M199.27 103.96h3.57v3.57h-3.57z"/><path class="cls-5" d="M202.62 104.18v3.13h-3.12v-3.13h3.12m.45-.44h-4v4h4v-4z"/><path class="cls-3" d="M199.27 107.98h3.57v3.57h-3.57z"/><path class="cls-5" d="M202.62 108.2v3.13h-3.12v-3.13h3.12m.45-.44h-4v4h4v-4z"/><path class="cls-3" d="M199.27 112h3.57v3.57h-3.57z"/><path class="cls-5" d="M202.62 112.22v3.12h-3.12v-3.12h3.12m.45-.45h-4v4h4v-4z"/><path class="cls-3" d="M199.27 116.01h3.57v3.57h-3.57z"/><path class="cls-5" d="M202.62 116.23v3.12h-3.12v-3.12h3.12m.45-.44h-4v4h4v-4z"/><path class="cls-3" d="M199.27 120.03h3.57v3.57h-3.57z"/><path class="cls-5" d="M202.62 120.25v3.12h-3.12v-3.12h3.12m.45-.44h-4v4h4v-4z"/><path class="cls-3" d="M199.27 124.04h3.57v3.57h-3.57z"/><path class="cls-5" d="M202.62 124.26v3.13h-3.12v-3.13h3.12m.45-.45h-4v4h4v-4z"/><path class="cls-3" d="M199.27 128.06h3.57v3.56h-3.57z"/><path class="cls-5" d="M202.62 128.28v3.12h-3.12v-3.12h3.12m.45-.45h-4v4h4v-4z"/><path class="cls-3" d="M199.27 136.09h3.57v3.57h-3.57z"/><path class="cls-5" d="M202.62 136.31v3.13h-3.12v-3.13h3.12m.45-.44h-4v4h4v-4z"/><path class="cls-3" d="M195.26 23.65h3.56v3.57h-3.56z"/><path class="cls-5" d="M198.6 23.87V27h-3.12v-3.13h3.12m.45-.45h-4v4h4v-4z"/><path class="cls-3" d="M195.26 27.67h3.56v3.56h-3.56z"/><path class="cls-5" d="M198.6 27.89V31h-3.12v-3.11h3.12m.45-.45h-4v4h4v-4z"/><path class="cls-3" d="M195.26 31.68h3.56v3.57h-3.56z"/><path class="cls-5" d="M198.6 31.9V35h-3.12v-3.1h3.12m.45-.45h-4v4h4v-4z"/><path class="cls-3" d="M195.26 39.71h3.56v3.57h-3.56z"/><path class="cls-5" d="M198.6 39.94v3.13h-3.12v-3.13h3.12m.45-.45h-4v4h4v-4z"/><path class="cls-3" d="M195.26 43.73h3.56v3.57h-3.56z"/><path class="cls-5" d="M198.6 43.95v3.13h-3.12v-3.13h3.12m.45-.44h-4v4h4v-4z"/><path class="cls-3" d="M195.26 47.74h3.56v3.57h-3.56z"/><path class="cls-5" d="M198.6 48v3.12h-3.12V48h3.12m.45-.45h-4v4h4v-4z"/><path class="cls-3" d="M195.26 55.77h3.56v3.57h-3.56z"/><path class="cls-5" d="M198.6 56v3.12h-3.12V56h3.12m.45-.44h-4v4h4v-4z"/><path class="cls-3" d="M195.26 59.79h3.56v3.57h-3.56z"/><path class="cls-5" d="M198.6 60v3.13h-3.12V60h3.12m.45-.45h-4v4h4v-4z"/><path class="cls-3" d="M195.26 63.81h3.56v3.57h-3.56z"/><path class="cls-5" d="M198.6 64v3.12h-3.12V64h3.12m.45-.44h-4v4h4v-4z"/><path class="cls-3" d="M195.26 71.84h3.56v3.57h-3.56z"/><path class="cls-5" d="M198.6 72.06v3.12h-3.12v-3.12h3.12m.45-.44h-4v4h4v-4z"/><path class="cls-3" d="M195.26 75.85h3.56v3.57h-3.56z"/><path class="cls-5" d="M198.6 76.08v3.12h-3.12v-3.12h3.12m.45-.45h-4v4h4v-4z"/><path class="cls-3" d="M195.26 79.87h3.56v3.57h-3.56z"/><path class="cls-5" d="M198.6 80.09v3.13h-3.12v-3.13h3.12m.45-.44h-4v4h4v-4z"/><path class="cls-3" d="M195.26 87.9h3.56v3.57h-3.56z"/><path class="cls-5" d="M198.6 88.12v3.13h-3.12v-3.13h3.12m.45-.44h-4v4h4v-4z"/><path class="cls-3" d="M195.26 95.93h3.56v3.57h-3.56z"/><path class="cls-5" d="M198.6 96.15v3.12h-3.12v-3.12h3.12m.45-.45h-4v4h4v-4z"/><path class="cls-3" d="M195.26 91.91h3.56v3.57h-3.56z"/><path class="cls-5" d="M198.6 92.14v3.12h-3.12v-3.12h3.12m.45-.45h-4v4h4v-4z"/><path class="cls-3" d="M195.26 103.96h3.56v3.57h-3.56z"/><path class="cls-5" d="M198.6 104.18v3.13h-3.12v-3.13h3.12m.45-.44h-4v4h4v-4z"/><path class="cls-3" d="M195.26 107.98h3.56v3.57h-3.56z"/><path class="cls-5" d="M198.6 108.2v3.13h-3.12v-3.13h3.12m.45-.44h-4v4h4v-4z"/><path class="cls-3" d="M195.26 112h3.56v3.57h-3.56z"/><path class="cls-5" d="M198.6 112.22v3.12h-3.12v-3.12h3.12m.45-.45h-4v4h4v-4z"/><path class="cls-3" d="M195.26 120.03h3.56v3.57h-3.56z"/><path class="cls-5" d="M198.6 120.25v3.12h-3.12v-3.12h3.12m.45-.44h-4v4h4v-4z"/><path class="cls-3" d="M195.26 124.04h3.56v3.57h-3.56z"/><path class="cls-5" d="M198.6 124.26v3.13h-3.12v-3.13h3.12m.45-.45h-4v4h4v-4z"/><path class="cls-3" d="M191.24 27.67h3.57v3.56h-3.57z"/><path class="cls-5" d="M194.58 27.89V31h-3.11v-3.11h3.11m.45-.45h-4v4h4v-4z"/><path class="cls-3" d="M191.24 43.73h3.57v3.57h-3.57z"/><path class="cls-5" d="M194.58 43.95v3.13h-3.11v-3.13h3.11m.45-.44h-4v4h4v-4z"/><path class="cls-3" d="M191.24 59.79h3.57v3.57h-3.57z"/><path class="cls-5" d="M194.58 60v3.13h-3.11V60h3.11m.45-.45h-4v4h4v-4z"/><path class="cls-3" d="M191.24 75.85h3.57v3.57h-3.57z"/><path class="cls-5" d="M194.58 76.08v3.12h-3.11v-3.12h3.11m.45-.45h-4v4h4v-4z"/><path class="cls-3" d="M191.24 91.91h3.57v3.57h-3.57z"/><path class="cls-5" d="M194.58 92.14v3.12h-3.11v-3.12h3.11m.45-.45h-4v4h4v-4z"/><path class="cls-3" d="M191.24 107.98h3.57v3.57h-3.57z"/><path class="cls-5" d="M194.58 108.2v3.13h-3.11v-3.13h3.11m.45-.44h-4v4h4v-4z"/><path class="cls-3" d="M191.24 124.04h3.57v3.57h-3.57z"/><path class="cls-5" d="M194.58 124.26v3.13h-3.11v-3.13h3.11m.45-.45h-4v4h4v-4z"/><path class="cls-3" d="M195.26 128.06h3.56v3.56h-3.56z"/><path class="cls-5" d="M198.6 128.28v3.12h-3.12v-3.12h3.12m.45-.45h-4v4h4v-4z"/><path class="cls-3" d="M195.26 136.09h3.56v3.57h-3.56z"/><path class="cls-5" d="M198.6 136.31v3.13h-3.12v-3.13h3.12m.45-.44h-4v4h4v-4z"/><path class="cls-3" d="M199.27 132.07h3.57v3.56h-3.57z"/><path class="cls-5" d="M202.62 132.29v3.12h-3.12v-3.12h3.12m.45-.44h-4v4h4v-4z"/><path class="cls-6" d="M267.54 11.6h3.58v3.57h-3.58z"/><path class="cls-5" d="M270.89 11.82V15h-3.12v-3.18h3.12m.45-.45h-4v4h4v-4z"/><path class="cls-6" d="M267.54 15.61h3.58v3.57h-3.58z"/><path class="cls-5" d="M270.89 15.84V19h-3.12v-3.16h3.12m.45-.44h-4v4h4v-4z"/><path class="cls-6" d="M267.54 19.63h3.58v3.57h-3.58z"/><path class="cls-5" d="M270.89 19.86V23h-3.12v-3.14h3.12m.45-.45h-4v4h4v-4z"/><path class="cls-6" d="M267.54 23.65h3.58v3.57h-3.58z"/><path class="cls-5" d="M270.89 23.87V27h-3.12v-3.13h3.12m.45-.45h-4v4h4v-4z"/><path class="cls-6" d="M267.54 27.67h3.58v3.56h-3.58z"/><path class="cls-5" d="M270.89 27.89V31h-3.12v-3.11h3.12m.45-.45h-4v4h4v-4z"/><path class="cls-6" d="M267.54 31.68h3.58v3.57h-3.58z"/><path class="cls-5" d="M270.89 31.9V35h-3.12v-3.1h3.12m.45-.45h-4v4h4v-4z"/><path class="cls-6" d="M267.54 35.7h3.58v3.57h-3.58z"/><path class="cls-5" d="M270.89 35.92V39h-3.12v-3.08h3.12m.45-.44h-4v4h4v-4z"/><path class="cls-6" d="M267.54 39.71h3.58v3.57h-3.58z"/><path class="cls-5" d="M270.89 39.94v3.13h-3.12v-3.13h3.12m.45-.45h-4v4h4v-4z"/><path class="cls-6" d="M267.54 47.74h3.58v3.57h-3.58z"/><path class="cls-5" d="M270.89 48v3.12h-3.12V48h3.12m.45-.45h-4v4h4v-4z"/><path class="cls-6" d="M267.54 43.73h3.58v3.57h-3.58z"/><path class="cls-5" d="M270.89 43.95v3.13h-3.12v-3.13h3.12m.45-.44h-4v4h4v-4z"/><path class="cls-6" d="M267.54 51.76h3.58v3.57h-3.58z"/><path class="cls-5" d="M270.89 52v3.13h-3.12V52h3.12m.45-.45h-4v4h4v-4z"/><path class="cls-6" d="M267.54 55.77h3.58v3.57h-3.58z"/><path class="cls-5" d="M270.89 56v3.12h-3.12V56h3.12m.45-.44h-4v4h4v-4z"/><path class="cls-6" d="M267.54 59.79h3.58v3.57h-3.58z"/><path class="cls-5" d="M270.89 60v3.13h-3.12V60h3.12m.45-.45h-4v4h4v-4z"/><path class="cls-6" d="M267.54 63.81h3.58v3.57h-3.58z"/><path class="cls-5" d="M270.89 64v3.12h-3.12V64h3.12m.45-.44h-4v4h4v-4z"/><path class="cls-6" d="M267.54 67.82h3.58v3.57h-3.58z"/><path class="cls-5" d="M270.89 68v3.12h-3.12V68h3.12m.45-.45h-4v4h4v-4z"/><path class="cls-6" d="M267.54 71.84h3.58v3.57h-3.58z"/><path class="cls-5" d="M270.89 72.06v3.12h-3.12v-3.12h3.12m.45-.44h-4v4h4v-4z"/><path class="cls-6" d="M267.54 75.85h3.58v3.57h-3.58z"/><path class="cls-5" d="M270.89 76.08v3.12h-3.12v-3.12h3.12m.45-.45h-4v4h4v-4z"/><path class="cls-6" d="M267.54 79.87h3.58v3.57h-3.58z"/><path class="cls-5" d="M270.89 80.09v3.13h-3.12v-3.13h3.12m.45-.44h-4v4h4v-4z"/><path class="cls-6" d="M267.54 87.9h3.58v3.57h-3.58z"/><path class="cls-5" d="M270.89 88.12v3.13h-3.12v-3.13h3.12m.45-.44h-4v4h4v-4z"/><path class="cls-6" d="M267.54 83.89h3.58v3.57h-3.58z"/><path class="cls-5" d="M270.89 84.11v3.12h-3.12v-3.12h3.12m.45-.44h-4v4h4v-4z"/><path class="cls-6" d="M267.54 91.91h3.58v3.57h-3.58z"/><path class="cls-5" d="M270.89 92.14v3.12h-3.12v-3.12h3.12m.45-.45h-4v4h4v-4z"/><path class="cls-6" d="M267.54 95.93h3.58v3.57h-3.58z"/><path class="cls-5" d="M270.89 96.15v3.12h-3.12v-3.12h3.12m.45-.45h-4v4h4v-4z"/><path class="cls-6" d="M267.54 99.95h3.58v3.56h-3.58z"/><path class="cls-5" d="M270.89 100.17v3.12h-3.12v-3.12h3.12m.45-.44h-4v4h4v-4z"/><path class="cls-6" d="M267.54 103.96h3.58v3.57h-3.58z"/><path class="cls-5" d="M270.89 104.18v3.13h-3.12v-3.13h3.12m.45-.44h-4v4h4v-4z"/><path class="cls-6" d="M267.54 107.98h3.58v3.57h-3.58z"/><path class="cls-5" d="M270.89 108.2v3.13h-3.12v-3.13h3.12m.45-.44h-4v4h4v-4z"/><path class="cls-6" d="M267.54 112h3.58v3.57h-3.58z"/><path class="cls-5" d="M270.89 112.22v3.12h-3.12v-3.12h3.12m.45-.45h-4v4h4v-4z"/><path class="cls-6" d="M267.54 116.01h3.58v3.57h-3.58z"/><path class="cls-5" d="M270.89 116.23v3.12h-3.12v-3.12h3.12m.45-.44h-4v4h4v-4z"/><path class="cls-6" d="M267.54 120.03h3.58v3.57h-3.58z"/><path class="cls-5" d="M270.89 120.25v3.12h-3.12v-3.12h3.12m.45-.44h-4v4h4v-4z"/><path class="cls-6" d="M267.54 128.06h3.58v3.56h-3.58z"/><path class="cls-5" d="M270.89 128.28v3.12h-3.12v-3.12h3.12m.45-.45h-4v4h4v-4z"/><path class="cls-6" d="M263.52 15.61h3.57v3.57h-3.57z"/><path class="cls-5" d="M266.87 15.84V19h-3.12v-3.16h3.12m.45-.44h-4v4h4v-4z"/><path class="cls-6" d="M263.52 19.63h3.57v3.57h-3.57z"/><path class="cls-5" d="M266.87 19.86V23h-3.12v-3.14h3.12m.45-.45h-4v4h4v-4z"/><path class="cls-6" d="M263.52 23.65h3.57v3.57h-3.57z"/><path class="cls-5" d="M266.87 23.87V27h-3.12v-3.13h3.12m.45-.45h-4v4h4v-4z"/><path class="cls-6" d="M263.52 31.68h3.57v3.57h-3.57z"/><path class="cls-5" d="M266.87 31.9V35h-3.12v-3.1h3.12m.45-.45h-4v4h4v-4z"/><path class="cls-6" d="M263.52 35.7h3.57v3.57h-3.57z"/><path class="cls-5" d="M266.87 35.92V39h-3.12v-3.08h3.12m.45-.44h-4v4h4v-4z"/><path class="cls-6" d="M263.52 39.71h3.57v3.57h-3.57z"/><path class="cls-5" d="M266.87 39.94v3.13h-3.12v-3.13h3.12m.45-.45h-4v4h4v-4z"/><path class="cls-6" d="M263.52 47.74h3.57v3.57h-3.57z"/><path class="cls-5" d="M266.87 48v3.12h-3.12V48h3.12m.45-.45h-4v4h4v-4z"/><path class="cls-6" d="M263.52 51.76h3.57v3.57h-3.57z"/><path class="cls-5" d="M266.87 52v3.13h-3.12V52h3.12m.45-.45h-4v4h4v-4z"/><path class="cls-6" d="M263.52 55.77h3.57v3.57h-3.57z"/><path class="cls-5" d="M266.87 56v3.12h-3.12V56h3.12m.45-.44h-4v4h4v-4z"/><path class="cls-6" d="M263.52 63.81h3.57v3.57h-3.57z"/><path class="cls-5" d="M266.87 64v3.12h-3.12V64h3.12m.45-.44h-4v4h4v-4z"/><path class="cls-6" d="M263.52 67.82h3.57v3.57h-3.57z"/><path class="cls-5" d="M266.87 68v3.12h-3.12V68h3.12m.45-.45h-4v4h4v-4z"/><path class="cls-6" d="M263.52 71.84h3.57v3.57h-3.57z"/><path class="cls-5" d="M266.87 72.06v3.12h-3.12v-3.12h3.12m.45-.44h-4v4h4v-4z"/><path class="cls-6" d="M263.52 79.87h3.57v3.57h-3.57z"/><path class="cls-5" d="M266.87 80.09v3.13h-3.12v-3.13h3.12m.45-.44h-4v4h4v-4z"/><path class="cls-6" d="M263.52 87.9h3.57v3.57h-3.57z"/><path class="cls-5" d="M266.87 88.12v3.13h-3.12v-3.13h3.12m.45-.44h-4v4h4v-4z"/><path class="cls-6" d="M263.52 83.89h3.57v3.57h-3.57z"/><path class="cls-5" d="M266.87 84.11v3.12h-3.12v-3.12h3.12m.45-.44h-4v4h4v-4z"/><path class="cls-6" d="M263.52 95.93h3.57v3.57h-3.57z"/><path class="cls-5" d="M266.87 96.15v3.12h-3.12v-3.12h3.12m.45-.45h-4v4h4v-4z"/><path class="cls-6" d="M263.52 99.95h3.57v3.56h-3.57z"/><path class="cls-5" d="M266.87 100.17v3.12h-3.12v-3.12h3.12m.45-.44h-4v4h4v-4z"/><path class="cls-6" d="M263.52 103.96h3.57v3.57h-3.57z"/><path class="cls-5" d="M266.87 104.18v3.13h-3.12v-3.13h3.12m.45-.44h-4v4h4v-4z"/><path class="cls-6" d="M263.52 112h3.57v3.57h-3.57z"/><path class="cls-5" d="M266.87 112.22v3.12h-3.12v-3.12h3.12m.45-.45h-4v4h4v-4z"/><path class="cls-6" d="M263.52 116.01h3.57v3.57h-3.57z"/><path class="cls-5" d="M266.87 116.23v3.12h-3.12v-3.12h3.12m.45-.44h-4v4h4v-4z"/><path class="cls-6" d="M259.51 19.63h3.57v3.57h-3.57z"/><path class="cls-5" d="M262.86 19.86V23h-3.12v-3.14h3.12m.44-.45h-4v4h4v-4z"/><path class="cls-6" d="M259.51 35.7h3.57v3.57h-3.57z"/><path class="cls-5" d="M262.86 35.92V39h-3.12v-3.08h3.12m.44-.44h-4v4h4v-4z"/><path class="cls-6" d="M259.51 51.76h3.57v3.57h-3.57z"/><path class="cls-5" d="M262.86 52v3.13h-3.12V52h3.12m.44-.45h-4v4h4v-4z"/><path class="cls-6" d="M259.51 67.82h3.57v3.57h-3.57z"/><path class="cls-5" d="M262.86 68v3.12h-3.12V68h3.12m.44-.45h-4v4h4v-4z"/><path class="cls-6" d="M259.51 83.89h3.57v3.57h-3.57z"/><path class="cls-5" d="M262.86 84.11v3.12h-3.12v-3.12h3.12m.44-.44h-4v4h4v-4z"/><path class="cls-6" d="M259.51 99.95h3.57v3.56h-3.57z"/><path class="cls-5" d="M262.86 100.17v3.12h-3.12v-3.12h3.12m.44-.44h-4v4h4v-4z"/><path class="cls-6" d="M259.51 116.01h3.57v3.57h-3.57z"/><path class="cls-5" d="M262.86 116.23v3.12h-3.12v-3.12h3.12m.44-.44h-4v4h4v-4z"/><path class="cls-6" d="M263.52 120.03h3.57v3.57h-3.57z"/><path class="cls-5" d="M266.87 120.25v3.12h-3.12v-3.12h3.12m.45-.44h-4v4h4v-4z"/><path class="cls-6" d="M263.52 128.06h3.57v3.56h-3.57z"/><path class="cls-5" d="M266.87 128.28v3.12h-3.12v-3.12h3.12m.45-.45h-4v4h4v-4z"/><path class="cls-6" d="M267.54 124.04h3.58v3.57h-3.58z"/><path class="cls-5" d="M270.89 124.26v3.13h-3.12v-3.13h3.12m.45-.45h-4v4h4v-4z"/><path class="cls-3" d="M255.49 19.63h3.57v3.57h-3.57z"/><path class="cls-5" d="M258.84 19.86V23h-3.12v-3.14h3.12m.44-.45h-4v4h4v-4z"/><path class="cls-3" d="M255.49 23.65h3.57v3.57h-3.57z"/><path class="cls-5" d="M258.84 23.87V27h-3.12v-3.13h3.12m.44-.45h-4v4h4v-4z"/><path class="cls-3" d="M255.49 27.67h3.57v3.56h-3.57z"/><path class="cls-5" d="M258.84 27.89V31h-3.12v-3.11h3.12m.44-.45h-4v4h4v-4z"/><path class="cls-3" d="M255.49 31.68h3.57v3.57h-3.57z"/><path class="cls-5" d="M258.84 31.9V35h-3.12v-3.1h3.12m.44-.45h-4v4h4v-4z"/><path class="cls-3" d="M255.49 35.7h3.57v3.57h-3.57z"/><path class="cls-5" d="M258.84 35.92V39h-3.12v-3.08h3.12m.44-.44h-4v4h4v-4z"/><path class="cls-3" d="M255.49 39.71h3.57v3.57h-3.57z"/><path class="cls-5" d="M258.84 39.94v3.13h-3.12v-3.13h3.12m.44-.45h-4v4h4v-4z"/><path class="cls-3" d="M255.49 43.73h3.57v3.57h-3.57z"/><path class="cls-5" d="M258.84 43.95v3.13h-3.12v-3.13h3.12m.44-.44h-4v4h4v-4z"/><path class="cls-3" d="M255.49 47.74h3.57v3.57h-3.57z"/><path class="cls-5" d="M258.84 48v3.12h-3.12V48h3.12m.44-.45h-4v4h4v-4z"/><path class="cls-3" d="M255.49 55.77h3.57v3.57h-3.57z"/><path class="cls-5" d="M258.84 56v3.12h-3.12V56h3.12m.44-.44h-4v4h4v-4z"/><path class="cls-3" d="M255.49 51.76h3.57v3.57h-3.57z"/><path class="cls-5" d="M258.84 52v3.13h-3.12V52h3.12m.44-.45h-4v4h4v-4z"/><path class="cls-3" d="M255.49 59.79h3.57v3.57h-3.57z"/><path class="cls-5" d="M258.84 60v3.13h-3.12V60h3.12m.44-.45h-4v4h4v-4z"/><path class="cls-3" d="M255.49 63.81h3.57v3.57h-3.57z"/><path class="cls-5" d="M258.84 64v3.12h-3.12V64h3.12m.44-.44h-4v4h4v-4z"/><path class="cls-3" d="M255.49 67.82h3.57v3.57h-3.57z"/><path class="cls-5" d="M258.84 68v3.12h-3.12V68h3.12m.44-.45h-4v4h4v-4z"/><path class="cls-3" d="M255.49 71.84h3.57v3.57h-3.57z"/><path class="cls-5" d="M258.84 72.06v3.12h-3.12v-3.12h3.12m.44-.44h-4v4h4v-4z"/><path class="cls-3" d="M255.49 75.85h3.57v3.57h-3.57z"/><path class="cls-5" d="M258.84 76.08v3.12h-3.12v-3.12h3.12m.44-.45h-4v4h4v-4z"/><path class="cls-3" d="M255.49 79.87h3.57v3.57h-3.57z"/><path class="cls-5" d="M258.84 80.09v3.13h-3.12v-3.13h3.12m.44-.44h-4v4h4v-4z"/><path class="cls-3" d="M255.49 83.89h3.57v3.57h-3.57z"/><path class="cls-5" d="M258.84 84.11v3.12h-3.12v-3.12h3.12m.44-.44h-4v4h4v-4z"/><path class="cls-3" d="M255.49 87.9h3.57v3.57h-3.57z"/><path class="cls-5" d="M258.84 88.12v3.13h-3.12v-3.13h3.12m.44-.44h-4v4h4v-4z"/><path class="cls-3" d="M255.49 95.93h3.57v3.57h-3.57z"/><path class="cls-5" d="M258.84 96.15v3.12h-3.12v-3.12h3.12m.44-.45h-4v4h4v-4z"/><path class="cls-3" d="M255.49 91.91h3.57v3.57h-3.57z"/><path class="cls-5" d="M258.84 92.14v3.12h-3.12v-3.12h3.12m.44-.45h-4v4h4v-4z"/><path class="cls-3" d="M255.49 99.95h3.57v3.56h-3.57z"/><path class="cls-5" d="M258.84 100.17v3.12h-3.12v-3.12h3.12m.44-.44h-4v4h4v-4z"/><path class="cls-3" d="M255.49 103.96h3.57v3.57h-3.57z"/><path class="cls-5" d="M258.84 104.18v3.13h-3.12v-3.13h3.12m.44-.44h-4v4h4v-4z"/><path class="cls-3" d="M255.49 107.98h3.57v3.57h-3.57z"/><path class="cls-5" d="M258.84 108.2v3.13h-3.12v-3.13h3.12m.44-.44h-4v4h4v-4z"/><path class="cls-3" d="M255.49 112h3.57v3.57h-3.57z"/><path class="cls-5" d="M258.84 112.22v3.12h-3.12v-3.12h3.12m.44-.45h-4v4h4v-4z"/><path class="cls-3" d="M255.49 116.01h3.57v3.57h-3.57z"/><path class="cls-5" d="M258.84 116.23v3.12h-3.12v-3.12h3.12m.44-.44h-4v4h4v-4z"/><path class="cls-3" d="M255.49 120.03h3.57v3.57h-3.57z"/><path class="cls-5" d="M258.84 120.25v3.12h-3.12v-3.12h3.12m.44-.44h-4v4h4v-4z"/><path class="cls-3" d="M255.49 124.04h3.57v3.57h-3.57z"/><path class="cls-5" d="M258.84 124.26v3.13h-3.12v-3.13h3.12m.44-.45h-4v4h4v-4z"/><path class="cls-3" d="M255.49 128.06h3.57v3.56h-3.57z"/><path class="cls-5" d="M258.84 128.28v3.12h-3.12v-3.12h3.12m.44-.45h-4v4h4v-4z"/><path class="cls-3" d="M255.49 136.09h3.57v3.57h-3.57z"/><path class="cls-5" d="M258.84 136.31v3.13h-3.12v-3.13h3.12m.44-.44h-4v4h4v-4z"/><path class="cls-3" d="M259.51 23.65h3.57v3.57h-3.57z"/><path class="cls-5" d="M262.86 23.87V27h-3.12v-3.13h3.12m.44-.45h-4v4h4v-4z"/><path class="cls-3" d="M259.51 27.67h3.57v3.56h-3.57z"/><path class="cls-5" d="M262.86 27.89V31h-3.12v-3.11h3.12m.44-.45h-4v4h4v-4z"/><path class="cls-3" d="M259.51 31.68h3.57v3.57h-3.57z"/><path class="cls-5" d="M262.86 31.9V35h-3.12v-3.1h3.12m.44-.45h-4v4h4v-4z"/><path class="cls-3" d="M259.51 39.71h3.57v3.57h-3.57z"/><path class="cls-5" d="M262.86 39.94v3.13h-3.12v-3.13h3.12m.44-.45h-4v4h4v-4z"/><path class="cls-3" d="M259.51 43.73h3.57v3.57h-3.57z"/><path class="cls-5" d="M262.86 43.95v3.13h-3.12v-3.13h3.12m.44-.44h-4v4h4v-4z"/><path class="cls-3" d="M259.51 47.74h3.57v3.57h-3.57z"/><path class="cls-5" d="M262.86 48v3.12h-3.12V48h3.12m.44-.45h-4v4h4v-4z"/><path class="cls-3" d="M259.51 55.77h3.57v3.57h-3.57z"/><path class="cls-5" d="M262.86 56v3.12h-3.12V56h3.12m.44-.44h-4v4h4v-4z"/><path class="cls-3" d="M259.51 59.79h3.57v3.57h-3.57z"/><path class="cls-5" d="M262.86 60v3.13h-3.12V60h3.12m.44-.45h-4v4h4v-4z"/><path class="cls-3" d="M259.51 63.81h3.57v3.57h-3.57z"/><path class="cls-5" d="M262.86 64v3.12h-3.12V64h3.12m.44-.44h-4v4h4v-4z"/><path class="cls-3" d="M259.51 71.84h3.57v3.57h-3.57z"/><path class="cls-5" d="M262.86 72.06v3.12h-3.12v-3.12h3.12m.44-.44h-4v4h4v-4z"/><path class="cls-3" d="M259.51 75.85h3.57v3.57h-3.57z"/><path class="cls-5" d="M262.86 76.08v3.12h-3.12v-3.12h3.12m.44-.45h-4v4h4v-4z"/><path class="cls-3" d="M259.51 79.87h3.57v3.57h-3.57z"/><path class="cls-5" d="M262.86 80.09v3.13h-3.12v-3.13h3.12m.44-.44h-4v4h4v-4z"/><path class="cls-3" d="M259.51 87.9h3.57v3.57h-3.57z"/><path class="cls-5" d="M262.86 88.12v3.13h-3.12v-3.13h3.12m.44-.44h-4v4h4v-4z"/><path class="cls-3" d="M259.51 95.93h3.57v3.57h-3.57z"/><path class="cls-5" d="M262.86 96.15v3.12h-3.12v-3.12h3.12m.44-.45h-4v4h4v-4z"/><path class="cls-3" d="M259.51 91.91h3.57v3.57h-3.57z"/><path class="cls-5" d="M262.86 92.14v3.12h-3.12v-3.12h3.12m.44-.45h-4v4h4v-4z"/><path class="cls-3" d="M259.51 103.96h3.57v3.57h-3.57z"/><path class="cls-5" d="M262.86 104.18v3.13h-3.12v-3.13h3.12m.44-.44h-4v4h4v-4z"/><path class="cls-3" d="M259.51 107.98h3.57v3.57h-3.57z"/><path class="cls-5" d="M262.86 108.2v3.13h-3.12v-3.13h3.12m.44-.44h-4v4h4v-4z"/><path class="cls-3" d="M259.51 112h3.57v3.57h-3.57z"/><path class="cls-5" d="M262.86 112.22v3.12h-3.12v-3.12h3.12m.44-.45h-4v4h4v-4z"/><path class="cls-3" d="M259.51 120.03h3.57v3.57h-3.57z"/><path class="cls-5" d="M262.86 120.25v3.12h-3.12v-3.12h3.12m.44-.44h-4v4h4v-4z"/><path class="cls-3" d="M259.51 124.04h3.57v3.57h-3.57z"/><path class="cls-5" d="M262.86 124.26v3.13h-3.12v-3.13h3.12m.44-.45h-4v4h4v-4z"/><path class="cls-3" d="M263.52 27.67h3.57v3.56h-3.57z"/><path class="cls-5" d="M266.87 27.89V31h-3.12v-3.11h3.12m.45-.45h-4v4h4v-4z"/><path class="cls-3" d="M263.52 43.73h3.57v3.57h-3.57z"/><path class="cls-5" d="M266.87 43.95v3.13h-3.12v-3.13h3.12m.45-.44h-4v4h4v-4z"/><path class="cls-3" d="M263.52 59.79h3.57v3.57h-3.57z"/><path class="cls-5" d="M266.87 60v3.13h-3.12V60h3.12m.45-.45h-4v4h4v-4z"/><path class="cls-3" d="M263.52 75.85h3.57v3.57h-3.57z"/><path class="cls-5" d="M266.87 76.08v3.12h-3.12v-3.12h3.12m.45-.45h-4v4h4v-4z"/><path class="cls-3" d="M263.52 91.91h3.57v3.57h-3.57z"/><path class="cls-5" d="M266.87 92.14v3.12h-3.12v-3.12h3.12m.45-.45h-4v4h4v-4z"/><path class="cls-3" d="M263.52 107.98h3.57v3.57h-3.57z"/><path class="cls-5" d="M266.87 108.2v3.13h-3.12v-3.13h3.12m.45-.44h-4v4h4v-4z"/><path class="cls-3" d="M263.52 124.04h3.57v3.57h-3.57z"/><path class="cls-5" d="M266.87 124.26v3.13h-3.12v-3.13h3.12m.45-.45h-4v4h4v-4z"/><path class="cls-3" d="M259.51 128.06h3.57v3.56h-3.57z"/><path class="cls-5" d="M262.86 128.28v3.12h-3.12v-3.12h3.12m.44-.45h-4v4h4v-4z"/><path class="cls-3" d="M259.51 136.09h3.57v3.57h-3.57z"/><path class="cls-5" d="M262.86 136.31v3.13h-3.12v-3.13h3.12m.44-.44h-4v4h4v-4z"/><path class="cls-3" d="M255.49 132.07h3.57v3.56h-3.57z"/><path class="cls-5" d="M258.84 132.29v3.12h-3.12v-3.12h3.12m.44-.44h-4v4h4v-4z"/><g class="cls-7"><path class="cls-5" d="M215.11 21.86h28.11v80.32h-28.11z"/><path class="cls-6" d="M244.46 103.07h-10l-5.33-21.31-5.32 21.31h-10l8.32-25-8.06-24.17 8-16-8.24-16.46 1.6-.8 8.63 17.26-8.07 16.13 8 24-7.73 23.2h6.09l5.79-23.2-6-24.15 6-16-6.36-17h14.62l-6.36 17 6 16-6 24.15 5.8 23.2H242l-7.73-23.2 8-24-8.07-16.13 8.63-17.26 1.59.8-8.23 16.46 8 16-8.05 24.17zM224.08 54l5.09 20.36L234.25 54l-5.09-13.57zm.35-31.28l4.74 12.63 4.74-12.63z"/></g><path class="cls-5" d="M215.11 19.86h28.11v6.02h-28.11z"/><path class="cls-6" d="M243.41 26.07h-28.5v-6.41h28.5zm-28.11-.39H243V20h-27.7z"/><path class="cls-6" d="M218.59 19.86l-3.48 6.02h6.95l-3.47-6.02-3.48 6.02h6.95l-3.47-6.02zm6.95 0l-3.48 6.02h6.97l-3.49-6.02-3.48 6.02h6.97l-3.49-6.02zm7.1 0l-3.47 6.02h6.95l-3.48-6.02-3.47 6.02h6.95l-3.48-6.02zm7.11 0l-3.49 6.02h6.96l-3.47-6.02-3.49 6.02h6.96l-3.47-6.02zm-24.64 78.08h28.11v6.02h-28.11z"/><path class="cls-5" d="M218.59 97.94l-3.48 6.02h6.95l-3.47-6.02-3.48 6.02h6.95l-3.47-6.02zm6.95 0l-3.48 6.02h6.97l-3.49-6.02-3.48 6.02h6.97l-3.49-6.02zm7.1 0l-3.47 6.02h6.95l-3.48-6.02-3.47 6.02h6.95l-3.48-6.02zm7.11 0l-3.49 6.02h6.96l-3.47-6.02-3.49 6.02h6.96l-3.47-6.02z"/><path class="cls-6" d="M215.11 0h28.11v19.86h-28.11zm0 103.96h28.11v19.86h-28.11z"/><path class="cls-5" d="M227.16 4.02h4.02v4.01h-4.02z"/><path class="cls-6" d="M231.4 8.25h-4.46V3.8h4.46zm-4-.44h3.6V4.24h-3.57z"/><path class="cls-5" d="M227.16 8.03h4.02v4.02h-4.02z"/><path class="cls-6" d="M231.4 12.27h-4.46V7.81h4.46zm-4-.45h3.6V8.25h-3.57z"/><path class="cls-5" d="M231.17 8.03h4.02v4.02h-4.02z"/><path class="cls-6" d="M235.42 12.27H231V7.81h4.46zm-4-.45H235V8.25h-3.6z"/><path class="cls-5" d="M223.14 8.03h4.02v4.02h-4.02z"/><path class="cls-6" d="M227.38 12.27h-4.46V7.81h4.46zm-4-.45h3.57V8.25h-3.57z"/><path class="cls-5" d="M223.14 12.05h4.02v4.01h-4.02z"/><path class="cls-6" d="M227.38 16.29h-4.46v-4.47h4.46zm-4-.45h3.57v-3.57h-3.57z"/><path class="cls-5" d="M219.13 12.05h4.01v4.01h-4.01z"/><path class="cls-6" d="M223.37 16.29h-4.47v-4.47h4.47zm-4-.45h3.57v-3.57h-3.57z"/><path class="cls-5" d="M227.16 12.05h4.02v4.01h-4.02z"/><path class="cls-6" d="M231.4 16.29h-4.46v-4.47h4.46zm-4-.45h3.6v-3.57h-3.57z"/><path class="cls-5" d="M231.17 12.05h4.02v4.01h-4.02z"/><path class="cls-6" d="M235.42 16.29H231v-4.47h4.46zm-4-.45H235v-3.57h-3.6z"/><path class="cls-5" d="M235.19 12.05h4.01v4.01h-4.01z"/><path class="cls-6" d="M239.43 16.29H235v-4.47h4.46zm-4-.45H239v-3.57h-3.56z"/><path class="cls-5" d="M227.16 116.45h4.02v4.02h-4.02z"/><path class="cls-6" d="M231.4 120.7h-4.46v-4.47h4.46zm-4-.45h3.6v-3.57h-3.57z"/><path class="cls-5" d="M227.16 112.44h4.02v4.01h-4.02z"/><path class="cls-6" d="M231.4 116.68h-4.46v-4.46h4.46zm-4-.45h3.6v-3.57h-3.57z"/><path class="cls-5" d="M231.17 112.44h4.02v4.01h-4.02z"/><path class="cls-6" d="M235.42 116.68H231v-4.46h4.46zm-4-.45H235v-3.57h-3.6z"/><path class="cls-5" d="M223.14 112.44h4.02v4.01h-4.02z"/><path class="cls-6" d="M227.38 116.68h-4.46v-4.46h4.46zm-4-.45h3.57v-3.57h-3.57z"/><path class="cls-5" d="M223.14 108.42h4.02v4.02h-4.02z"/><path class="cls-6" d="M227.38 112.66h-4.46v-4.46h4.46zm-4-.44h3.57v-3.57h-3.57z"/><path class="cls-5" d="M219.13 108.42h4.01v4.02h-4.01z"/><path class="cls-6" d="M223.37 112.66h-4.47v-4.46h4.47zm-4-.44h3.57v-3.57h-3.57z"/><path class="cls-5" d="M227.16 108.42h4.02v4.02h-4.02z"/><path class="cls-6" d="M231.4 112.66h-4.46v-4.46h4.46zm-4-.44h3.6v-3.57h-3.57z"/><path class="cls-5" d="M231.17 108.42h4.02v4.02h-4.02z"/><path class="cls-6" d="M235.42 112.66H231v-4.46h4.46zm-4-.44H235v-3.57h-3.6z"/><path class="cls-5" d="M235.19 108.42h4.01v4.02h-4.01z"/><path class="cls-6" d="M239.43 112.66H235v-4.46h4.46zm-4-.44H239v-3.57h-3.56z"/></g><g class="cls-8"><path class="cls-9" d="M1 74.51c5.51 6.85 33.3 39.19 73 46.7 24.86 4.69 54.4 1.62 86.1 1.62 38.05 0 73 1.87 100.47-4.68 31.89-7.61 53.7-36.73 58.61-43.8-49.48 3.41-103.61 5.3-160.34 5.3C103.1 79.64 49.82 77.82 1 74.51z"/></g><path class="cls-5" d="M160.14 32.55c32.09 0 68.92 1.49 98.71 12.53 16.68 6.18 31.42 16 42.18 23.23 3.94 2.64 7.34 4.92 10 6.41.61.34 1.19.64 1.75.9-7.76 10.13-27 32-53.19 38.19-17.71 4.23-39 4.81-59.34 4.81-6.26 0-12.56-.06-19.23-.12s-13.79-.13-20.86-.13c-9.29 0-18.41.26-27.21.52-8.42.24-16.39.47-24.17.47-14.17 0-24.61-.78-33.89-2.53a100.22 100.22 0 0 1-28.95-10.53 134.31 134.31 0 0 1-22.56-15.5A151.43 151.43 0 0 1 7.85 75.69c.88-.4 1.83-.88 2.84-1.46 2.36-1.35 5.11-3 8.3-5C31.7 61.38 50.9 49.54 74.36 42.1c26.49-8.41 58.23-9.55 85.78-9.55m0-4.46c-32.13 0-62 1.8-87.13 9.76-29.87 9.47-52.87 25.84-64.53 32.5C3.76 73 .9 73.24.18 73.24H0s29.52 39.57 74 48c10.76 2 22.4 2.61 34.71 2.61 16.12 0 33.4-1 51.38-1 13.85 0 27.28.25 40.09.25 22.4 0 42.9-.76 60.38-4.93 36.38-8.68 59.66-45.37 59.66-45.37a3.51 3.51 0 0 1-.8.07 13.11 13.11 0 0 1-6.27-2C304 65.61 283.92 49.62 260.4 40.9c-27.78-10.3-61.28-12.81-100.26-12.81z"/></g></g></g></svg>