<svg xmlns="http://www.w3.org/2000/svg" viewBox="0 0 1686.69 108.54"><defs><style>.cls-1,.cls-2,.cls-3,.cls-4{fill:none;}.cls-1,.cls-2,.cls-3,.cls-5{stroke:#000;}.cls-1,.cls-2,.cls-3,.cls-4,.cls-5{stroke-miterlimit:10;}.cls-1{stroke-width:10px;}.cls-3{stroke-width:18px;}.cls-4{stroke:#fff;}.cls-5{fill:#fff;stroke-width:0.25px;}.cls-6{fill:#e51f2b;}</style></defs><title>Asset 13</title><g id="Layer_2" data-name="Layer 2"><g id="Layer_1-2" data-name="Layer 1"><line class="cls-1" x1="6.98" y1="103.54" x2="1686.69" y2="103.54"/><line class="cls-2" x1="6.98" y1="64.04" x2="1686.69" y2="64.04"/><line class="cls-3" x1="6.98" y1="24.14" x2="1686.69" y2="24.14"/><polygon class="cls-4" points="1683.86 17.13 1646.07 35.43 1608.29 17.3 1646.07 0.55 1683.86 17.13"/><polygon class="cls-4" points="1683.86 29.44 1646.07 47.74 1608.29 29.61 1646.07 12.86 1683.86 29.44"/><polygon class="cls-4" points="1606.92 17.13 1569.13 35.43 1531.34 17.3 1569.13 0.55 1606.92 17.13"/><polygon class="cls-4" points="1606.92 29.44 1569.13 47.74 1531.34 29.61 1569.13 12.86 1606.92 29.44"/><polygon class="cls-4" points="1531.62 17.13 1493.83 35.43 1456.04 17.3 1493.83 0.55 1531.62 17.13"/><polygon class="cls-4" points="1531.62 29.44 1493.83 47.74 1456.04 29.61 1493.83 12.86 1531.62 29.44"/><polygon class="cls-4" points="1454.67 17.13 1416.88 35.43 1379.09 17.3 1416.88 0.55 1454.67 17.13"/><polygon class="cls-4" points="1454.67 29.44 1416.88 47.74 1379.09 29.61 1416.88 12.86 1454.67 29.44"/><polygon class="cls-4" points="1379.38 17.13 1341.59 35.43 1303.8 17.3 1341.59 0.55 1379.38 17.13"/><polygon class="cls-4" points="1379.38 29.44 1341.59 47.74 1303.8 29.61 1341.59 12.86 1379.38 29.44"/><polygon class="cls-4" points="1302.42 17.13 1264.63 35.43 1226.85 17.3 1264.63 0.55 1302.42 17.13"/><polygon class="cls-4" points="1302.42 29.44 1264.63 47.74 1226.85 29.61 1264.63 12.86 1302.42 29.44"/><polygon class="cls-4" points="1227.13 17.13 1189.34 35.43 1151.55 17.3 1189.34 0.55 1227.13 17.13"/><polygon class="cls-4" points="1227.13 29.44 1189.34 47.74 1151.55 29.61 1189.34 12.86 1227.13 29.44"/><polygon class="cls-4" points="1150.18 17.13 1112.39 35.43 1074.6 17.3 1112.39 0.55 1150.18 17.13"/><polygon class="cls-4" points="1150.18 29.44 1112.39 47.74 1074.6 29.61 1112.39 12.86 1150.18 29.44"/><polygon class="cls-4" points="1071.55 17.13 1033.76 35.43 995.97 17.3 1033.76 0.55 1071.55 17.13"/><polygon class="cls-4" points="1071.55 29.44 1033.76 47.74 995.97 29.61 1033.76 12.86 1071.55 29.44"/><polygon class="cls-4" points="994.6 17.13 956.81 35.43 919.02 17.3 956.81 0.55 994.6 17.13"/><polygon class="cls-4" points="994.6 29.44 956.81 47.74 919.02 29.61 956.81 12.86 994.6 29.44"/><polygon class="cls-4" points="919.3 17.13 881.51 35.43 843.73 17.3 881.51 0.55 919.3 17.13"/><polygon class="cls-4" points="919.3 29.44 881.51 47.74 843.73 29.61 881.51 12.86 919.3 29.44"/><polygon class="cls-4" points="842.35 17.13 804.56 35.43 766.78 17.3 804.56 0.55 842.35 17.13"/><polygon class="cls-4" points="842.35 29.44 804.56 47.74 766.78 29.61 804.56 12.86 842.35 29.44"/><polygon class="cls-4" points="767.06 17.13 729.27 35.43 691.49 17.3 729.27 0.55 767.06 17.13"/><polygon class="cls-4" points="767.06 29.44 729.27 47.74 691.49 29.61 729.27 12.86 767.06 29.44"/><polygon class="cls-4" points="690.11 17.13 652.32 35.43 614.53 17.3 652.32 0.55 690.11 17.13"/><polygon class="cls-4" points="690.11 29.44 652.32 47.74 614.53 29.61 652.32 12.86 690.11 29.44"/><polygon class="cls-4" points="614.82 17.13 577.02 35.43 539.24 17.3 577.02 0.55 614.82 17.13"/><polygon class="cls-4" points="614.82 29.44 577.02 47.74 539.24 29.61 577.02 12.86 614.82 29.44"/><polygon class="cls-4" points="537.87 17.13 500.07 35.43 462.29 17.3 500.07 0.55 537.87 17.13"/><polygon class="cls-4" points="537.87 29.44 500.07 47.74 462.29 29.61 500.07 12.86 537.87 29.44"/><polygon class="cls-4" points="458.21 17.13 420.42 35.43 382.63 17.3 420.42 0.55 458.21 17.13"/><polygon class="cls-4" points="458.21 29.44 420.42 47.74 382.63 29.61 420.42 12.86 458.21 29.44"/><polygon class="cls-4" points="381.26 17.13 343.47 35.43 305.68 17.3 343.47 0.55 381.26 17.13"/><polygon class="cls-4" points="381.26 29.44 343.47 47.74 305.68 29.61 343.47 12.86 381.26 29.44"/><polygon class="cls-4" points="305.96 17.13 268.18 35.43 230.39 17.3 268.18 0.55 305.96 17.13"/><polygon class="cls-4" points="305.96 29.44 268.18 47.74 230.39 29.61 268.18 12.86 305.96 29.44"/><polygon class="cls-4" points="229.01 17.13 191.22 35.43 153.44 17.3 191.22 0.55 229.01 17.13"/><polygon class="cls-4" points="229.01 29.44 191.22 47.74 153.44 29.61 191.22 12.86 229.01 29.44"/><polygon class="cls-4" points="153.72 17.13 115.93 35.43 78.15 17.3 115.93 0.55 153.72 17.13"/><polygon class="cls-4" points="153.72 29.44 115.93 47.74 78.15 29.61 115.93 12.86 153.72 29.44"/><polygon class="cls-4" points="76.77 17.13 38.98 35.43 1.19 17.3 38.98 0.55 76.77 17.13"/><polygon class="cls-4" points="76.77 29.44 38.98 47.74 1.19 29.61 38.98 12.86 76.77 29.44"/><polygon class="cls-5" points="1664.24 90.74 1638.97 65.62 1613.7 90.74 1664.24 90.74"/><polygon class="cls-6" points="1639.21 65.42 1613.94 90.54 1588.67 65.42 1639.21 65.42"/><polygon class="cls-5" points="1617.81 90.74 1592.54 65.62 1567.26 90.74 1617.81 90.74"/><polygon class="cls-6" points="1592.77 65.42 1567.5 90.54 1542.23 65.42 1592.77 65.42"/><polygon class="cls-5" points="1524.93 90.74 1499.66 65.62 1474.39 90.74 1524.93 90.74"/><polygon class="cls-6" points="1499.9 65.42 1474.63 90.54 1449.35 65.42 1499.9 65.42"/><polygon class="cls-5" points="1432.06 90.74 1406.78 65.62 1381.51 90.74 1432.06 90.74"/><polygon class="cls-6" points="1407.02 65.42 1381.75 90.54 1356.48 65.42 1407.02 65.42"/><polygon class="cls-5" points="1385.62 90.74 1360.35 65.62 1335.07 90.74 1385.62 90.74"/><polygon class="cls-6" points="1360.58 65.42 1335.31 90.54 1310.04 65.42 1360.58 65.42"/><polygon class="cls-5" points="1339.18 90.74 1313.91 65.62 1288.64 90.74 1339.18 90.74"/><polygon class="cls-6" points="1314.14 65.42 1288.87 90.54 1263.6 65.42 1314.14 65.42"/><polygon class="cls-6" points="1685.65 65.42 1660.38 90.54 1635.1 65.42 1685.65 65.42"/><polygon class="cls-5" points="1571.37 90.74 1546.1 65.62 1520.83 90.74 1571.37 90.74"/><polygon class="cls-6" points="1546.34 65.42 1521.06 90.54 1495.79 65.42 1546.34 65.42"/><polygon class="cls-5" points="1478.49 90.74 1453.22 65.62 1427.95 90.74 1478.49 90.74"/><polygon class="cls-6" points="1453.46 65.42 1428.19 90.54 1402.91 65.42 1453.46 65.42"/><polygon class="cls-5" points="1292.74 90.74 1267.47 65.62 1242.2 90.74 1292.74 90.74"/><polygon class="cls-6" points="1267.71 65.42 1242.44 90.54 1217.16 65.42 1267.71 65.42"/><polygon class="cls-5" points="1246.31 90.74 1221.03 65.62 1195.76 90.74 1246.31 90.74"/><polygon class="cls-6" points="1221.27 65.42 1196 90.54 1170.73 65.42 1221.27 65.42"/><polygon class="cls-5" points="1199.87 90.74 1174.6 65.62 1149.33 90.74 1199.87 90.74"/><polygon class="cls-6" points="1174.83 65.42 1149.56 90.54 1124.29 65.42 1174.83 65.42"/><polygon class="cls-5" points="1153.43 90.74 1128.16 65.62 1102.89 90.74 1153.43 90.74"/><polygon class="cls-6" points="1128.4 65.42 1103.12 90.54 1077.85 65.42 1128.4 65.42"/><polygon class="cls-5" points="1106.99 90.74 1081.72 65.62 1056.45 90.74 1106.99 90.74"/><polygon class="cls-6" points="1081.96 65.42 1056.69 90.54 1031.41 65.42 1081.96 65.42"/><polygon class="cls-5" points="1060.55 90.74 1035.28 65.62 1010.01 90.74 1060.55 90.74"/><polygon class="cls-6" points="1035.52 65.42 1010.25 90.54 984.98 65.42 1035.52 65.42"/><polygon class="cls-5" points="1014.12 90.74 988.84 65.62 963.57 90.74 1014.12 90.74"/><polygon class="cls-6" points="989.08 65.42 963.81 90.54 938.54 65.42 989.08 65.42"/><polygon class="cls-5" points="967.68 90.74 942.41 65.62 917.13 90.74 967.68 90.74"/><polygon class="cls-6" points="942.64 65.42 917.37 90.54 892.1 65.42 942.64 65.42"/><polygon class="cls-5" points="921.24 90.74 895.97 65.62 870.7 90.74 921.24 90.74"/><polygon class="cls-6" points="896.21 65.42 870.93 90.54 845.66 65.42 896.21 65.42"/><polygon class="cls-5" points="874.8 90.74 849.53 65.62 824.26 90.74 874.8 90.74"/><polygon class="cls-6" points="849.77 65.42 824.5 90.54 799.23 65.42 849.77 65.42"/><polygon class="cls-5" points="828.37 90.74 803.1 65.62 777.82 90.74 828.37 90.74"/><polygon class="cls-6" points="803.33 65.42 778.06 90.54 752.79 65.42 803.33 65.42"/><polygon class="cls-5" points="781.93 90.74 756.65 65.62 731.38 90.74 781.93 90.74"/><polygon class="cls-6" points="756.89 65.42 731.62 90.54 706.35 65.42 756.89 65.42"/><polygon class="cls-5" points="735.49 90.74 710.22 65.62 684.95 90.74 735.49 90.74"/><polygon class="cls-6" points="710.45 65.42 685.18 90.54 659.91 65.42 710.45 65.42"/><polygon class="cls-5" points="689.05 90.74 663.78 65.62 638.51 90.74 689.05 90.74"/><polygon class="cls-6" points="664.02 65.42 638.75 90.54 613.47 65.42 664.02 65.42"/><polygon class="cls-5" points="642.61 90.74 617.34 65.62 592.07 90.74 642.61 90.74"/><polygon class="cls-6" points="617.58 65.42 592.31 90.54 567.04 65.42 617.58 65.42"/><polygon class="cls-5" points="596.18 90.74 570.9 65.62 545.63 90.74 596.18 90.74"/><polygon class="cls-6" points="571.14 65.42 545.87 90.54 520.6 65.42 571.14 65.42"/><polygon class="cls-5" points="549.74 90.74 524.47 65.62 499.2 90.74 549.74 90.74"/><polygon class="cls-6" points="524.71 65.42 499.43 90.54 474.16 65.42 524.71 65.42"/><polygon class="cls-5" points="503.3 90.74 478.03 65.62 452.76 90.74 503.3 90.74"/><polygon class="cls-6" points="478.27 65.42 453 90.54 427.72 65.42 478.27 65.42"/><polygon class="cls-5" points="456.87 90.74 431.59 65.62 406.32 90.74 456.87 90.74"/><polygon class="cls-6" points="431.83 65.42 406.56 90.54 381.29 65.42 431.83 65.42"/><polygon class="cls-5" points="410.43 90.74 385.16 65.62 359.88 90.74 410.43 90.74"/><polygon class="cls-6" points="385.39 65.42 360.12 90.54 334.85 65.42 385.39 65.42"/><polygon class="cls-5" points="363.99 90.74 338.71 65.62 313.44 90.74 363.99 90.74"/><polygon class="cls-6" points="338.95 65.42 313.68 90.54 288.41 65.42 338.95 65.42"/><polygon class="cls-5" points="317.55 90.74 292.28 65.62 267.01 90.74 317.55 90.74"/><polygon class="cls-6" points="292.51 65.42 267.24 90.54 241.97 65.42 292.51 65.42"/><polygon class="cls-5" points="271.11 90.74 245.84 65.62 220.57 90.74 271.11 90.74"/><polygon class="cls-6" points="246.08 65.42 220.81 90.54 195.53 65.42 246.08 65.42"/><polygon class="cls-5" points="224.68 90.74 199.4 65.62 174.13 90.74 224.68 90.74"/><polygon class="cls-6" points="199.64 65.42 174.37 90.54 149.1 65.42 199.64 65.42"/><polygon class="cls-5" points="178.24 90.74 152.97 65.62 127.69 90.74 178.24 90.74"/><polygon class="cls-6" points="153.2 65.42 127.93 90.54 102.66 65.42 153.2 65.42"/><polygon class="cls-5" points="131.8 90.74 106.53 65.62 81.26 90.74 131.8 90.74"/><polygon class="cls-6" points="106.77 65.42 81.49 90.54 56.22 65.42 106.77 65.42"/><polygon class="cls-5" points="85.36 90.74 60.09 65.62 34.82 90.74 85.36 90.74"/><polygon class="cls-6" points="60.33 65.42 35.06 90.54 9.79 65.42 60.33 65.42"/></g></g></svg>