<svg xmlns="http://www.w3.org/2000/svg" viewBox="0 0 905.4 454.17"><defs><style>.cls-1{isolation:isolate;}.cls-2{fill:#f2f2f2;mix-blend-mode:soft-light;}.cls-3{fill:none;stroke:#fff;stroke-miterlimit:10;stroke-width:2px;}</style></defs><title>Asset 1</title><g class="cls-1"><polygon class="cls-2" points="227.86 222.65 340.46 335.88 227.89 449.12 227.86 222.65"/><polygon class="cls-2" points="340.46 109.44 453.04 222.65 340.5 335.88 340.46 109.44"/><polygon class="cls-2" points="675.21 227.31 562.62 340.54 675.17 453.78 675.21 227.31"/><polygon class="cls-2" points="562.62 114.1 450.03 227.31 562.57 340.54 562.62 114.1"/><polygon class="cls-3" points="226.74 227.69 113.52 340.26 0.29 227.71 226.74 227.69"/><polygon class="cls-3" points="340.52 113.91 227.3 226.48 114.07 113.93 340.52 113.91"/><polygon class="cls-3" points="454.3 0.12 341.09 112.69 227.86 0.14 454.3 0.12"/><polygon class="cls-3" points="227.29 454.06 114.08 341.47 0.85 454.01 227.29 454.06"/><polygon class="cls-3" points="678.11 227.69 791.32 340.26 904.55 227.71 678.11 227.69"/><polygon class="cls-3" points="564.32 113.91 677.54 226.48 790.77 113.93 564.32 113.91"/><polygon class="cls-3" points="450.54 0.12 563.75 112.69 676.98 0.14 450.54 0.12"/><polygon class="cls-3" points="678.67 454.06 791.88 341.47 905.11 454.01 678.67 454.06"/><path class="cls-3" d="M110.71,340.26"/></g></g></svg>