<svg xmlns="http://www.w3.org/2000/svg" viewBox="0 0 178.27 75.18"><defs><style>.cls-1{font-size:23.87px;font-family:Raleway-Light, Raleway;}.cls-1,.cls-3{fill:#3c3c3b;}.cls-2{fill:#dadada;}.cls-3{fill-rule:evenodd;}</style></defs><title>Asset 28</title><g id="Layer_2" data-name="Layer 2"><g id="Layer_1-2" data-name="Layer 1"><text class="cls-1" transform="translate(0 68.74)">@embracedoha</text><rect class="cls-2" x="24.61" width="36.14" height="36.14"/><path class="cls-3" d="M45.71,11.59c.61,0,1.21,0,1.82,0h.25V8.43c-.33,0-.66-.08-1-.1-.62,0-1.24-.06-1.87,0a4.55,4.55,0,0,0-2.63.82,3.93,3.93,0,0,0-1.58,2.63,9,9,0,0,0-.11,1.35c0,.71,0,1.41,0,2.12v.27h-3V19h3v8.85h3.66V19h3l.46-3.54H44.21s0-1.75,0-2.5c0-1,.65-1.35,1.48-1.38"/><rect class="cls-2" x="107.95" width="36.14" height="36.14"/><path class="cls-3" d="M122.65,22.66a4.12,4.12,0,0,1-3.82-2.85,4.09,4.09,0,0,0,1.76-.05l.06,0A4.11,4.11,0,0,1,118,17.85a4,4,0,0,1-.6-2.18,4,4,0,0,0,1.83.5,4.12,4.12,0,0,1-1.69-2.49,4.08,4.08,0,0,1,.44-3A11.76,11.76,0,0,0,126.43,15c0-.16-.05-.31-.07-.45A4.1,4.1,0,0,1,129.75,10a4,4,0,0,1,3.6,1.15.21.21,0,0,0,.22.06,8.24,8.24,0,0,0,2.39-.92l.06,0h0a4.21,4.21,0,0,1-1.76,2.24,7.86,7.86,0,0,0,2.29-.62v0c-.15.21-.31.42-.47.62a8,8,0,0,1-1.49,1.42.14.14,0,0,0-.07.13,11.39,11.39,0,0,1-.07,1.83,12.06,12.06,0,0,1-1.06,3.66,11.88,11.88,0,0,1-2.22,3.24,11,11,0,0,1-5.65,3.15,12.25,12.25,0,0,1-2.29.28,11.62,11.62,0,0,1-6.57-1.76l-.1-.07a8.29,8.29,0,0,0,4.11-.57,8,8,0,0,0,2-1.14"/><rect class="cls-2" x="65.45" width="36.14" height="36.14"/><path class="cls-3" d="M89.65,9.15H77.39a2.79,2.79,0,0,0-2.79,2.79V24.19A2.79,2.79,0,0,0,77.39,27H89.65a2.79,2.79,0,0,0,2.79-2.79V11.94a2.79,2.79,0,0,0-2.79-2.79m-2.31,2.46a.5.5,0,0,1,.5-.49H90a.5.5,0,0,1,.5.49v2.15a.5.5,0,0,1-.5.5H87.84a.5.5,0,0,1-.5-.5Zm-7.11,5.17a3.53,3.53,0,0,1,6.57,0,3.49,3.49,0,0,1,.25,1.29,3.53,3.53,0,0,1-7.06,0,3.49,3.49,0,0,1,.24-1.29m10.32,7.41a.9.9,0,0,1-.9.9H77.39a.9.9,0,0,1-.9-.9V16.78h1.76a5.59,5.59,0,0,0-.15,1.29,5.42,5.42,0,1,0,10.84,0,5.59,5.59,0,0,0-.15-1.29h1.76Z"/></g></g></svg>